<?xml version="1.0" encoding="UTF-8"?><svg id="Layer_1" xmlns="http://www.w3.org/2000/svg" viewBox="0 0 290 460"><path d="m18.93,364.61c7.23,12.76,17.97,22.42,32.04,29.58,8.17,4.16,14.5,9.71,18.41,16.99,4.67,8.68,5.71,17.47-.43,25.99-2.81,3.9-1.08,5.84,3.11,7.8,40.15,18.79,77.32,5.19,99.14-25.21,10.67-14.87,14.57-31.51,16.36-48.51,3.8-36.14,1.57-72.35,1.73-108.53.16-37.68.47-75.36.55-113.03.01-5.08-.82-10.17-1.51-15.23-1.28-9.43-8.38-14.84-18.49-18.2-9.59-3.18-19.75-3.32-29.8-4.11-1.69-.13-3.6.37-5.38-1.38,3.94-2.16,8.33-1.68,12.36-1.61,42.26.71,84.52,1.08,126.78-.26,5.54-.17,11.12-.37,16.2,1.67-.01.49-.02.97-.03,1.46-5.54.35-11.09.61-16.61,1.07-13.57,1.14-25.81,4.33-32.24,15.59-3.95,6.9-3.83,14.43-3.86,21.79-.13,43.46-.01,86.91-.02,130.37,0,25.35.33,50.71-.26,76.05-.55,23.92-6.49,46.96-24.02,66.54-19.6,21.89-45.43,35.42-79.33,36.35-17.68.48-35.31.34-52.65-3.01-40.29-7.77-77.06-35.95-79.37-73.27-1.4-22.69-2.28-45.34-.94-68.04.06-1.07-.35-2.29,1.28-3.43,2.36,18.28,7,35.84,16.98,52.56Z" style="stroke-width:0px;"/><path d="m54.83,151.13c8.65,20.9,24.71,36.52,45.67,49.08,14.47,8.67,28.75,17.59,41.3,28.19,16.87,14.25,25.67,31.33,26.22,51.36.23,8.23,1.89,16.31,4.7,24.22.26.74.19,1.56.26,2.18-1.1.71-1.85.47-2.25-.15-12.03-18.76-32.46-30.3-52.81-41.76-14.1-7.94-28.79-15.17-43.08-22.9-38.94-21.06-61.95-50.61-68.44-88.88-5.78-34.15-.1-66.77,21.74-96.39C49.6,27.01,81.73,11.34,122.73,7.65c17.84-1.61,35.17.14,52.59,2.62,4.89.7,10.12,1.64,14.34-1.24,14.54-9.95,31.16-10.24,48.5-7.63,6.19.93,12.45,1.69,17.68,4.69-.2,2.24-2.09,2.06-3.51,2.42-8.88,2.2-10.36,3.74-10.37,11.59-.04,21.06,0,42.13.03,63.19,0,7.4-1.19,8.59-10.68,10.4-2.48-2.12-2.52-5.05-3.3-7.7-6.96-23.7-20.61-43.98-43.56-59.67-22.03-15.07-46.42-17.12-72.49-9.06-20.37,6.3-34.23,18.76-44.33,34.21-20.64,31.58-24.5,64.77-12.81,99.67Z" style="stroke-width:0px;"/></svg>