<?xml version="1.0" encoding="UTF-8"?><svg id="Layer_1" xmlns="http://www.w3.org/2000/svg" xmlns:xlink="http://www.w3.org/1999/xlink" viewBox="0 0 1310.36 749.81"><defs><linearGradient id="linear-gradient" x1="607.29" y1="-84.67" x2="708.08" y2="528.95" gradientTransform="translate(-39.32 3.1) scale(1.04 1.3)" gradientUnits="userSpaceOnUse"><stop offset="0" stop-color="#042f3c"/><stop offset=".11" stop-color="#1b4757"/><stop offset=".49" stop-color="#ce96a4"/><stop offset=".55" stop-color="#e0a2aa"/><stop offset="1" stop-color="#fcc9b9"/></linearGradient><linearGradient id="linear-gradient-2" x1="633.41" y1="-84.62" x2="734.2" y2="529" gradientTransform="matrix(1,0,0,1,0,0)" xlink:href="#linear-gradient"/><linearGradient id="linear-gradient-3" x1="321.75" y1="362.34" x2="418.99" y2="362.89" gradientUnits="userSpaceOnUse"><stop offset="0" stop-color="#302a49"/><stop offset="1" stop-color="#542a56"/></linearGradient><linearGradient id="linear-gradient-4" x1="239.88" y1="363" x2="201.74" y2="367.37" gradientUnits="userSpaceOnUse"><stop offset="0" stop-color="#1a3044"/><stop offset="1" stop-color="#572e5b"/></linearGradient><linearGradient id="linear-gradient-5" x1="483.5" y1="623.92" x2="486.7" y2="655.74" gradientUnits="userSpaceOnUse"><stop offset="0" stop-color="#663a75"/><stop offset="1" stop-color="#332348"/></linearGradient></defs><g id="Background"><rect width="1310.36" height="749.81" style="fill:url(#linear-gradient); stroke-width:0px;"/><path d="m49.97,1.26c420.03-3.58,840.27,1.62,1260.32,1.28-4.92,13.64,4.96,28.52-7.68,33.27-.22-1.52-5.67,8.01-3.84-27.51h-2.56c-2.03,54.32,2.72,113.24,0,166.98,0,.16-2.5.95-2.56,1.92-.65,11.3,1.19,37.14,0,42.22-.44,1.88-15.45,17.23-8.96,35.83,1.15,3.3,8.49,1.11,10.24,12.16-9.27-1.37-3.65,15.11-5.12,30.07-.06.65-3.79,3.21-3.84,3.84-2.72,35.72,2.9,99.85,0,133.71-.01.13-2.45-.43-2.56.64-.53,5.22.81,21.31,0,23.03-1.43,3.05-5.57,1.18-6.4,2.56-.92,1.53.73,26.29,0,31.99-.16,1.22-3.63.06-3.84,1.28-.55,3.22.59,7.72,0,10.88-2.21,11.92-3.41,6.72-3.84,7.68-7.26-2.18-2.6-26.68-3.84-45.42-.08-1.24-3.82-4.8-3.84-5.12-.84-15.49,2.2-102.57,0-107.48-.17-.37-7.21-3.51-7.68-2.56-2.13,4.27,2.55,82.12-1.28,95.32-.87-2.86-8.42-12.12-8.96-14.71-2.26-11.01,2.22-66.14,0-75.49-.17-.73-7.49-10.04-8.96-12.16.85-10.36,3.06-77.59,1.28-81.25-.52-1.07-6.28-3.43-7.68,0-2.72,6.69,5.15,45.64-5.12,65.89-.13-.15-3,2.38-3.84-.64-2.1-7.61,1.45-97.09,0-116.44-3.41,7.47-2.95,18.34-6.4,25.59-6.33,13.34-4.36-16.84-5.12-17.91-1.26-1.79-8.97.51-10.24-1.28-1.66-2.35-1.21-69.83-6.4-53.74-3.72,11.54,4.03,136.18,0,142.03-.81,1.18-9.93-.17-11.52,3.84-.76,1.93-2.45,40.75,5.12,38.39-.74,15.69,1,31.69,0,47.34-.08,1.18-3.75.1-3.84,1.28-1.23,15.6-2.88,36.19,10.24,36.47-1.13,4.37,2.92,7.37-5.76,6.4.01,10.08-4.34,9.03-4.48,9.6-1.73,7.36-.79,50.56-1.28,63.34l-6.4-1.28c-1.47-27.72,2.55-68.93,1.28-79.33-1.51-12.36-7.92-8.12-8.96-5.76-.99,2.26.09,42.09,0,49.26-.16,13.22.2,26.45,0,39.66-12.19-14.64-9.49-25-10.24-26.23-.83-1.38-4.96.49-6.4-2.56-1.75-3.71,4.28-12.59-6.4-12.8-1.9-74.08-.88-.02-3.84,3.84-2.84,3.71-7.7.75-8.96,2.56-1.35,1.94,5.84,11.18-12.16,27.51-2.51-1.93,1.82-56.66-2.56-58.86-9.29-4.66-1.87,51.9-4.48,58.22-.82,1.98-5.44-8.64-6.4,23.03-10.33-25.31-5.25-52.63-6.4-79.33-8.23-4.69-2.05-16.08-8.32-14.71.53,25.28-5.01,15.52-7.04,19.83-.93,1.97.58,33.54,0,40.94-.41,5.3-3.18,37.78-3.84,39.66-.25.72-10.65,8.18-12.8,8.32,1.34-20.39,4.01-40.92,3.84-61.42-.2-24.01,1.55-30.45-11.52-54.38,6.43-26.45,1.21-53.07-6.4-78.69-2.44-8.21-5.12-28.68-17.91-26.87-3.33-45.17-.29-90.45,0-135.63.34-53.1-.25-106.2,0-159.3-7.63-3.8-4.61,4.92-5.12,19.83-1.47.47-1.54,1.4-3.84,1.28-1.87-.1-2.34-.46-3.84-1.28-1.72-.95-2.27-4.41-5.12-5.12-.71-.18-1.74.09-2.56,0-5.75,5.46-14.98,2.48-15.35,3.2-1.46,14.05,1.51,87.77,0,92.12-.34.98-1.67.65-2.56.64-.74-31.79-2.1-63.51-1.28-95.32-30.43-5.01-15.39,7.92-19.19,16.63-1.44,3.3-6.58.97-7.68,2.56-2.85,4.13.96,74.86-1.28,78.05-1.98,2.82-8.04-6.14-6.4,14.71-9.38-2.43-5.95,8.98-6.4,26.87-1.02,40.19,1.9,62.17-3.84,104.28-.68,4.99.9,18.42,0,20.47-1.44,3.3-6.58.97-7.68,2.56-2.09,3.03,1.23,63.83,1.28,73.57-2.37,3.22-3.54-19.98-7.68-12.16-2.51,4.75-1.68,95.55-1.28,107.48.02.46,2.55,4.22,2.56,4.48.17,3.83-.17,7.69,0,11.52-1.18,8.49-4.98,6.73-6.4,12.16-.71,2.7,1.45,3.59,1.28,4.48-.21,1.08-4.1,3.03-2.56,21.11-1.82,2.79-3.86,1.67-6.4,1.92.32-3.66.35-69.91,0-73.57-.06-.65-3.76-3.17-3.84-3.84-1.62-13.97.59-27.07-6.4-41.58-5.91-17-.79-44.98-2.56-64.62-.1-1.14-4-12.18-5.12-22.39-2.04-18.58-6.08-35.04-3.84-54.38-5.06-2.12-4.86.63-5.12.64-3.44.17-17.89,1.75-19.19,4.48-1.51,19.67,2.02,80.43,0,89.57-.09.41-1.76,1.99-2.56,1.92-.78-2.35-2.06-5.92-5.12-5.76-.19,30.07.26,60.14,0,90.21-.15,17.13.97,35.58,0,52.46-1.45,25.22-1.25,12.17-7.68,17.91l-1.28-39.03c-4.52-7.92.04,26.43-5.76,23.67-11.2-29.79-1.86-18.14-14.71-14.71,1.07-9.73-.33-15.47-2.56-23.67-3.37-12.4-11.61-22.21-20.47-31.35l16.63-25.59c-2.69-52.29-.76-104.46,0-156.74.21-14.07,4.1-75.26,1.28-83.81-.72-2.18-6.96-4.22-7.68-6.4-.62-1.88,1.13-51.23-3.84-35.83-1.06,3.3,1.35,54.84,1.28,67.17-4.37-.66-1.51,3.86-3.2,5.12-2,1.49-3.34-5.73-7.04-3.84-1.66-30.83-6.57,7.99-6.4,36.47-6.24,5.64-6.04-10.58-6.4-14.71-2.02-23.52,2.36-88.21,0-100.44-.09-.47-4.88-7.13-6.4-7.04-7-1.1-13.57,1.49-20.47,1.28-2.18-13.52,4.93-90.04-5.12-93.4-12.01-4.01-12.38,9.55-14.07-18.55-1.12-1.68-3.63.41-3.84,1.28-1.13,4.79.47,82.24,1.28,98.52-24.17,22.92-14.43,44.73-16.63,52.46-26.41,26.57-18.02,38.9-19.19,42.22-5.7,16.22-1.78-66.71-8.96-46.06-.8,2.31.04,9.88,1.28,12.8-.7,1.75-3.44-.24-3.84-1.28-7.9-20.88,19.11-78.7-17.91-53.74.6,22.14-.81,44.41,0,66.53.04,1.09,3.08-6.77,3.84,19.83.72,25.11-.27,50.36,0,75.49-2.08.36-7.93-.8-8.96.64-5.16,7.29,10.31,63.71,1.28,76.13-6.24,8.69-7.06,19.04-7.68,29.43-1.19-.04-2.22,2.22-3.2,1.28-11.44-11.01-3.05-23.74-10.88-18.55q-.64,28.47-1.28,56.94c-7.63-2.75-23.22-3.31-30.71-2.56,3.25-33.25-7.35-26.22-8.96-31.35-2.57-8.19,5.07-25.94-5.12-12.8q-.32-52.14-.64-104.28-1.6,29.11-3.2,58.22c-15.12-31.54-9.54,34.81-10.24,71.01l-6.4-1.28c-.83-36.41-3.75-29.72-3.84-31.35-.83-15.08,1.31-35.23,0-48.62-.12-1.2-3.7-.08-3.84-1.28-.72-6.05.98-23.18,0-25.59-9.46-23.23-5.39,57.8-6.4,76.77-.02.44-3.76,1.24-3.84,2.56-1.36,22.3,4.15,55.87-5.12,55.02-.88,8.99,1.18,44.62,0,47.34-2.07,4.75-10.12-5.9-7.68,19.19-.22,1.09-2.54.51-2.56.64-7.52-2.89.5,4.74-8.96,6.4-.17-4.43-.76-10.73-2.56-14.71v-75.49c-1.43-3.22-19.88-2.12-20.47-1.28-3.42,4.83-.95,103.01-1.28,118.35-14.24-28.01-1.61-.6-16.63-1.92q-7.36,26.55-14.71,53.1c-1.37.72-12.23-5.09-13.43-10.24-3.7-15.85,7.96-57.6-8.96-52.46,0-.43,0-.85,0-1.28.04-33.91-.03-67.81,0-101.72-.03-1.05-2.56-.51-2.56-.64-.64-21.57,1.69-98.8-1.28-103-.68-.97-5.48-.85-5.76-.64-4.98,3.75,8.09,103.93-10.88,116.44-.03-.19-3.03,2.39-3.84-.64-1.77-6.6,1.32-60.69,0-76.77-.87-.99-2.52,3.61-2.56,3.84-1.41,7.97-.53,134.99-1.28,161.86-3.24,1.4-4.77-.18-7.68,0-6.28-42.26-.31-86.86-2.56-129.87-.03-.6-3.8-3.23-3.84-3.84-.83-13.65.92-60.15-2.56-44.78-1.49,6.58,2.19,113.95,2.56,134.99l-8.96-2.56c-.13-4.92-1.26-4.09-1.28-5.12-.32-13.31,1.39-84.7,0-88.93-.7-2.12-7.34-4.88-8.96-7.04-11.15-14.91,5.81-41.46-12.8-37.11-4.83-23.37-5.73-46.6-6.4-70.37-.38-13.34,2.11-92.26,0-96.6-1.7-3.5-7.26-.34-8.96-3.84-1.87-3.86,4.34-24.53-5.76-19.83-3.75,1.74-.89,9.17-1.92,10.88-6.42,10.66-2.5-30.4-3.84-34.55-4.28-13.3-1.2,41.55-2.56,43.5-1.2,1.72-7.42-.94-8.96,2.56-1.34,3.05,1.48,59.77-2.56,66.53-7.07,11.85-2.23-54.77-3.84-57.58h-2.56c-3.37,25.42,2.69,171.8,0,180.41-.73,2.33-10.69,7.52-11.52,10.24-.84,2.74.85,10.72,0,12.8-.67,1.65-8.4,3.73-8.96,5.12-.88,2.2-.53,45.04,0,47.34,1.59,6.9,4.77,2.89,5.12,3.84,1.06,2.9-.09,34.92-1.28,42.22,10.46,10.53,4.61,33.88-1.28,25.59-1.26-1.77,3.99-29.16-7.68-40.3-4.21-24.59,1.97-51.08-8.32-74.21,4.49,28.45-1.84,24.81-1.92,26.23-1.59,27.92,5.34,64.45-8.32,51.82-4.95,8.54,11.16,10.65-4.48,10.24-.88-19.8,5.17-21.74-15.35-20.47,0-5.97-.03-11.94,0-17.91.18-37.1-1.54-75.74,0-112.6.33-7.87-1.7-10,2.56-15.35.27-.34,3.15.68,3.84-.64,1.86-3.57,2.21-77.24,0-80.61-4.36-6.63-4.89,4.07-5.12,5.76-8.71,1.56-9.25-9.74-15.35-10.24.05-3.4,2.55-3.96,2.56-4.48.25-18.07.33-36.31,0-54.38-.32-17.77,2.93-43.19-6.4-34.55-.15-13.52,2.67-99.8,0-104.28-5.73-9.61-3.7,44.15-3.84,47.34-.02.51-2.54,2.05-2.56,2.56-1.71,42.71-1.82,100.1-1.28,143.31.02,1.25,3.83,2.15,3.84,2.56.13,10.87-.11,21.75,0,32.63.31,31.95.28,64.01,0,95.96-.12,14.15,1.14,85.84,0,90.21-.19.73-8.11,8.29-8.96,12.16-2.14,1.08-5.06,5.2-5.12,0,.29-22.93,1.65-163.65,0-172.09-.93-4.77-9.82-15.14-10.24-15.99-2.43-4.93-5.01-6.61-5.12-7.04-3.28-13.38,3.47-42.2-2.56-63.34-3.23-11.32-10.63-14.93-8.96-23.67l-2.56-.64c-40.03,5.31-17.12,69.97-16.63,77.41,2.52,38.91-.96,116.15,0,165.06.02,1.14,3.83,4.8,3.84,5.12.67,32.1.32,64.49,0,96.6-12.6-6.73-1.52-28.85-9.6-34.55,1.24,41.64-9.71,3.05-9.6,27.51-17.21-3.01.54,9.5-20.47,35.19-1.26-.13-2.58.12-3.84,0l-1.28-68.45c-4.6-9.23-2.34,39.33-7.68,21.75-3.65-12.04,9.84-53.12-6.4-69.09v-12.8h-2.56c-.08,12.53-2.15,25.27-2.56,37.75l-5.12-2.56c-.53-14.71.72-37.38-1.28-50.54-.22-1.46-8.19-26.89-8.96-28.15-.18-.29-6.14-2.78-6.4-2.56-3.34,2.85,2.51,7.21,2.56,7.68.6,6.07,1.15,54.94,0,57.58-1.44,3.3-6.58.97-7.68,2.56-1.76,2.55,1.32,47.81,1.28,55.66h-7.68c-.12-.8.18-1.85,0-2.56-1.52-5.98-6.3-6.05-9.6-10.24l-.64,21.11c-20.57-.81-1.15-32.6-19.19-40.94-3.18-1.47-14.4,4.33-16.63,8.32-7.74,18.73-1.55,2.94-3.84-3.2-.28-.74-3.8-3.94-5.12-4.48-.01-27.3,0-54.59,0-81.89,0-14.5,0-29,0-43.5,4.56.78,4.9-2.38,5.12-2.56,3.2-2.61,6.17-5.28,8.96-8.32-2.5-20.68,3.26-153.85,0-161.22-.96-2.18-7.81-3.05-10.24-1.92-.23-7.52-.57-44.48-1.28-46.7-.36-1.13-2.48-.48-2.56-.64-.5-1.08-5.98-8.52-7.68-8.96-.16-6.59-1.27-4.85-1.28-5.12-.69-29.82.51-59.73,0-89.57Z" style="fill:url(#linear-gradient-2); stroke-width:0px;"/><path d="m38.45,1.26v51.18l-2.56.64c-.3,96.17-.17,192.36-1.28,288.53-.69,59.5-2.05,118.99-2.56,178.49l-31.99.64C-.15,347.59.23,174.42.07,1.26c12.79-.15,25.6.2,38.39,0Z" style="fill:#031822; stroke-width:0px;"/><path d="m1264.23,539.94c.43.91,1.1,1.58,1.28,2.56-6.1,3.12-10.02-9.27-12.8-3.2-2.55,5.57,4.68,8.28,7.04,12.16,1.12-6.15-.44-5.84,5.76-7.68.63-.19,1.73.09,2.56,0-.17,5.75.13,11.52,0,17.27-61.89,77.8-34.03,47.25,42.22,51.82,0,2.99,0,5.97,0,8.96-11.63,1.38-33.25-2.77-37.11,2.56-4.64-.18-9.43-.11-14.07,0-.25,0-2.02-3.5-3.2-3.84-5.91,2.65-12.29,3.73-18.55,5.12-3.07-5.11-22.05,2.26-24.95,2.56-9.36.96-19.19.51-28.79,1.28,6.29-19.66-35.26,9.5-29.43-12.8,6.15-1.37,11.52-3.18,17.91-3.84.8-.08,1.09-1.14,5.12-1.28,24.66-.84,14.95,6.92,21.11,8.96,1.98.65,8.78-.4,9.6-1.92,8.63-16.05-26-4.74-29.43-10.88.67-7.94-.02-18.44,0-26.87.05-20.11.6-40.05,1.28-60.14,21.08.99,5.29-58.44,26.23-53.74,14.53,3.26,1.26,49.21,10.24,47.34,7.37-1.53,1.52-31.06,3.2-33.91.74-1.26,10.97-2.09,12.16-.64,1.64,2.01-2.57,45.22-.64,51.82,1.96,4.42,22.5.33,26.23,1.92,1.27.54,1.22,7.65,7.04,6.4Z" style="fill:#582a59; stroke-width:0px;"/><path d="m795.93,744.66c2.59,2.94,25.83-13.42,31.99-8.96-.8,3.59-1.25,2.42-1.28,2.56-10.08,5.08-25.01,6.78-25.59,11.52-82.74.04-165.48.04-248.23,0l184.25-53.74q20.79-4.48,41.58-8.96c1.3,6.41,9.29,7.97,14.07,11.52,7.59,32.02-4.48,24.65-4.48,26.23,0,1.26,7.29-6.99,7.68,19.83Z" style="fill:#031822; stroke-width:0px;"/><path d="m1310.29,612.87c-76.26-4.57-104.12,25.98-42.22-51.82.13-5.75-.17-11.53,0-17.27.33-10.78-2.51-22.24,1.28-30.71.43-.96,1.63,4.24,3.84-7.68,5.65.45,27.1-53.5,28.15-56.94,6.74-22.07,2.97-36.42,8.96-51.82-.06,72.08.19,144.16,0,216.24Z" style="fill:#322645; stroke-width:0px;"/><path d="m1310.29,396.63c-5.99,15.4-2.21,29.75-8.96,51.82-1.05,3.44-22.5,57.39-28.15,56.94.59-3.16-.55-7.66,0-10.88.21-1.22,3.68-.06,3.84-1.28.73-5.7-.92-30.46,0-31.99.83-1.38,4.96.49,6.4-2.56.81-1.72-.53-17.81,0-23.03.11-1.07,2.55-.51,2.56-.64,3.99-.69,5.53-1.1,6.4-5.76,1.49-7.96,3.82-153.86,2.56-161.86-1.75-11.05-9.08-8.85-10.24-12.16-6.49-18.59,8.52-33.94,8.96-35.83,1.19-5.09-.65-30.92,0-42.22.06-.97,2.55-1.76,2.56-1.92l7.68-.64c-3.02-41.7,4.56-99.02-1.28-138.83,12.63-4.74,2.75-19.63,7.68-33.27-.09,131.36.12,262.73,0,394.09Z" style="fill:#582a59; stroke-width:0px;"/><path d="m778.01,680.69c-.35.37.68,3.25-.64,3.84q-17.59,2.56-35.19,5.12c.3-.81,1.7-7.22.64-7.68-1.26.93-3.21,3.7-3.84,3.84-73.2,16.65-145.73,35.34-218.8,52.46l26.23,11.52c-37.96-.02-75.92.02-113.88,0,3.52-8.68,3.5-17.98,5.12-26.87.56-3.09,3.22-7.73,3.84-11.52,1.81.46,6.84-.98,8.96-1.28,8.45,5.28,30.09,16.24,38.39,19.19,4.28,1.53,24.89,7.81,27.51,7.68,43.8-17.94,209.92-49.37,232.23-60.14,3.44-1.66,9.52-4.07,11.52-7.04,4.16-11.15,1.09-10.36,1.28-10.88,1.06-2.88,2.82-8.05,3.84-10.24.11-.24-.16-1.61,1.28-3.84,2.16-3.35,3.42-3.32,6.4-5.12,1.63,13.87-4.34,32.91,5.12,40.94Z" style="fill:#031822; stroke-width:0px;"/><path d="m742.19,689.64c-.14.38-4.39,5.18-5.12,6.4l-184.25,53.74c-2.13,0-4.27,0-6.4,0l-26.23-11.52c73.07-17.12,145.6-35.81,218.8-52.46.63-.14,2.58-2.91,3.84-3.84,1.06.45-.34,6.86-.64,7.68Z" style="fill:#582a59; stroke-width:0px;"/><path d="m48.69,1.26v89.57c-.26,65.68.35,131.37,0,197.04-7.04,4.76,3.22,21.96-10.24,5.12.15-59.73.86-119.41,1.28-179.13.27-37.53-.2-75.07,0-112.6,2.98-.04,5.97.03,8.96,0Z" style="fill:#1f283a; stroke-width:0px;"/><path d="m366.01,706.28c7.18-.11,14.98,2.89,23.03,2.56-3.93,2.71-9.69,6.05-14.07,7.68-21.22,7.85-54.96,7.71-58.22,8.96-1.05.4-11.05,11.54-.64,11.52-1.79.38-24.29,9.89-28.15,12.8-1.71,0-3.41,0-5.12,0,4.55-8.56-37.91-4.83-56.94-6.4,20.92-29.32,31.76-10.18,48.62-12.8,4.74-.74,35.85-23.48,91.49-24.31Z" style="fill:#322645; stroke-width:0px;"/><path d="m38.45,341.61c.02,48.19-.26,96.4,0,144.58.08,15.65,5.91,42.05-5.12,40.94-11.07-.33-22.19.24-33.27,0,0-2.13,0-4.27,0-6.4l31.99-.64c.5-59.5,1.87-119,2.56-178.49h3.84Z" style="fill:#582a59; stroke-width:0px;"/><path d="m432.54,749.78c-18.77-.01-37.53.02-56.3,0-1.74-6.46-18.11-6.8-20.47-12.8,9.92.16,25.91-2.45,28.79,3.84,8.12-4.72,17.41-6.26,26.23-8.96,8.97-2.74,18.31-5.05,26.87-8.96-1.61,8.89-1.59,18.19-5.12,26.87Z" style="fill:#2f1838; stroke-width:0px;"/><path d="m355.77,736.98c2.36,6,18.74,6.34,20.47,12.8-29.43-.02-58.86.03-88.29,0,3.86-2.9,26.36-12.42,28.15-12.8,13.89-2.94,26.03-.22,39.66,0Z" style="fill:#1b1a2d; stroke-width:0px;"/><path d="m826.63,738.26c-.13.63,2.67,7.17-2.56,11.52-7.68,0-15.35,0-23.03,0,.58-4.73,15.51-6.43,25.59-11.52Z" style="fill:#582a59; stroke-width:0px;"/><path d="m39.73,113.86c-.89,0-2.22.34-2.56-.64-1-2.87,1.28-52.1,1.28-60.78V1.26c.43,0,.85,0,1.28,0-.2,37.53.27,75.07,0,112.6Z" style="fill:#66656e; stroke-width:0px;"/><path d="m49.97,90.83h-1.28V1.26c.43,0,.85,0,1.28,0,.51,29.83-.69,59.74,0,89.57Z" style="fill:#657781; stroke-width:0px;"/><path d="m1021.12,49.89c-2.26,38.33-1.39,76.8-1.28,115.16.16,56.69-.32,113.5,0,170.18.1,18.16-.3,101.34,1.28,109.4.07.37,4.27,3.99,3.84,6.4,6.61-7.85,1.46-110.89,7.04-110.68,9.01,16.22,3.06,76.98,4.48,81.25,1.17,3.51,4.95,3.05,7.68,1.92,0,.16,1.08-.1,2.56,1.92v13.43c-1.32,25.04.48,50.51,0,75.49-.02.94.02,1.71,0,2.56-.07,2.93-1.19,6.83-1.28,10.24-.59,23.91-1.62,47.76-2.56,71.65-14.77.68-30.11,2.29-44.14,6.4l-.64,3.84-1.28,30.71c-1.06,6.04-23.23,4.73-37.11,8.96-7.38-5.18-14.23,2.55-24.31,0-.14-.04.51-2.06-.64-2.56-.83-.36-6.3,4.02-8.32-8.96,36.66-1.65,59.52,2.95,44.78-15.35l1.28-6.4c.32-.04-.79-1.98,6.4-1.28.39,1.79-.96,3.38,4.48,7.68,5.97-1.07-.45-45.19-4.48-15.35h-148.42c2.43-10.45.62-37.31,1.28-50.54,1.75-2.57,3.47-1.74,3.84-1.92.31-.15,2.85.09,6.4-1.28,7.91-3.07,1.23-3.57,4.48-7.68.53-.66,9.4-1.47,9.6-1.92,2.32-5.31-4.41-7.47,5.12-15.99,6.42-5.75,6.23,7.31,7.68-17.91,2.75-.98,8.12-1.44,9.6-2.56,15.34-11.64-1.05-124.32,10.88-136.27,4.96-4.96,2.53.49,5.12,3.2-.04,10.83,1.28,12.15,1.28,12.8,0,.58-3.84,5.83-3.84,10.88,0,6.36,2.54,14.47,2.56,20.47.12,35.82.19,71.66,0,107.48l2.56-2.56c-2.5,17.59,9.29,19.31,21.11,27.51.71-.2,4.35-12.62,4.48-14.07,2.53-.25,4.58.87,6.4-1.92-1.54-18.08,2.35-20.03,2.56-21.11,7.19,11.63,5.7-3.26,5.12-16.63-.17-3.83.17-7.69,0-11.52.11-2.96,4.64,3.87,6.4.64,2.39-4.41.06-87.69,0-100.44-.05-9.75-3.37-70.54-1.28-73.57,1.1-1.59,6.24.74,7.68-2.56.9-2.05-.68-15.49,0-20.47,5.74-42.11,2.82-64.09,3.84-104.28l8.96,6.4c.13,9.8-.21,19.63,0,29.43,1.14,53.54,3.32,107.06,5.12,160.58,1.17,2.81,5.01-10.77,5.12-11.52,3.22-22.19-2.93-148.48,0-157.38.09-.27,3.97-3.87,5.12-2.56,2.9,27.55.88,61.75,5.12,88.29.26,1.64,6.7-4.63,5.76,30.07,5.13-30.92-9.59-116.52,13.43-113.24l1.28,129.87c.07,26.66-.05,53.31,0,79.97.99-.42,6.28-4.72,6.4-5.12,1.24-4.34-.08-76.92,0-90.21.3-48.19.06-96.4,0-144.58,9.05-8.53,1.29,50.64,8.96,37.75,2.58-4.34.47-89.2,0-101.08-.04-1.08-3.15,4.4-3.84-9.6,1.13-.12,3.3.52,3.84-.64,1.4-3.02.62-58.94-2.56-65.89,2.85.7,3.4,4.17,5.12,5.12Z" style="fill:#582a59; stroke-width:0px;"/><path d="m394.16,255.89q-1.28-17.59-2.56-35.19-1.28,55.66-2.56,111.32c1.46,2.18,11.32-4.47,11.52-5.76,18.61-4.35,1.64,22.2,12.8,37.11-9.37-.47-2.42-15.16-6.4-21.11q-.64,60.14-1.28,120.27c1.26,2.96,13.87-.59,16.63-3.2.02,1.02,1.15.2,1.28,5.12.53,19.44-2.38,47.18,2.56,60.14,14.01,13.27-7.02,33.57,17.91,35.83,0,3.84-.04,7.68,0,11.52.06,6.33-1.61,12.23-1.28,18.55,1.61,3.64,8.84,1.04,11.52,1.92,7.86,2.58,23.87,12.74,28.15,19.19-10.71.27-22.27,3.52-33.27,3.84-21.71.64-43.53-.47-65.26,0h-3.84c-.38-1.51-1.82-2.38-2.56-3.84,4.45-13.57-.9-26.19-7.68-37.75l-2.56,24.95c-3.04-2.66-11.67-6.45-15.35-8.96-3.6-2.45-6.44-5.99-9.6-8.96-15.13-4.94-33.15-16.79-47.98-17.91l-3.84-2.56c1.51-13.34,18.52-2.54,20.47-17.91.96-7.57-1.19-32.28,0-35.19.74-1.81,3.1,3.09,3.84,1.28.9-2.19-.85-12.86,0-14.07,1.17-1.67,6.5.39,7.68-1.28,1.88-2.67-4.26-23.29,5.12-39.03,11.67,11.14,6.42,38.54,7.68,40.3,5.89,8.29,11.74-15.06,1.28-25.59,1.19-7.31,2.34-39.32,1.28-42.22-.35-.95-3.53,3.06-5.12-3.84-.53-2.31-.88-45.15,0-47.34.56-1.39,8.29-3.47,8.96-5.12.85-2.08-.84-10.05,0-12.8.83-2.71,10.79-7.91,11.52-10.24,2.69-8.61-3.37-154.99,0-180.41h2.56c1.6,2.81-3.23,69.43,3.84,57.58,4.03-6.76,1.22-63.49,2.56-66.53,1.54-3.5,7.76-.83,8.96-2.56,1.36-1.96-1.73-56.8,2.56-43.5,1.34,4.14-2.58,45.21,3.84,34.55,1.03-1.7-1.83-9.13,1.92-10.88,10.09-4.7,3.89,15.97,5.76,19.83,1.7,3.5,7.26.34,8.96,3.84,2.11,4.35-.38,83.26,0,96.6Z" style="fill:url(#linear-gradient-3); stroke-width:0px;"/><path d="m793.37,237.97c-.03,14.48-2.34,28.97-1.28,43.5-.56,5.99.14,4.62,5.12,5.76,1.62,2.62-13.12,6.91-.64,8.32,3.08,5.62-3.56,2.86-4.48,4.48-1.89,3.31,2.37,65.5-1.28,76.13.64-13.91-.19-95.92-15.35-85.09.51,39.84-1.53,80.46-4.48,119.63-1.93.53-1.98-14.15-13.43-9.6-1.81,2.56,1.42,52.26,0,62.7-1.27,9.34-10.29,10.67-1.28,12.16-1.64,4.22.18,37.93,0,47.34-2.55,1.17-.78,9.37-1.28,16.63-8.99,16.81-63.3,9.98-69.09-5.76-.36-.98-3.76-19.43-3.84-20.47-.17-2.35,2.8-2.07,2.56-7.04-.06-1.27.04-2.56,0-3.84-.55-20.38-2.19-41.04-1.28-61.42,0-.16,2.51-.96,2.56-1.92.74-15.28-.55-30.76,0-46.06.22-.94,4.47-.21,5.12-2.56,2.49-9.11.19-99.67,0-117.08-.27-25.13.72-50.38,0-75.49,8.08-4.73,11.44,32.44,17.91,45.42.99,22.22,7,43.91,6.4,65.26,16.69,19.36,14.87,83.1,37.11,24.31,9.34-24.68,1.73-46.41,31.99-57.58,9.2-23.6,1.9-39.53,8.96-37.75Z" style="fill:#1f283a; stroke-width:0px;"/><path d="m769.06,24.3c-2.67,6.19,1.23,41.11,0,42.86-1.11,1.59-5.24-.31-6.4,1.28-.94,1.29-.21,30.4,0,31.99,2.71,20.86,7.38,17.15,11.52,17.27,6.91.21,13.47-2.38,20.47-1.28-2.36,37.48-1.22,75.08-1.28,112.6,0,2.99,0,5.97,0,8.96-7.06-1.78.24,14.15-8.96,37.75-30.26,11.16-22.65,32.9-31.99,57.58-22.24,58.79-20.41-4.95-37.11-24.31.6-21.34-5.41-43.03-6.4-65.26-6.47-12.98-9.83-50.15-17.91-45.42-.76-26.61-3.8-18.74-3.84-19.83-.81-22.12.6-44.4,0-66.53,37.02-24.96,10.01,32.86,17.91,53.74.39,1.04,3.14,3.03,3.84,1.28-1.24-2.91-2.08-10.48-1.28-12.8,7.18-20.65,3.26,62.29,8.96,46.06,1.17-3.33-7.22-15.65,19.19-42.22,2.21-7.73-7.53-29.54,16.63-52.46-.81-16.28-2.41-93.73-1.28-98.52.2-.87,2.72-2.96,3.84-1.28,1.69,28.1,2.07,14.54,14.07,18.55Z" style="fill:#082835; stroke-width:0px;"/><path d="m660.3,419.66c19.34,6.98,4.62,14.42,3.84,19.83-.7,4.85-.24,21.77,0,28.79.12,3.5-.65,21.48,0,22.39,1.26,1.78,8.89-.22,10.88.64,1,.43,4.11,12.06,9.6,11.52.04,1.28-.06,2.56,0,3.84-10.17-4.16-5.62,14.61-6.4,37.11-.26,7.42-.06,14.96,0,22.39-1.92,2.87-7.48,2.17-10.24,3.2-21.14,7.86-16.88,11.54-24.95,34.55,31.7-2.88,63.6,1.17,95.32,2.56-24.23,15.35-54.03,1.1-30.71,17.91.6.43,6.33,12.13,8.96,0,.74-.01.38-.04,1.28,0-4,20.78,38.03.52,62.7,1.28.14,3.83-.19,7.69,0,11.52-3.09.84-4.62.71-7.68,2.56-2.98,1.8-4.24,1.76-6.4,5.12.92-3.76-3.11-2.39-8.96-2.56-19.89-.59-40.46,2.62-59.5-3.84-8.04-1.39-5.36,3.62-5.76,3.84-10.19,5.51-33.92,3.22-46.06,3.84,8.21-5.75,6.61-13.18-5.12-12.8-17.53-5.68,8.99-7.71,4.48-10.24-21.02,1.49-60.55-2.97-78.69,2.56v-2.56c10.83-2.12,13.22-24.36,14.07-34.55,25.15-13.83,17.83-11.11,19.19-33.27.33-5.44-.72-23.3,0-24.95,1.44-3.3,6.58-.97,7.68-2.56,1.21-1.75-6.04-22.57,16.63-35.83-.89-9.69,1.19-53.74,0-56.3-.84-1.8-12.03-.84-7.68-15.35.84-2.81,9.15-2.83,12.8-3.2,7.49-.75,23.08-.19,30.71,2.56Z" style="fill:#582a59; stroke-width:0px;"/><path d="m813.84,202.15c.63,11.75,1,24.04,1.28,35.83,1.47,61.75-1.96,123.81,0,185.53.36,11.28-.26,22.62,0,33.91,8.99,10.88,5.01,32.55,19.19,40.94l1.28,55.66c-.37.18-2.09-.65-3.84,1.92-.66,13.23,1.15,40.09-1.28,50.54-.18.76-3.89,2.16-3.84,8.96-3.93-1.43-5.85-17.83-7.04,0-11.23.76-24.24-1.03-35.19,0,4.35-14.41-25.37-8.05-46.06-8.96-31.72-1.39-63.62-5.44-95.32-2.56,8.07-23.01,3.81-26.69,24.95-34.55,1.37,8.59-10.23,2.11-8.32,8.96,15.27-1.45,91.78,10.84,96.6-4.48.23-16.84-.32-33.71,0-50.54.18-9.41-1.64-43.12,0-47.34.12-.3,4.43-3.42,5.12-3.84,3.18,2.45,5.04,3.91,8.96,1.28,1.27,4.93-1.89,45.02-1.28,64.62,1.2,38.75-2.44,52.79,25.59,44.14-1.48,12.46-4.49,14.99,10.24,17.27-1.46-12.49-1.85-28.51-6.4-40.3.32-10.37.73-84.96-1.28-88.93-1.05-2.07-7.81,1.28-11.52-6.4-1-4.04.08-76.33,1.28-83.17.12-.69,2.04-4.06,3.84-3.2.69,14.43.61,64.89,3.84,72.29.64,1.46,1.37-1.16,3.84-.64.52,8.83-2.97,17.44,8.96,10.88.28-46.3,3.91-157.19,0-195.77-.08-.78-5.6-.72-1.28-14.07-.31-1.2-3.74-2.97-3.84-3.2-11.68-25.91,1.83,39.37-10.24,34.55-1.06-14.53,1.25-29.03,1.28-43.5,0-2.99,0-5.97,0-8.96l7.68-5.12c.36,4.13.15,20.36,6.4,14.71-.18-28.48,4.73-67.3,6.4-36.47Z" style="fill:#322645; stroke-width:0px;"/><path d="m223.98,162.48c-1.15,6.59-.68,43.26,0,45.42,2.44,7.8,15.24,10.96,11.52-21.11,6.03,21.13-.72,49.96,2.56,63.34.1.42,2.68,2.1,5.12,7.04l-7.68-4.48c-1.14,43.72,1.08,87.45,1.28,131.15.23,52.67-.18,105.35,0,158.02,1.73,2.57,3.56,1.76,3.84,1.92,1.69.97,4.9-.21,11.52,2.56,2.34.98,3.98,1.67,6.4,2.56,6.04,2.23,23.11,9.1,24.31,11.52-12.18-.97-24.75-.5-37.11-1.28-7.65-4.73-32.74-18.93-38.39-20.47,5.72-.36,3.69-17.11,3.84-31.99.32-32.11.67-64.51,0-96.6,0-.32-3.82-3.98-3.84-5.12-.96-48.9,2.52-126.14,0-165.06-.48-7.44-23.4-72.1,16.63-77.41Z" style="fill:url(#linear-gradient-4); stroke-width:0px;"/><path d="m1165.71,516.91c-.28,18.74-.88,37.62-2.56,56.3-5.98-1.21-12.7,4.38-14.07,1.92-.96-6.42,1.26-44.14,0-46.06-8.45-12.86-3.77,38.18-5.12,52.46-.14,1.45-5.82-.48-3.84,27.51-.52.02.24,2.11-10.24,1.28-1.34-45.09-3.29-11.82-5.12-8.32-.33.63-10.83,8.14-11.52,8.32-22.7,5.96-6.4-25.65-21.75-20.47-.91-7.36-2.15-14.69-4.48-21.75-1.1.16-3.25,17.6-4.48,21.75-4.07-8.99-12-17.74-15.35-26.87-3.58-9.72-1.93-6.83-1.28-16.63,2.14-.14,12.54-7.6,12.8-8.32.66-1.88,3.43-34.36,3.84-39.66.58-7.4-.93-38.97,0-40.94,2.03-4.32,7.56,5.45,7.04-19.83,6.26-1.37.08,10.02,8.32,14.71,1.15,26.7-3.93,54.02,6.4,79.33.96-31.68,5.58-21.05,6.4-23.03,2.61-6.31-4.81-62.88,4.48-58.22,4.38,2.2.05,56.93,2.56,58.86,18-16.33,10.81-25.57,12.16-27.51,1.26-1.81,6.11,1.15,8.96-2.56,2.95-3.86,1.94-77.92,3.84-3.84,10.68.2,4.65,9.08,6.4,12.8,1.43,3.05,5.56,1.18,6.4,2.56.75,1.23-1.95,11.59,10.24,26.23Z" style="fill:#c573a0; stroke-width:0px;"/><path d="m1223.28,330.1c6.72,7.86,2.28,7.47,3.84,10.88.18.4,5.47,1.29,7.68,4.48,1.46,2.12,8.78,11.42,8.96,12.16,2.22,9.35-2.26,64.48,0,75.49.53,2.59,8.08,11.86,8.96,14.71.36,1.17.89,1.47,1.28,3.84-5.22-.51.65,8.47-7.04,6.4-1.41-.38-13.34-21.34-17.27-23.67.39-10.61.43-36.51-8.32-42.86-1.13-.82-2.43,1.34-2.56,1.28-26.57-13.65-18.06,5.85-27.51,42.22-13.11-.27-11.46-20.87-10.24-36.47.09-1.18,3.76-.1,3.84-1.28,1-15.66-.74-31.65,0-47.34-7.56,2.36-5.88-36.45-5.12-38.39,1.58-4.01,10.7-2.66,11.52-3.84,4.03-5.85-3.72-130.49,0-142.03,5.19-16.09,4.73,51.39,6.4,53.74,1.26,1.79,8.97-.51,10.24,1.28.75,1.07-1.22,31.25,5.12,17.91,3.44-7.25,2.99-18.12,6.4-25.59,1.45,19.35-2.1,108.82,0,116.44.83,3.02,3.71.49,3.84.64Z" style="fill:#923d6f; stroke-width:0px;"/><path d="m595.04,396.63c.28,12.5-.07,25.75,0,38.39,0,.16-2.56,1-2.56,1.92.09,31.06,2.02,62.29,1.28,93.4-.02.94-2.56,1.76-2.56,1.92-17.59-10.74-7.66,25.63-10.24,56.3-.86,10.19-3.25,32.43-14.07,34.55-12.66,2.48-15.11.49-16.63-10.24-.42-2.98-.48-29.86,0-31.35.52-1.64,4.24-2.66,6.4-5.76.19-.28,4.79-3.24,5.12-4.48,2.77-10.51-3.41-58.76,0-79.97.02-.13,2.34.45,2.56-.64-2.45-25.09,5.61-14.44,7.68-19.19,1.18-2.72-.88-38.35,0-47.34,9.26.85,3.76-32.72,5.12-55.02.08-1.31,3.81-2.12,3.84-2.56,1.01-18.97-3.06-100,6.4-76.77.98,2.41-.72,19.54,0,25.59.14,1.2,3.72.08,3.84,1.28,1.31,13.39-.83,33.54,0,48.62.09,1.63,3.01-5.06,3.84,31.35Z" style="fill:#7a457d; stroke-width:0px;"/><path d="m1253.99,451.65c1.34,8.07-1.36,24.73,0,32.63.16.9,7.41,14.58,7.68,16.63,1.71,13.18-5.56,21.93,2.56,39.03-5.82,1.26-5.76-5.86-7.04-6.4-3.73-1.59-24.27,2.5-26.23-1.92-1.93-6.6,2.28-49.81.64-51.82-1.18-1.45-11.41-.62-12.16.64-1.67,2.84,4.17,32.38-3.2,33.91-8.98,1.86,4.29-44.08-10.24-47.34-20.94-4.7-5.15,54.73-26.23,53.74.06-1.7-.06-3.42,0-5.12.02-.43-.02-.85,0-1.28.49-12.78-.45-55.98,1.28-63.34.13-.57,4.49.49,4.48-9.6,8.68.98,4.62-2.03,5.76-6.4,9.45-36.38.94-55.87,27.51-42.22.13.07,1.43-2.1,2.56-1.28,8.75,6.35,8.71,32.26,8.32,42.86,3.94,2.33,15.86,23.29,17.27,23.67,7.69,2.08,1.81-6.91,7.04-6.4Z" style="fill:#793062; stroke-width:0px;"/><path d="m1014.72,111.3c.69,14,3.8,8.52,3.84,9.6.47,11.88,2.58,96.74,0,101.08-7.67,12.9.1-46.28-8.96-37.75-.02-17.89,2.05-127.35,0-133.71-.22-.67-2.21-2.57-2.56-1.28-.14,92.84-4.06,185.43-3.84,278.29.01,5.54-.01,11.09,0,16.63l-1.28-129.87c-23.02-3.28-8.31,82.32-13.43,113.24.94-34.7-5.5-28.43-5.76-30.07-4.24-26.54-2.21-60.74-5.12-88.29-1.15-1.31-5.03,2.29-5.12,2.56-2.93,8.9,3.22,135.19,0,157.38-.11.75-3.95,14.32-5.12,11.52-1.79-53.52-3.98-107.04-5.12-160.58,3.43-.48,5.42,10.67,6.4,17.27h2.56c-1.6-20.77.17-118.78,7.68-88.29,3.18,12.91-5.27,67.89,5.76,65.89,6.2-1.12,10.58-60.34,14.71-69.73-1.5-3.33-3.81-3.32-3.84-4.48.89,0,2.22.34,2.56-.64,1.51-4.35-1.46-78.07,0-92.12.37-.72,9.6,2.27,15.35-3.2.43,22.17.19,44.38,1.28,66.53Z" style="fill:#322645; stroke-width:0px;"/><path d="m289.24,292.99c.87,4.68,3.34,3.89,2.56,8.96-4.26,5.36-2.23,7.48-2.56,15.35-7.93,12.92-1.44,1.6-9.6,0-4.26,15.68-5.27,106.07-.64,113.24,3.12,4.83,6.75-.09,10.24-.64-.03,5.97,0,11.94,0,17.91,0,8.53,0,17.06,0,25.59,0,13.65.03,27.3,0,40.94-.03,15.35-.26,30.71,0,46.06-2.12-.11-4.29.17-6.4,0-1.2-2.41-18.27-9.28-24.31-11.52,1.6-21.98-2.14-93.81,0-103.64.84-3.86,8.77-11.42,8.96-12.16,1.14-4.37-.12-76.05,0-90.21l3.84,4.48c2.79-7.96,2.12-57.66,3.84-60.14,1.12-1.62,4.09.71,6.4-1.92,7-7.97,2.25-22.25,5.12-33.27,3.31,13.26.01,27.2,2.56,40.94Z" style="fill:#582a59; stroke-width:0px;"/><path d="m142.1,441.42c.3,8.47-1.94,63.25.64,65.26.42.32,3.93.2,4.48-.64,1.99-3.04-.26-54.27,0-62.06.41-12.48,2.48-25.21,2.56-37.75h2.56v12.8c16.24,15.97,2.74,57.05,6.4,69.09,5.33,17.58,3.08-30.98,7.68-21.75l1.28,68.45c-19.41-1.85-39.37-2.71-58.86-3.84-5.04-1.48-4.7-25.83-3.84-27.51,2.12-4.15,8.29,7.15,8.96-22.39.18.71-.12,1.76,0,2.56-2.09,64.73,7.36,66.95,7.68,0,.04-7.85-3.04-53.11-1.28-55.66,1.1-1.59,6.24.74,7.68-2.56,1.15-2.64.6-51.51,0-57.58-.05-.47-5.9-4.83-2.56-7.68.26-.22,6.22,2.26,6.4,2.56.77,1.26,8.73,26.69,8.96,28.15,2,13.16.75,35.84,1.28,50.54Z" style="fill:#ab5e99; stroke-width:0px;"/><path d="m629.59,417.11c-3.64.36-11.95.39-12.8,3.2-4.35,14.52,6.84,13.56,7.68,15.35,1.19,2.56-.89,46.61,0,56.3-22.67,13.25-15.43,34.07-16.63,35.83-1.1,1.59-6.24-.74-7.68,2.56-.72,1.65.33,19.51,0,24.95-5.52,18.18-9.55,3.43-8.96-23.03,0-.16,2.54-.98,2.56-1.92.74-31.11-1.19-62.34-1.28-93.4,0-.92,2.56-1.76,2.56-1.92,9.93,5.98,5.94-13.2,6.4-37.11.7-36.2-4.89-102.55,10.24-71.01q1.6-29.11,3.2-58.22.32,52.14.64,104.28c10.18-13.14,2.55,4.61,5.12,12.8,1.61,5.13,12.21-1.9,8.96,31.35Z" style="fill:#97508f; stroke-width:0px;"/><path d="m552.82,497.71c1.01,26.02.29,52.22,3.84,78.05-2.16,3.1-5.87,4.12-6.4,5.76-.48,1.49-.42,28.37,0,31.35h-23.03c-.91-29.47.64-58.85,1.28-88.29.33-15.34-2.14-113.53,1.28-118.35.59-.84,19.05-1.94,20.47,1.28v75.49c1.8,3.98,2.39,10.29,2.56,14.71Z" style="fill:#97508f; stroke-width:0px;"/><path d="m995.53,140.73c.03,1.16,2.33,1.15,3.84,4.48-4.14,9.39-8.51,68.61-14.71,69.73-11.03,1.99-2.58-52.99-5.76-65.89-7.51-30.49-9.28,67.52-7.68,88.29h-2.56c-.98-6.61-2.96-17.75-6.4-17.27-.21-9.8.13-19.63,0-29.43-.14-10.37.55-21.02,0-31.35-.05-1.02-2.4.09-2.56-1.92-1.64-20.85,4.42-11.89,6.4-14.71,2.24-3.19-1.57-73.92,1.28-78.05,1.1-1.59,6.24.74,7.68-2.56,3.8-8.71-11.24-21.65,19.19-16.63-.82,31.82.54,63.53,1.28,95.32Z" style="fill:#082835; stroke-width:0px;"/><path d="m243.18,257.17c.42.85,9.3,11.22,10.24,15.99,1.65,8.44.29,149.17,0,172.09-.43,33.67-4.05,67.36-1.28,101.08-6.62-2.77-9.83-1.59-11.52-2.56-.85-2.93,2.29-10.34,2.56-13.43.95-10.88-2.52-31.22-2.56-35.83-.06-7.04,2.52-15.97,2.56-23.03.03-6.32-2.68-25.23-2.56-39.66.05-6,4.87-39.68,3.84-43.5-.19-.71-5.93-4.64-7.68-4.48-.19-43.7-2.42-87.43-1.28-131.15l7.68,4.48Z" style="fill:#582a59; stroke-width:0px;"/><path d="m895.73,276.36c-2.21,32.35-1.17,64.85-1.28,97.24-2.59-2.7-.16-8.16-5.12-3.2-11.93,11.95,4.46,124.63-10.88,136.27-1.48,1.12-6.84,1.58-9.6,2.56.97-16.88-.15-35.33,0-52.46,2.7.14,7.21,5.37,8.96.64,1.47-4-2.49-81.05-3.84-85.09.8.07,2.47-1.51,2.56-1.92,2.02-9.14-1.51-69.89,0-89.57,1.3-2.73,15.75-4.31,19.19-4.48Z" style="fill:#7a457d; stroke-width:0px;"/><path d="m472.21,409.43c-.49,3.73-5.56,1.8-6.4,3.2-2.58,4.3,2.9,88.5,8.96,99.16,0,.43,0,.85,0,1.28-.02,17.26-2.98,35.17-1.28,52.46-6.56-.98-11.97-3.77-19.19-2.56,0-33.74,4.04-117.05,0-140.75,18.96-12.5,5.89-112.69,10.88-116.44.28-.21,5.07-.33,5.76.64,2.97,4.21.64,81.44,1.28,103Z" style="fill:#97508f; stroke-width:0px;"/><path d="m528.51,524.58c-.63,29.44-2.18,58.82-1.28,88.29-12.62,1.57-25.95-1.55-38.39-1.28,4.5-37.61-12.96-21.72-15.35-46.06,3.4.51,6.83.65,10.24,0,1.2,5.14,12.07,10.95,13.43,10.24q7.36-26.55,14.71-53.1c15.02,1.32,2.4-26.09,16.63,1.92Z" style="fill:#c573a0; stroke-width:0px;"/><path d="m912.36,417.11c-1.13.12-3.3-.52-3.84.64-2.36,5.11,1.81,97.71,0,112.6,2.97,3.68,9.46,6.22,14.07,5.76-.13,1.45-3.77,13.87-4.48,14.07-11.82-8.2-23.61-9.92-21.11-27.51l-2.56,2.56c.19-35.82.12-71.66,0-107.48-.02-6.01-2.56-14.11-2.56-20.47,0-5.04,3.84-10.3,3.84-10.88,16.63,6.66,1.44-38.56,8.96-56.3,1.12,10.21,5.01,21.25,5.12,22.39,1.77,19.63-3.35,47.61,2.56,64.62Z" style="fill:#793062; stroke-width:0px;"/><path d="m833.03,259.73c-.76,52.28-2.69,104.45,0,156.74l-16.63,25.59c8.86,9.14,17.1,18.95,20.47,31.35-1.4,6.55-2.25,44.58-1.28,46.7,1.11,2.44,8.87-12.27,6.4,32.63-3.54,1.37-6.08,1.13-6.4,1.28l-1.28-55.66c-14.18-8.39-10.2-30.06-19.19-40.94-.26-11.29.36-22.63,0-33.91,9.7-7.52,7.02-51.48,6.4-69.09,1.36-35.4.97-70.79,1.28-106.2.21-1.96,2.44-2.42,2.56-2.56.81,11.52-1.1,25.33,0,36.47.1,1.06,3.85,21.29,5.12,17.91-.56-18.91,1.86-38.55-3.84-56.94.22-.16,1.34-4.3,5.12-1.92q.64,9.28,1.28,18.55Z" style="fill:#793062; stroke-width:0px;"/><path d="m113.95,481.08c-.66,29.54-6.84,18.24-8.96,22.39-.86,1.68-1.2,26.03,3.84,27.51-13.24-.77-26.4-2-39.66-2.56.64-23.05,1.28-46.22-1.28-69.09,2.24-3.99,13.45-9.79,16.63-8.32,18.04,8.34-1.38,40.13,19.19,40.94l.64-21.11c3.29,4.18,8.08,4.26,9.6,10.24Z" style="fill:#ab5e99; stroke-width:0px;"/><path d="m1069.74,484.92c-8,3.58,5.24,30.36-10.24,25.59.57-4.04.97-55.47,0-58.22-.31-.87-8.23-4.41-12.8-13.43v-13.43c-1.48-2.02-2.55-1.76-2.56-1.92-.69-21.48-6.89-58.38,7.68-71.65,7.61,25.62,12.83,52.24,6.4,78.69,13.06,23.93,11.32,30.37,11.52,54.38Z" style="fill:#c573a0; stroke-width:0px;"/><path d="m1033.92,324.98c12.79-1.81,15.47,18.66,17.91,26.87-14.57,13.28-8.37,50.18-7.68,71.65-2.72,1.13-6.51,1.59-7.68-1.92-1.42-4.27,4.53-65.03-4.48-81.25-5.58-.21-.43,102.83-7.04,110.68.43-2.41-3.77-6.03-3.84-6.4-1.58-8.06-1.18-91.24-1.28-109.4,3.75-1.9,9.85-9.64,14.07-10.24Z" style="fill:#582a59; stroke-width:0px;"/><path d="m1028.8,181.68c.1,13.86-.07,27.72,0,41.58,4.67,8.19.03-36.73,5.12-33.91-.29,45.18-3.33,90.45,0,135.63-4.22.6-10.33,8.34-14.07,10.24-.32-56.68.16-113.48,0-170.18,9.05-.69.92,18.56,8.96,16.63Z" style="fill:#a6547e; stroke-width:0px;"/><path d="m64.04,323.7c-3.62-57.08.43-114.37-1.28-171.45,2.43-1.13,9.27-.26,10.24,1.92,3.26,7.37-2.5,140.54,0,161.22-2.79,3.04-5.76,5.7-8.96,8.32Z" style="fill:#1f283a; stroke-width:0px;"/><path d="m51.25,95.95c.37,15.12-.29,30.3,0,45.42.01.67,2.55,10.87,2.56,11.52,1,57.74-.25,115.62,0,173.37.11,26.87-.05,53.74,0,80.61l-1.28-19.83c-4.7,14.53-2.36,42.62-2.56,62.06h-3.84c.26-53.72,2.27-107.49,2.56-161.22.35-65.68-.26-131.37,0-197.04h1.28c0,.26,1.12-1.48,1.28,5.12Z" style="fill:#a6547e; stroke-width:0px;"/><path d="m413.35,363.37c1.62,2.16,8.26,4.91,8.96,7.04,1.39,4.22-.32,75.61,0,88.93-2.76,2.61-15.37,6.16-16.63,3.2q.64-60.14,1.28-120.27c3.98,5.95-2.98,20.64,6.4,21.11Z" style="fill:#7a457d; stroke-width:0px;"/><path d="m454.3,422.22c4.04,23.7,0,107.01,0,140.75v11.52c-2.4-6.02-4.67-3.92-10.24-2.56-.04-3.84,0-7.68,0-11.52,0-6.81-.17-13.66,0-20.47.26-10.73,2.31-20.7,2.56-29.43.75-26.87-.14-153.89,1.28-161.86.04-.23,1.69-4.83,2.56-3.84,1.32,16.08-1.77,70.17,0,76.77.81,3.03,3.81.45,3.84.64Z" style="fill:#ab5e99; stroke-width:0px;"/><path d="m327.62,454.21c-9.38,15.74-3.24,36.36-5.12,39.03-1.17,1.67-6.5-.39-7.68,1.28-.85,1.21.9,11.88,0,14.07-.74,1.81-3.1-3.09-3.84-1.28-1.19,2.9.96,27.62,0,35.19-9.42,1.9-6.04-15.3-6.4-34.55-.21-11.08.3-22.19,0-33.27-.06-2.13.09-4.27,0-6.4,15.64.41-.47-1.7,4.48-10.24,13.66,12.63,6.73-23.9,8.32-51.82.08-1.42,6.41,2.22,1.92-26.23,10.29,23.13,4.1,49.62,8.32,74.21Z" style="fill:#c573a0; stroke-width:0px;"/><path d="m1269.35,513.07c-3.79,8.47-.95,19.93-1.28,30.71-.83.09-1.93-.19-2.56,0v-1.28c-.18-.98-.85-1.65-1.28-2.56-8.12-17.1-.85-25.84-2.56-39.03-.27-2.05-7.52-15.73-7.68-16.63-1.36-7.9,1.34-24.56,0-32.63-.39-2.37-.92-2.67-1.28-3.84,3.83-13.2-.85-91.06,1.28-95.32.47-.95,7.51,2.19,7.68,2.56,2.2,4.9-.84,91.99,0,107.48.02.32,3.76,3.88,3.84,5.12,1.24,18.74-3.42,43.24,3.84,45.42Z" style="fill:#a6547e; stroke-width:0px;"/><path d="m289.24,317.3c-1.54,36.86.18,75.49,0,112.6-3.49.55-7.12,5.46-10.24.64-4.63-7.17-3.62-97.56.64-113.24,8.15,1.6,1.67,12.92,9.6,0Z" style="fill:#923d6f; stroke-width:0px;"/><path d="m58.93,104.9c0,73.79,0,147.57,0,221.36,0,14.5,0,29,0,43.5-7.41-9.74,2.51-54.22-5.12-43.5-.25-57.76,1-115.64,0-173.37-.01-.65-2.55-10.85-2.56-11.52-.29-15.13.37-30.3,0-45.42,1.7.44,7.17,7.88,7.68,8.96Z" style="fill:#1f283a; stroke-width:0px;"/><path d="m912.36,417.11c6.98,14.51,4.78,27.61,6.4,41.58.08.67,3.78,3.19,3.84,3.84.35,3.66.32,69.91,0,73.57-4.62.46-11.11-2.08-14.07-5.76,1.81-14.88-2.36-107.49,0-112.6.54-1.16,2.71-.52,3.84-.64Z" style="fill:#ab5e99; stroke-width:0px;"/><path d="m211.19,506.67c-.15,14.88,1.88,31.63-3.84,31.99-9.46-2.58-25.3-2.79-35.83-3.84,21.02-25.68,3.26-38.2,20.47-35.19-.11-24.46,10.83,14.13,9.6-27.51,8.08,5.69-3,27.82,9.6,34.55Z" style="fill:#c573a0; stroke-width:0px;"/><path d="m271.33,122.82c.05,4.26-.1,8.54,0,12.8-.89,0-2.22-.34-2.56.64-1.22,3.51,2.27,63.83,2.56,74.21.01.5,2.55,2.06,2.56,2.56.02.94-2.58.33-2.56,1.28.24,13.91,3.78,38.1-3.84,32.63-.11-10.87.13-21.75,0-32.63,0-.41-3.82-1.31-3.84-2.56-.54-43.21-.43-100.59,1.28-143.31.02-.51,2.54-2.04,2.56-2.56.14-3.19-1.89-56.95,3.84-47.34,2.67,4.48-.15,90.76,0,104.28Z" style="fill:#1f283a; stroke-width:0px;"/><path d="m691.01,273.8c.19,17.41,2.49,107.97,0,117.08-.64,2.35-4.9,1.62-5.12,2.56-.55,15.3.74,30.78,0,46.06-.05.96-2.55,1.76-2.56,1.92-.15-2.49-1.73,1.05-3.84-1.28-4.24-4.69-2.61-35.71-2.56-44.78-.4-3.23.76-2.23,2.56-2.56,1.4-.26,4.37.65,5.12-.64.98-1.69,1.55-37.09,1.28-39.03-.16-1.16-1.35-2.44-2.56-2.56,9.03-12.42-6.44-68.84-1.28-76.13,1.02-1.44,6.87-.27,8.96-.64Z" style="fill:#582a59; stroke-width:0px;"/><path d="m271.33,135.61c.19,7.65-3.4,31.01,6.4,21.75.33,18.07.25,36.31,0,54.38,0,.52-2.51,1.08-2.56,4.48-.18,11.87-.89,53.35,0,58.22.19,1.06,2.51,1.77,2.56,1.92.96,2.9,2.71,6.05,3.84,8.96-2.31,2.63-5.28.3-6.4,1.92-1.72,2.48-1.05,52.17-3.84,60.14l-3.84-4.48c.28-31.95.31-64.01,0-95.96,7.62,5.48,4.08-18.72,3.84-32.63-.02-.95,2.58-.33,2.56-1.28-.01-.5-2.54-2.06-2.56-2.56-.29-10.38-3.78-70.7-2.56-74.21.34-.98,1.67-.65,2.56-.64Z" style="fill:#582a59; stroke-width:0px;"/><path d="m675.65,380c-.17,2.94,1.3,11.29,1.28,15.35-.05,9.07-1.68,40.09,2.56,44.78-5.37,9.8-6.55,30.75-15.35,28.15-.24-7.02-.7-23.94,0-28.79.78-5.41,15.5-12.85-3.84-19.83q.64-28.47,1.28-56.94c7.83-5.19-.56,7.54,10.88,18.55.98.94,2.01-1.32,3.2-1.28Z" style="fill:#c573a0; stroke-width:0px;"/><path d="m1174.66,433.74c1.27,10.4-2.75,51.61-1.28,79.33,1.15,21.68,2.54,25.47,6.4,2.56-.06,1.7.06,3.42,0,5.12-.68,20.09-1.23,40.03-1.28,60.14-7.78-.65-14.51-7.51-15.35-7.68,1.68-18.68,2.28-37.56,2.56-56.3.2-13.22-.16-26.45,0-39.66,14.17.98.62-37.41,8.96-43.5Z" style="fill:#ab5e99; stroke-width:0px;"/><path d="m1294.94,267.4c1.26,8-1.07,153.9-2.56,161.86-.87,4.66-2.41,5.06-6.4,5.76,2.9-33.86-2.72-97.98,0-133.71.05-.63,3.78-3.19,3.84-3.84,1.47-14.96-4.15-31.44,5.12-30.07Z" style="fill:#923d6f; stroke-width:0px;"/><path d="m58.93,369.76c0,27.3-.01,54.59,0,81.89.01,25.54-1.07,51.3,1.28,76.77-2.13-.07-4.27.07-6.4,0-6.81-.22-13.81-1.08-20.47-1.28,11.03,1.11,5.2-25.3,5.12-40.94,8.3,1.73,0-15.49,6.4-13.43q.64,15.67,1.28,31.35c.11,6.44.92,15.7-1.28,21.11,2.08,3.58,3.65.61,3.84.64,4.35.65,5.93,2.15,7.68-.64-2.81-39.21-2.49-78.93-2.56-118.35-.05-26.87.11-53.74,0-80.61,7.63-10.71-2.29,33.77,5.12,43.5Z" style="fill:#582a59; stroke-width:0px;"/><path d="m1302.61,35.81c5.84,39.8-1.74,97.13,1.28,138.83l-7.68.64c2.72-53.73-2.03-112.65,0-166.98h2.56c-1.83,35.52,3.62,25.99,3.84,27.51Z" style="fill:#a6547e; stroke-width:0px;"/><path d="m1069.74,484.92c.17,20.49-2.49,41.03-3.84,61.42-.65,9.8-2.3,6.91,1.28,16.63-3.23,7.79,5.76,30.27,12.8,34.55-.93,1.81-1.48,3.81-3.2,5.12-1.09-3.58-3.02-3.66-3.2-3.84-7.57-7.67-13.06-20.34-21.75-27.51,3.44-11.98-.3-25.13,1.28-37.11,2.4-18.16,10.12-14.4,5.12-21.11-.05-1.13,1.1-1.28,1.28-2.56,15.48,4.77,2.24-22.01,10.24-25.59Z" style="fill:#ab5e99; stroke-width:0px;"/><path d="m861.18,527.14c-9.52,8.52-2.8,10.68-5.12,15.99-.2.45-9.07,1.26-9.6,1.92-3.25,4.11,3.43,4.61-4.48,7.68,2.47-44.89-5.29-30.19-6.4-32.63-.97-2.13-.12-40.15,1.28-46.7,2.23,8.2,3.63,13.94,2.56,23.67,12.85-3.43,3.52-15.07,14.71,14.71,5.79,2.76,1.24-31.59,5.76-23.67l1.28,39.03Z" style="fill:#97508f; stroke-width:0px;"/><path d="m1033.92,189.35c-5.09-2.83-.44,42.1-5.12,33.91-.07-13.86.1-27.72,0-41.58-.23-32.53-.64-64.69,0-97.24.23-11.5-.39-23.06,0-34.55.51-14.91-2.52-23.63,5.12-19.83-.25,53.1.34,106.2,0,159.3Z" style="fill:#463658; stroke-width:0px;"/><path d="m833.03,259.73q-.64-9.28-1.28-18.55c-3.78-2.38-4.9,1.76-5.12,1.92-.12.08-1.04,2.28-1.28,2.56-.12.14-2.35.59-2.56,2.56,0-.33-1.34.4-1.28-6.4,0-.16,2.55-.99,2.56-1.92.11-13.01-.07-26.02,0-39.03.07-12.34-2.34-63.88-1.28-67.17,4.97-15.4,3.22,33.94,3.84,35.83.72,2.18,6.96,4.22,7.68,6.4,2.82,8.55-1.07,69.74-1.28,83.81Z" style="fill:#2e3250; stroke-width:0px;"/><path d="m943.07,385.12c.06,12.75,2.39,96.03,0,100.44-1.75,3.23-6.29-3.6-6.4-.64-.01-.26-2.54-4.02-2.56-4.48-.4-11.93-1.23-102.73,1.28-107.48,4.13-7.82,5.3,15.38,7.68,12.16Z" style="fill:#d492a3; stroke-width:0px;"/><path d="m904.68,330.1c-7.51,17.74,7.67,62.96-8.96,56.3,0-.64-1.32-1.96-1.28-12.8.11-32.39-.93-64.89,1.28-97.24.26-.01.06-2.76,5.12-.64-2.24,19.34,1.8,35.8,3.84,54.38Z" style="fill:#923d6f; stroke-width:0px;"/><path d="m1024.96,51.17c-5.93,10.9.52,25.35-1.28,37.75l5.12-4.48c-.64,32.55-.23,64.72,0,97.24-8.03,1.93.1-17.33-8.96-16.63-.11-38.36-.98-76.83,1.28-115.16,1.5.82,1.96,1.18,3.84,1.28Z" style="fill:#7f4e74; stroke-width:0px;"/><path d="m801.04,223.9l-7.68,5.12c.06-37.51-1.08-75.12,1.28-112.6,1.52-.09,6.31,6.57,6.4,7.04,2.36,12.23-2.02,76.92,0,100.44Z" style="fill:#582a59; stroke-width:0px;"/><path d="m62.77,152.25c1.71,57.09-2.34,114.37,1.28,171.45-.22.18-.55,3.34-5.12,2.56,0-73.79,0-147.57,0-221.36.07.16,2.2-.49,2.56.64.71,2.22,1.05,39.18,1.28,46.7Z" style="fill:#9e718e; stroke-width:0px;"/><path d="m774.17,117.7c-4.13-.13-8.81,3.58-11.52-17.27-.21-1.59-.94-30.7,0-31.99,1.16-1.59,5.28.31,6.4-1.28,1.23-1.75-2.67-36.67,0-42.86,10.05,3.36,2.94,79.89,5.12,93.4Z" style="fill:#1f283a; stroke-width:0px;"/><path d="m67.88,459.33c2.56,22.87,1.92,46.05,1.28,69.09-2.98-.12-5.98.1-8.96,0-2.35-25.47-1.27-51.23-1.28-76.77,1.32.53,4.84,3.73,5.12,4.48,2.29,6.14-3.9,21.93,3.84,3.2Z" style="fill:#a6547e; stroke-width:0px;"/><path d="m438.94,510.51c-2.48.16-3.01,1.46-5.12,1.28.59-8.04-1.04-31.3-1.28-44.78-.37-21.04-4.05-128.4-2.56-134.99,3.48-15.37,1.73,31.14,2.56,44.78.04.6,3.81,3.24,3.84,3.84,2.24,43.01-3.72,87.61,2.56,129.87Z" style="fill:#ac6884; stroke-width:0px;"/><path d="m258.53,445.25c-2.14,9.83,1.6,81.66,0,103.64-2.41-.89-4.06-1.58-6.4-2.56-2.77-33.72.85-67.41,1.28-101.08.06,5.2,2.98,1.08,5.12,0Z" style="fill:#793062; stroke-width:0px;"/><path d="m474.77,511.79c-6.05-10.67-11.54-94.86-8.96-99.16.84-1.4,5.9.53,6.4-3.2,0,.13,2.53-.41,2.56.64-.03,33.91.04,67.81,0,101.72Z" style="fill:#ac6884; stroke-width:0px;"/><path d="m1234.8,345.45c-2.2-3.18-7.49-4.07-7.68-4.48-1.56-3.4,2.88-3.01-3.84-10.88,10.27-20.25,2.39-59.2,5.12-65.89,1.4-3.43,7.16-1.07,7.68,0,1.78,3.65-.43,70.89-1.28,81.25Z" style="fill:#ac6884; stroke-width:0px;"/><path d="m873.98,372.32c1.35,4.04,5.31,81.09,3.84,85.09-1.75,4.73-6.26-.5-8.96-.64.26-30.06-.19-60.14,0-90.21,3.06-.16,4.34,3.41,5.12,5.76Z" style="fill:#923d6f; stroke-width:0px;"/><path d="m290.52,226.46c-2.85,21.31,3.18,45.04-1.28,66.53-2.55-13.75.75-27.68-2.56-40.94-.42-1.69.82-5.2-.64-6.4-11.17-9.15-6.3,28.05-8.32,30.71-.05-.15-2.37-.86-2.56-1.92-.89-4.87-.18-46.34,0-58.22,6.11.49,6.65,11.8,15.35,10.24Z" style="fill:#cfa0b0; stroke-width:0px;"/><path d="m561.78,491.32c-3.41,21.21,2.77,69.46,0,79.97-.33,1.24-4.92,4.2-5.12,4.48-3.55-25.83-2.83-52.03-3.84-78.05,9.46-1.66,1.43-9.29,8.96-6.4Z" style="fill:#c573a0; stroke-width:0px;"/><path d="m394.16,255.89c.67,23.77,1.57,47,6.4,70.37-.2,1.28-10.06,7.93-11.52,5.76q1.28-55.66,2.56-111.32,1.28,17.59,2.56,35.19Z" style="fill:#7a457d; stroke-width:0px;"/><path d="m432.54,467.01c.23,13.48,1.87,36.74,1.28,44.78-.25,3.41-1.96,10.14-2.56,14.07-2.05-2-3.21-2.83-5.12-1.28-4.94-12.95-2.03-40.7-2.56-60.14l8.96,2.56Z" style="fill:#c573a0; stroke-width:0px;"/><path d="m483.73,565.53c-3.41.65-6.84.51-10.24,0-1.7-17.29,1.26-35.2,1.28-52.46,16.92-5.14,5.26,36.61,8.96,52.46Z" style="fill:#d492a3; stroke-width:0px;"/><path d="m235.5,186.79c3.73,32.07-9.07,28.91-11.52,21.11-.68-2.17-1.15-38.83,0-45.42l2.56.64c-1.67,8.75,5.73,12.35,8.96,23.67Z" style="fill:#322645; stroke-width:0px;"/><path d="m291.8,301.95c.78-5.07-1.69-4.28-2.56-8.96,4.46-21.5-1.57-45.22,1.28-66.53.23-1.69.76-12.39,5.12-5.76,2.21,3.37,1.86,77.03,0,80.61-.68,1.32-3.57.3-3.84.64Z" style="fill:#614b6a; stroke-width:0px;"/><path d="m304.59,468.29c.09,2.12-.06,4.27,0,6.4-6.11-2.32-9-2.46-15.35-1.28,0-8.53,0-17.06,0-25.59,20.53-1.26,14.47.68,15.35,20.47Z" style="fill:#ab5e99; stroke-width:0px;"/><path d="m147.21,443.98c-.26,7.79,1.99,59.02,0,62.06-.55.84-4.06.96-4.48.64-2.58-2-.34-56.78-.64-65.26l5.12,2.56Z" style="fill:#c573a0; stroke-width:0px;"/><path d="m824.08,200.87c-.07,13.01.11,26.02,0,39.03,0,.93-2.56,1.76-2.56,1.92h-2.56c-.05-1.09-1.78-4.69-3.84-3.84-.28-11.79-.64-24.07-1.28-35.83,3.7-1.9,5.03,5.33,7.04,3.84,1.69-1.26-1.17-5.78,3.2-5.12Z" style="fill:#d492a3; stroke-width:0px;"/><path d="m1174.66,433.74c-8.34,6.09,5.21,44.48-8.96,43.5.09-7.17-.99-47.01,0-49.26,1.04-2.36,7.44-6.6,8.96,5.76Z" style="fill:#c573a0; stroke-width:0px;"/><path d="m121.62,483.64c-.31,66.95-9.77,64.73-7.68,0h7.68Z" style="fill:#c573a0; stroke-width:0px;"/><path d="m1016,44.77c3.18,6.95,3.96,62.87,2.56,65.89-.54,1.16-2.71.52-3.84.64-1.08-22.15-.85-44.37-1.28-66.53.82.09,1.85-.18,2.56,0Z" style="fill:#1b1a2d; stroke-width:0px;"/><path d="m438.94,510.51c2.91-.18,4.43,1.4,7.68,0-.25,8.73-2.3,18.7-2.56,29.43-5.93-3.21-9.29-10.66-12.8-14.07.6-3.93,2.31-10.66,2.56-14.07,2.1.18,2.64-1.12,5.12-1.28Z" style="fill:#eda1b1; stroke-width:0px;"/><path d="m601.44,397.91c-.46,23.9,3.53,43.08-6.4,37.11-.07-12.64.28-25.89,0-38.39l6.4,1.28Z" style="fill:#c573a0; stroke-width:0px;"/><path d="m959.7,157.36c.16,2.01,2.5.9,2.56,1.92.55,10.33-.14,20.98,0,31.35l-8.96-6.4c.45-17.89-2.98-29.3,6.4-26.87Z" style="fill:#322645; stroke-width:0px;"/><path d="m277.72,157.36c-9.79,9.25-6.21-14.1-6.4-21.75-.1-4.26.05-8.53,0-12.8,9.33-8.64,6.08,16.78,6.4,34.55Z" style="fill:#614b6a; stroke-width:0px;"/><path d="m1028.8,84.43l-5.12,4.48c1.79-12.39-4.65-26.85,1.28-37.75,2.3.12,2.37-.81,3.84-1.28-.39,11.49.23,23.05,0,34.55Z" style="fill:#614b6a; stroke-width:0px;"/><path d="m1179.78,514.35c-.02.43.02.85,0,1.28-3.86,22.91-5.25,19.12-6.4-2.56l6.4,1.28Z" style="fill:#c573a0; stroke-width:0px;"/><path d="m685.89,353.13c-9.95,6.5-8.69,28.38-6.4,39.66-1.8.33-2.96-.67-2.56,2.56.02-4.07-1.45-12.42-1.28-15.35.62-10.39,1.44-20.74,7.68-29.43,1.21.11,2.4,1.4,2.56,2.56Z" style="fill:#a6547e; stroke-width:0px;"/><path d="m931.55,513.07c.17-.89-1.99-1.77-1.28-4.48,1.42-5.42,5.22-3.67,6.4-12.16.58,13.37,2.07,28.26-5.12,16.63Z" style="fill:#d492a3; stroke-width:0px;"/><path d="m687.81,95.95c.98,0,.98,5.12,0,5.12s-.98-5.12,0-5.12Z" style="fill:#454358; stroke-width:0px;"/><path d="m482.45,611.59c2.03-.05,4.2.05,6.4,0,12.43-.27,25.77,2.85,38.39,1.28h23.03c1.53,10.72,3.97,12.72,16.63,10.24v2.56c-7.16,2.18-4.68,6.79-3.2,7.68,4.83,2.91,66.4.36,77.41,0,11.73-.38,13.33,7.04,5.12,12.8-.43.3-2.68-.74-2.56,1.28-5.93-4.08-34.18-2.65-43.5-2.56-13.33.13-26.6-6.96-23.03,12.8-.83-.03-3.43,1.68-16.63,1.28-1.13-.03-5.44-2.55-5.76-2.56-20.1-.52-62.14-2.09-69.73,5.12-14.72-.25-40.79-.88-39.66,6.4-4.48-.23-30.07-3.47-31.35-2.56-5.31,3.78,8.47,19.41-9.6,20.47-.84.05-1.71.04-2.56,0,23.31-3.72-1.09-14.4-16.63-3.84-16.27-1.92-11.11,4.68-15.35,6.4-2.97,1.2-15.41,1.63-21.75,6.4-9.85-2.03-22.23-1.18-24.31-4.48,18.43-6.15,50.28-29.24,55.02-47.98,10.27.58,74.68-3.13,78.05-5.12,8.09,29.24,74.15,3.09,30.71-1.28.97-3.02-3.44-3.03-3.84-3.84-.93-1.86-.79-12-1.92-12.8-2.17-1.53-28.67,1.02-33.91,1.28l1.28-5.12c11-.32,22.56-3.57,33.27-3.84Z" style="fill:url(#linear-gradient-5); stroke-width:0px;"/><path d="m369.85,688.36c2.99,3.17,18.78,3.43,28.15,3.84,14.05.61,35.21,2.45,44.14,2.56,24.25.28,68.54-4.67,78.05-2.56.41.09,1.99,1.76,1.92,2.56-23.76,4.52-47.79,12-71.65,15.35-2.12.3-7.14,1.74-8.96,1.28-1.59-6.4-14.58-5.71-23.03-7.68-3.26-.76-5.22-2.2-7.04-5.12-9.67,2.7-36.41.12-42.86,3.84.51-2.48-14.38-6.42-20.47-7.68,6.35-4.77,18.78-5.2,21.75-6.4Z" style="fill:#582a59; stroke-width:0px;"/><path d="m483.73,632.06c-31.18-7.64-105.58-1.9-25.59,3.84.13,1.56-1.06,1.15-1.28,1.28-3.37,1.99-67.78,5.7-78.05,5.12.28-1.11-.23-2.66,0-3.84,18.5,2.05,10.9-7.73,14.71-10.24,3.18-2.09,17.8-2.99,22.39-3.84,15.39-2.85,15.55-3.02,31.99-3.84,5.23-.26,31.73-2.81,33.91-1.28,1.13.8.99,10.93,1.92,12.8Z" style="fill:#9946a6; stroke-width:0px;"/><path d="m304.59,507.95c.36,19.25-3.02,36.45,6.4,34.55-1.95,15.37-18.97,4.57-20.47,17.91h-1.28c-.26-15.35-.03-30.71,0-46.06,12.69,1.89,10.64-4.28,15.35-6.4Z" style="fill:#7a457d; stroke-width:0px;"/><path d="m383.92,615.43c-.8,8.48,28.3,1.61,31.99,8.96-4.59.85-19.22,1.75-22.39,3.84-3.81,2.51,3.79,12.28-14.71,10.24.87-4.35-.13-10.64,1.28-15.35-1.23-4.19.18-6.96,0-7.68h3.84Z" style="fill:#582a59; stroke-width:0px;"/><path d="m418.47,703.72c-9.69.72-19.84,4.73-29.43,5.12-8.06.33-15.85-2.67-23.03-2.56.35-.75,2.36-3.72,2.56-3.84,6.45-3.72,33.2-1.14,42.86-3.84,1.82,2.92,3.77,4.36,7.04,5.12Z" style="fill:#582a59; stroke-width:0px;"/><path d="m834.31,713.95c-2.72,7.33-2.41,9.73-2.56,10.24-1.12,3.77-2.95,7.54-3.84,11.52-6.15-4.47-29.4,11.89-31.99,8.96.42-9.76-.57-19.68,0-29.43,12.57-1.25,25.83-4.57,38.39-1.28Z" style="fill:#793062; stroke-width:0px;"/><path d="m38.45,52.44c0,8.68-2.28,57.91-1.28,60.78.34.98,1.67.65,2.56.64-.42,59.72-1.13,119.4-1.28,179.13-.04,16.24,0,32.39,0,48.62h-3.84c1.11-96.17.98-192.36,1.28-288.53l2.56-.64Z" style="fill:#454358; stroke-width:0px;"/><path d="m1091.49,589.84c.98,7.92.22,16.34,1.28,24.31.32,2.37-.79,9.04.64,10.24,10.95-3.53,28.08,1.21,22.39-10.24-1.01-2.03-3.19-.73-2.56-3.84.69-.18,11.19-7.69,11.52-8.32,1.83-3.5,3.78-36.78,5.12,8.32.23,7.66-.17,15.36,0,23.03-39.28,3.52-78.48,7.55-117.72,11.52,0-3.04-6.25-6.18-8.96-6.4.45-4.19-.65-11.95,0-13.43,1.29-2.94,5.37-1.6,7.68-1.92,1.23,3.38,3.79,3.53,5.12,0,11.63.88,10.25,3.79,10.88,3.84,5.55.4,49.09.2,51.18-1.28.68-.48,2.18-10.29-1.28-11.52-2.06-.73-36.49,10.29-42.86,8.96.78-12.23-14.26-6.42-29.43-7.68-1.91-2.19-3.86-4.85-6.4-6.4l.64-3.84c14.04-4.11,29.37-5.71,44.14-6.4,10.19-.47,20.5.35,30.71,0,.18.18,2.11.26,3.2,3.84,1.71-1.3,2.27-3.31,3.2-5.12.33-.65,2.03-5.88,2.56-7.68,1.23-4.15,3.38-21.59,4.48-21.75,2.33,7.06,3.56,14.39,4.48,21.75Z" style="fill:#793062; stroke-width:0px;"/><path d="m935.39,648.7c0,3.84-.01,7.68,0,11.52.02,5.44.67,10.44-1.28,10.24-9.31.28-62.21,6.05-70.37,7.68-1.39-5-11.55-16.4-4.48-19.19,3.8-1.5,61.74-7.54,76.13-10.24Z" style="fill:#b840e7; stroke-width:0px;"/><path d="m1154.19,616.71c-5.84,22.3,35.72-6.87,29.43,12.8-17.09,1.37-34.06,2.31-51.18,3.84-3.46-19.78,9.05-13.79,21.75-16.63Z" style="fill:#793062; stroke-width:0px;"/><path d="m1012.16,644.86c-17.3,6.12-35.77,8.68-53.74,11.52-7.8-7.9-5.03-5.76,1.28-7.68,13.88-4.22,36.05-2.91,37.11-8.96,5.42,3.6,6.01-1.31,6.4-1.28,2.71.22,8.95,3.35,8.96,6.4Z" style="fill:#b23484; stroke-width:0px;"/><path d="m1172.1,612.87c-6.39.66-11.76,2.46-17.91,3.84-12.7,2.84-25.22-3.15-21.75,16.63-.84.07-1.72-.08-2.56,0-.17-7.67.23-15.37,0-23.03,10.48.83,9.72-1.26,10.24-1.28,9.9-.32,22.34,1.36,31.99,3.84Z" style="fill:#b23484; stroke-width:0px;"/><path d="m959.7,648.7c-6.31,1.92-9.08-.22-1.28,7.68-7.67,1.21-15.39,2.43-23.03,3.84-.01-3.84,0-7.68,0-11.52,10.08,2.55,16.93-5.18,24.31,0Z" style="fill:#582a59; stroke-width:0px;"/><path d="m1163.15,573.21c.84.17,7.57,7.02,15.35,7.68-.02,8.42.67,18.93,0,26.87-.16,1.91-.4,2.26-1.28,3.84-4.03.14-4.32,1.2-5.12,1.28-9.65-2.48-22.09-4.16-31.99-3.84-1.98-27.99,3.7-26.06,3.84-27.51,1.35-14.28-3.33-65.32,5.12-52.46,1.26,1.92-.96,39.64,0,46.06,1.38,2.46,8.09-3.13,14.07-1.92Z" style="fill:#97508f; stroke-width:0px;"/><path d="m1177.22,611.59c.87-1.57,1.12-1.93,1.28-3.84,3.42,6.13,38.06-5.18,29.43,10.88-.82,1.52-7.61,2.57-9.6,1.92-6.16-2.03,3.55-9.8-21.11-8.96Z" style="fill:#923d6f; stroke-width:0px;"/><path d="m1265.51,542.5v1.28c-6.2,1.84-4.64,1.53-5.76,7.68-2.36-3.88-9.59-6.59-7.04-12.16,2.78-6.07,6.7,6.32,12.8,3.2Z" style="fill:#793062; stroke-width:0px;"/><path d="m793.37,638.46c1.28,0,2.56,0,3.84,0v41.58c5.77,3.93,7.92.7,8.96.64,2.38-.13,5.19.33,6.4,0q1.92,9.6,3.84,19.19c-8.57,1.05-16.98-2.1-18.55-1.28-2.55,3.19-1.55,5.91-1.92,8.96-.3,2.48.15,5.16,0,7.68-.57,9.75.42,19.66,0,29.43-.39-26.83-7.68-18.58-7.68-19.83,0-1.58,12.07,5.79,4.48-26.23-4.79-3.54-12.78-5.11-14.07-11.52q-20.79,4.48-41.58,8.96c.73-1.22,4.98-6.01,5.12-6.4q17.59-2.56,35.19-5.12c1.32-.59.29-3.47.64-3.84,6-6.28,4.34-29.09,3.84-39.66.12-1.49,1.39-2.01,2.56-2.56,4,6.3-1.65,40.43,1.92,42.22,11.4,5.71,2.35-35.87,7.04-42.22Z" style="fill:#322645; stroke-width:0px;"/><path d="m926.44,637.18c2.02,12.98,7.48,8.6,8.32,8.96,1.15.5.5,2.52.64,2.56-14.39,2.69-72.34,8.74-76.13,10.24-7.07,2.79,3.09,14.19,4.48,19.19-4.92.98-3.64,1.23-3.84,1.28-1.45.4-3.96-.27-5.76,0-4.8,4.27-7.51,10.06-10.88,15.35-4.11-1.94-9.25,1.77-12.8,2.56q1.28-10.24,2.56-20.47c.26-.01,4.68-1.22,5.12-1.28,7.04-.94,15.75.23,20.47-4.48-5.36-5.56-3.01-12.99-3.84-19.83,1.75-2.71,5.8-10.45,6.4-12.8,21.75.23,43.54-.3,65.26-1.28Z" style="fill:#793062; stroke-width:0px;"/><path d="m705.08,661.49c-.62,10.35,2.48,13.4,11.52,16.63-76.43,14.49-150.43,41.01-227.75,51.18-8.3-2.96-29.93-13.92-38.39-19.19,23.86-3.36,47.9-10.84,71.65-15.35,12.06-2.29,86.7-13.27,90.85-18.55.26-.33-.13-1.92,0-3.2,9.41-.06,32.11,3.66,34.55-6.4,19.29.25,38.42-3.5,57.58-5.12Z" style="fill:#1b1a2d; stroke-width:0px;"/><path d="m748.58,676.85c-22.32,10.77-188.43,42.2-232.23,60.14-2.62.14-23.23-6.15-27.51-7.68,77.32-10.17,151.33-36.69,227.75-51.18,14.09-2.67,34.62-8.81,31.99-1.28Z" style="fill:#471b42; stroke-width:0px;"/><path d="m757.54,642.3c5.85.17,9.87-1.2,8.96,2.56-1.44,2.23-1.17,3.6-1.28,3.84l-117.72,10.24c-.08-3.31.37-8.71,0-9.6-.23-.55-2.58-1.05-3.84-1.92-.12-2.02,2.13-.98,2.56-1.28,12.14-.62,35.87,1.67,46.06-3.84,9.5,1.05,61.55,4.89,64.62,3.84,1.13-.39.53-2.77.64-3.84Z" style="fill:#b23484; stroke-width:0px;"/><path d="m765.22,648.7c-1.02,2.19-2.78,7.36-3.84,10.24-18.85-.76-37.57.98-56.3,2.56-19.16,1.62-38.29,5.37-57.58,5.12.35-1.46.06-5.38,0-7.68l117.72-10.24Z" style="fill:#441f54; stroke-width:0px;"/><path d="m761.38,658.93c-.19.51,2.88-.28-1.28,10.88-2,2.97-8.07,5.38-11.52,7.04,2.64-7.53-17.89-1.39-31.99,1.28-9.03-3.23-12.14-6.28-11.52-16.63,18.73-1.58,37.45-3.32,56.3-2.56Z" style="fill:#1f283a; stroke-width:0px;"/><path d="m418.47,703.72c8.45,1.96,21.45,1.28,23.03,7.68-.62,3.79-3.28,8.42-3.84,11.52-8.56,3.9-17.9,6.22-26.87,8.96-13.14-9.16,32.79-15.28,24.95-19.19q-30.39,1.92-60.78,3.84c4.39-1.62,10.14-4.97,14.07-7.68,9.59-.39,19.74-4.4,29.43-5.12Z" style="fill:#793062; stroke-width:0px;"/><path d="m780.57,637.18c.26,5.11,1.27,3.64,1.28,3.84.5,10.57,2.16,33.39-3.84,39.66-9.46-8.03-3.49-27.08-5.12-40.94,3.05-1.85,4.58-1.72,7.68-2.56Z" style="fill:#322645; stroke-width:0px;"/><path d="m48.69,287.87c-.29,53.73-2.3,107.5-2.56,161.22-.09,18.31-.31,36.71,0,55.02q-.64-15.67-1.28-31.35c-6.4-2.05,1.91,15.16-6.4,13.43-.26-48.19.02-96.39,0-144.58,0-16.23-.04-32.38,0-48.62,13.46,16.84,3.2-.35,10.24-5.12Z" style="fill:#322645; stroke-width:0px;"/><path d="m410.79,731.87c-8.82,2.69-18.11,4.24-26.23,8.96-2.88-6.29-18.86-3.68-28.79-3.84-13.64-.22-25.77-2.94-39.66,0-10.41.02-.41-11.12.64-11.52,3.26-1.24,36.99-1.11,58.22-8.96q30.39-1.92,60.78-3.84c7.84,3.91-38.09,10.03-24.95,19.19Z" style="fill:#582a59; stroke-width:0px;"/><path d="m978.9,606.47c-.05.38-.08,7.3,0,7.68-7.19-.7-6.07,1.24-6.4,1.28-8.4,1.01-43.76,5.05-46.7,5.12-14.42.34-23.58-3.75-31.99-3.84-15.95-.18-57.12.36-47.98,6.4-1.14-.65-4.69-1.17-6.4-1.28-1.48-11.14-7.43-4.45-12.8-6.4-.05-6.79,3.66-8.19,3.84-8.96h148.42Z" style="fill:#923d6f; stroke-width:0px;"/><path d="m1009.6,184.23c.06,48.19.3,96.4,0,144.58l-6.4-1.28c-.22-92.87,3.69-185.46,3.84-278.29.35-1.29,2.34.6,2.56,1.28,2.05,6.36-.02,115.82,0,133.71Z" style="fill:#a6547e; stroke-width:0px;"/><path d="m971.22,621.83c14.73,18.3-8.12,13.7-44.78,15.35-21.72.98-43.51,1.51-65.26,1.28.2-.79,1.28-6.07,1.28-6.4,15.68.96,30.55-.57,46.06-2.56,18.76-2.41,40.76-9.13,62.7-7.68Z" style="fill:#793062; stroke-width:0px;"/><path d="m1058.23,513.07c5.01,6.71-2.72,2.95-5.12,21.11-1.58,11.97,2.17,25.12-1.28,37.11,8.7,7.17,14.19,19.84,21.75,27.51-10.21.35-20.51-.47-30.71,0,.94-23.89,1.96-47.74,2.56-71.65,6.88-1.38,9.86-12.34,1.28-10.24.02-.85-.02-1.62,0-2.56,5.76-2.24,6.56-7.92,11.52-1.28Z" style="fill:#793062; stroke-width:0px;"/><path d="m972.5,615.43l-1.28,6.4c-21.94-1.45-43.93,5.27-62.7,7.68-15.8-1.63-31.42-2.9-47.34-2.56-.45,0-2.9-2.1-8.96-1.28-1.37,1.17-2.89.91-3.84,1.28-.35-.75-2.36-3.72-2.56-3.84-9.14-6.04,32.03-6.57,47.98-6.4,8.4.09,17.57,4.18,31.99,3.84,2.94-.07,38.3-4.11,46.7-5.12Z" style="fill:#ab5e99; stroke-width:0px;"/><path d="m1059.51,510.51c-.18,1.28-1.33,1.43-1.28,2.56-4.95-6.64-5.76-.96-11.52,1.28.48-24.98-1.32-50.45,0-75.49,4.56,9.03,12.49,12.56,12.8,13.43.97,2.75.57,54.18,0,58.22Z" style="fill:#ab5e99; stroke-width:0px;"/><path d="m1004.49,615.43c.37.42-2.71,3.01-.64,3.84,5.79,2.32,23.22-7.21,30.07,3.84,6.37,1.33,40.8-9.69,42.86-8.96,3.46,1.23,1.96,11.03,1.28,11.52-2.09,1.48-45.63,1.68-51.18,1.28-.62-.04.75-2.95-10.88-3.84-1.54-.12-3.65-.2-5.12,0-2.3.32-6.38-1.02-7.68,1.92-.65,1.48.45,9.24,0,13.43-.39-.03-.97,4.88-6.4,1.28l1.28-30.71c2.54,1.55,4.49,4.2,6.4,6.4Z" style="fill:#b23484; stroke-width:0px;"/><path d="m1009.6,328.82c-.08,13.28,1.24,85.87,0,90.21-.11.39-5.41,4.7-6.4,5.12-.05-26.66.07-53.31,0-79.97-.01-5.54.01-11.09,0-16.63l6.4,1.28Z" style="fill:#793062; stroke-width:0px;"/><path d="m978.9,614.15c-.08-.38-.05-7.3,0-7.68,4.03-29.84,10.45,14.28,4.48,15.35-5.44-4.29-4.09-5.89-4.48-7.68Z" style="fill:#75569e; stroke-width:0px;"/><path d="m1003.85,435.02c10.49-4.81,6.3,28.37-.64,18.55-3.02-4.27,2.38-13.31,2.56-14.07.45-1.93-4.98-3.07-1.92-4.48Z" style="fill:#582a59; stroke-width:0px;"/><path d="m1045.43,527.14c.08-3.4,1.21-7.31,1.28-10.24,8.58-2.11,5.6,8.86-1.28,10.24Z" style="fill:#923d6f; stroke-width:0px;"/><path d="m997.45,574.49c4.69-2.36-.28,23.25-.64.64.18-.27.38-.51.64-.64Z" style="fill:#793062; stroke-width:0px;"/><path d="m473.49,565.53c2.39,24.34,19.86,8.46,15.35,46.06-2.2.05-4.37-.05-6.4,0-4.28-6.46-20.29-16.61-28.15-19.19v-29.43c7.22-1.21,12.63,1.58,19.19,2.56Z" style="fill:#97508f; stroke-width:0px;"/><path d="m449.18,615.43l-1.28,5.12c-16.44.82-16.6.99-31.99,3.84-3.69-7.34-32.79-.48-31.99-8.96,21.73-.47,43.54.64,65.26,0Z" style="fill:#7a457d; stroke-width:0px;"/><path d="m431.27,525.86c3.5,3.42,6.87,10.87,12.8,14.07-.17,6.81,0,13.66,0,20.47-24.94-2.26-3.91-22.56-17.91-35.83,1.91-1.55,3.07-.72,5.12,1.28Z" style="fill:#923d6f; stroke-width:0px;"/><path d="m377.53,611.59c-1.87-3.7-7.24-10.17-10.24-12.8l2.56-24.95c6.78,11.56,12.12,24.17,7.68,37.75Z" style="fill:#031822; stroke-width:0px;"/><path d="m454.3,574.49v17.91c-2.68-.88-9.9,1.72-11.52-1.92-.33-6.32,1.34-12.22,1.28-18.55,5.57-1.36,7.84-3.46,10.24,2.56Z" style="fill:#97508f; stroke-width:0px;"/><path d="m425.51,560.41c6.26-1.48,3.92,46.19-1.92,35.19-.83-1.56-.6-34.59,1.92-35.19Z" style="fill:#793062; stroke-width:0px;"/><path d="m790.81,376.16c.02.43-.02.85,0,1.28-1.8-.86-3.72,2.51-3.84,3.2-1.2,6.84-2.28,79.13-1.28,83.17,3.7,7.68,10.47,4.32,11.52,6.4,2.01,3.97,1.6,78.55,1.28,88.93-.25,8.06-2.9,15.17-3.84,23.03-28.03,8.65-24.39-5.39-25.59-44.14-.61-19.59,2.55-59.68,1.28-64.62-2.24-8.67-8.45-1.59-8.96-1.28-.69.42-5,3.54-5.12,3.84-9.01-1.48.01-2.81,1.28-12.16,1.42-10.44-1.81-60.14,0-62.7,11.46-4.55,11.5,10.12,13.43,9.6,2.95-39.18,4.99-79.79,4.48-119.63,15.16-10.83,15.99,71.18,15.35,85.09Z" style="fill:#322645; stroke-width:0px;"/><path d="m667.97,569.37c2.76-1.02,8.32-.33,10.24-3.2-.06-7.43-.26-14.97,0-22.39,15.82,19.01,73.07,18.59,76.77,8.32.54-1.51-.28-8.06,0-12.16.5-7.26-1.27-15.46,1.28-16.63-.32,16.84.23,33.7,0,50.54-4.82,15.31-81.34,3.03-96.6,4.48-1.92-6.84,9.69-.37,8.32-8.96Z" style="fill:#322645; stroke-width:0px;"/><path d="m802.32,246.93c-1.17,4.36-2.32,10.33-2.56,14.71-1.09,19.92-2.25,170.85-1.28,187.45-2.47-.52-3.2,2.1-3.84.64-3.22-7.4-3.15-57.87-3.84-72.29-.02-.43.02-.85,0-1.28,3.65-10.63-.61-72.82,1.28-76.13.92-1.62,7.56,1.14,4.48-4.48-12.48-1.4,2.26-5.69.64-8.32-4.98-1.14-5.68.23-5.12-5.76,12.06,4.82-1.45-60.46,10.24-34.55Z" style="fill:#582a59; stroke-width:0px;"/><path d="m684.61,506.67c.24,4.97-2.73,4.69-2.56,7.04.08,1.04,3.48,19.49,3.84,20.47,5.79,15.74,60.1,22.57,69.09,5.76-.28,4.1.54,10.65,0,12.16-3.7,10.28-60.95,10.69-76.77-8.32.78-22.5-3.77-41.26,6.4-37.11Z" style="fill:#1f283a; stroke-width:0px;"/><path d="m683.33,441.42c-.91,20.38.73,41.04,1.28,61.42-5.49.54-8.59-11.08-9.6-11.52-1.99-.86-9.61,1.14-10.88-.64-.65-.91.12-18.89,0-22.39,8.81,2.6,9.98-18.35,15.35-28.15,2.11,2.33,3.68-1.21,3.84,1.28Z" style="fill:#7a457d; stroke-width:0px;"/><path d="m772.26,120.26c-.72,14.97,3.02,112.92.64,118.35-2.42,5.51-1.24-111.85-.64-118.35Z" style="fill:#657781; stroke-width:0px;"/><path d="m784.41,615.43c-14.88,1.4-8.35,3.77-8.96,3.84-12.69,1.45-31.44.32-42.86,6.4-10.49-4.99-13.95-1.24-14.71-1.28-.9-.04-.54-.01-1.28,0-.72.01-3.88-3.2-8.96,0-23.32-16.82,6.47-2.56,30.71-17.91,20.69.91,50.42-5.45,46.06,8.96Z" style="fill:#7a457d; stroke-width:0px;"/><path d="m641.11,633.34c-11.01.36-72.58,2.91-77.41,0-1.48-.89-3.96-5.49,3.2-7.68,18.14-5.53,57.67-1.07,78.69-2.56,4.52,2.52-22.01,4.56-4.48,10.24Z" style="fill:#5b46ae; stroke-width:0px;"/><path d="m591.2,532.26c-.6,26.46,3.43,41.22,8.96,23.03-1.36,22.16,5.96,19.43-19.19,33.27,2.58-30.67-7.35-67.04,10.24-56.3Z" style="fill:#582a59; stroke-width:0px;"/><path d="m825.35,623.11v15.35c-5.18.55-12.27-.07-17.91,0-1.28.02-2.56,0-3.84,0-2.13,0-4.27,0-6.4,0-1.28,0-2.56,0-3.84,0-3.3,0-3.28-2.64-8.96,0-1.17.54-2.44,1.07-2.56,2.56,0-.2-1.02,1.27-1.28-3.84-.19-3.82.14-7.69,0-11.52v-2.56c10.06,1.05,31.69-.08,44.78,0Z" style="fill:#1b2e5c; stroke-width:0px;"/><path d="m775.45,619.27c-.65,5.32,1.28,3.44,5.12,3.84v2.56c-24.67-.76-66.7,19.5-62.7-1.28.77.04,4.22-3.71,14.71,1.28,11.42-6.07,30.17-4.95,42.86-6.4Z" style="fill:#b156c6; stroke-width:0px;"/><path d="m757.54,642.3c-.11,1.07.49,3.45-.64,3.84-3.06,1.05-55.11-2.79-64.62-3.84.4-.21-2.28-5.23,5.76-3.84,19.03,6.46,39.6,3.25,59.5,3.84Z" style="fill:#ab5e99; stroke-width:0px;"/><path d="m645.58,429.9c6.42-4.83,7.25,9.92,5.12,11.52-6.42,4.83-7.25-9.92-5.12-11.52Z" style="fill:#923d6f; stroke-width:0px;"/><path d="m716.6,624.39c-2.63,12.13-8.35.43-8.96,0,5.08-3.2,8.24.01,8.96,0Z" style="fill:#b156c6; stroke-width:0px;"/><path d="m798.49,449.09c-.97-16.6.19-167.53,1.28-187.45.24-4.38,1.39-10.36,2.56-14.71.1.23,3.53,2,3.84,3.2-4.32,13.35,1.2,13.29,1.28,14.07,3.91,38.57.28,149.46,0,195.77-11.92,6.56-8.44-2.05-8.96-10.88Z" style="fill:#c1588c; stroke-width:0px;"/><path d="m818.96,241.81c1.39,29.68-3.08,78.37,0,111.96.04,1.05,2.55.51,2.56.64.62,17.61,3.3,61.57-6.4,69.09-1.96-61.72,1.47-123.78,0-185.53,2.06-.85,3.79,2.75,3.84,3.84Z" style="fill:#ab5e99; stroke-width:0px;"/><path d="m826.63,615.43c5.37,1.95,11.32-4.75,12.8,6.4-1.18-.07-1.34,1.31-2.56,1.28-3.83-.1-7.68.02-11.52,0-13.09-.08-34.73,1.05-44.78,0-3.84-.4-5.77,1.48-5.12-3.84.61-.07-5.93-2.44,8.96-3.84,10.94-1.03,23.96.76,35.19,0,1.19-17.83,3.11-1.43,7.04,0Z" style="fill:#18c0e9; stroke-width:0px;"/><path d="m794.65,582.16c.94-7.86,3.59-14.97,3.84-23.03,4.55,11.79,4.94,27.82,6.4,40.3-14.73-2.29-11.72-4.82-10.24-17.27Z" style="fill:#322645; stroke-width:0px;"/><path d="m801.68,552.73c2.31,4.56,20.3,51.06,17.91,52.46-7.73,4.53-19.19-45.04-17.91-52.46Z" style="fill:#ab5e99; stroke-width:0px;"/><path d="m770.34,473.4c-3.92,2.63-5.78,1.18-8.96-1.28.5-.31,6.72-7.39,8.96,1.28Z" style="fill:#923d6f; stroke-width:0px;"/><path d="m240.62,543.78c-.28-.16-2.11.65-3.84-1.92-.18-52.67.23-105.35,0-158.02,1.74-.16,7.49,3.77,7.68,4.48,1.04,3.83-3.79,37.51-3.84,43.5-.12,14.44,2.59,33.35,2.56,39.66-.04,7.06-2.62,15.99-2.56,23.03.04,4.6,3.51,24.94,2.56,35.83-.27,3.09-3.41,10.51-2.56,13.43Z" style="fill:#923d6f; stroke-width:0px;"/><path d="m1113.25,610.31c-.63,3.11,1.55,1.81,2.56,3.84h-23.03c-1.06-7.97-.29-16.39-1.28-24.31,15.36-5.18-.95,26.43,21.75,20.47Z" style="fill:#ab5e99; stroke-width:0px;"/><path d="m1082.54,589.84c-.53,1.79-2.22,7.03-2.56,7.68-7.04-4.28-16.03-26.76-12.8-34.55,3.36,9.13,11.28,17.88,15.35,26.87Z" style="fill:#97508f; stroke-width:0px;"/><path d="m304.59,474.68c.3,11.07-.21,22.19,0,33.27-4.72,2.11-2.66,8.29-15.35,6.4.03-13.65,0-27.3,0-40.94,6.35-1.18,9.24-1.04,15.35,1.28Z" style="fill:#ab5e99; stroke-width:0px;"/><path d="m286.68,252.05c-2.87,11.01,1.88,25.3-5.12,33.27-1.13-2.9-2.88-6.05-3.84-8.96,2.02-2.65-2.85-39.85,8.32-30.71,1.46,1.2.22,4.71.64,6.4Z" style="fill:#d492a3; stroke-width:0px;"/><path d="m821.52,241.81c-.06,6.8,1.28,6.07,1.28,6.4-.31,35.41.08,70.8-1.28,106.2,0-.13-2.52.41-2.56-.64-3.08-33.59,1.39-82.28,0-111.96h2.56Z" style="fill:#a6547e; stroke-width:0px;"/><path d="m825.35,245.65c.24-.28,1.16-2.47,1.28-2.56,5.7,18.39,3.28,38.03,3.84,56.94-1.27,3.38-5.01-16.86-5.12-17.91-1.1-11.14.81-24.94,0-36.47Z" style="fill:#582a59; stroke-width:0px;"/><path d="m92.83,492.6c.81.47,1.03,5.88.64,7.04-2.71,7.97-3.56-8.73-.64-7.04Z" style="fill:#e094c1; stroke-width:0px;"/><path d="m53.81,406.87c.07,39.43-.26,79.15,2.56,118.35-1.74,2.79-3.33,1.29-7.68.64,1.23-25.59,1.01-51.16,1.28-76.77.2-19.44-2.14-47.52,2.56-62.06l1.28,19.83Z" style="fill:#793062; stroke-width:0px;"/><path d="m49.97,449.09c-.26,25.61-.05,51.18-1.28,76.77-.19-.03-1.76,2.94-3.84-.64,2.19-5.42,1.39-14.67,1.28-21.11-.31-18.31-.09-36.7,0-55.02h3.84Z" style="fill:#923d6f; stroke-width:0px;"/><path d="m685.89,353.13c.27,1.93-.3,37.34-1.28,39.03-.75,1.29-3.72.38-5.12.64-2.29-11.29-3.56-33.16,6.4-39.66Z" style="fill:#eda1b1; stroke-width:0px;"/><path d="m445.34,667.89c25.3,1.31,50.51,4.7,75.49-1.28,13.23,1.33,26.61,1.31,39.66,2.56,18.3,1.75,33.56,3.97,52.46,3.84-.13,1.28.26,2.87,0,3.2-4.14,5.28-78.79,16.26-90.85,18.55.07-.8-1.51-2.47-1.92-2.56-9.51-2.11-53.8,2.84-78.05,2.56-8.93-.1-30.1-1.95-44.14-2.56,3.01-3.18,7.61,1.75,6.4-6.4,18.07-1.07,4.28-16.7,9.6-20.47,1.28-.91,26.87,2.33,31.35,2.56Z" style="fill:#031822; stroke-width:0px;"/><path d="m643.66,647.42c1.26.87,3.61,1.37,3.84,1.92.37.89-.08,6.29,0,9.6.06,2.3.35,6.21,0,7.68-2.43,10.06-25.13,6.33-34.55,6.4-18.9.13-34.16-2.09-52.46-3.84v-10.24c13.2.4,15.8-1.31,16.63-1.28,9,.32,63.93,5.39,67.17,3.84,1.79-.85,2.65-4.35,1.92-5.76-2.17-4.19-39.36,1.23-46.06-10.88,9.32-.09,37.58-1.52,43.5,2.56Z" style="fill:#1f283a; stroke-width:0px;"/><path d="m600.16,644.86c6.7,12.11,43.89,6.69,46.06,10.88.73,1.41-.13,4.9-1.92,5.76-3.24,1.55-58.18-3.52-67.17-3.84-3.57-19.76,9.7-12.66,23.03-12.8Z" style="fill:#322645; stroke-width:0px;"/><path d="m560.5,658.93v10.24c-13.05-1.25-26.43-1.23-39.66-2.56-.52-.05,2.71-2.09-8.32-3.84-9.22-.25-18.26-1.12-27.51-1.28,7.59-7.2,49.63-5.64,69.73-5.12.31,0,4.63,2.53,5.76,2.56Z" style="fill:#322645; stroke-width:0px;"/><path d="m487.56,635.9c43.44,4.37-22.62,30.52-30.71,1.28.22-.13,1.41.28,1.28-1.28,9.35.67,20.38-.91,29.43,0Z" style="fill:#b840e7; stroke-width:0px;"/><path d="m485,661.49c9.25.16,18.28,1.03,27.51,1.28,11.03,1.74,7.8,3.79,8.32,3.84-24.99,5.98-50.19,2.59-75.49,1.28-1.12-7.27,24.94-6.64,39.66-6.4Z" style="fill:#793062; stroke-width:0px;"/><path d="m483.73,632.06c.4.81,4.81.82,3.84,3.84-9.04-.91-20.08.67-29.43,0-79.99-5.74-5.59-11.48,25.59-3.84Z" style="fill:#6b3685; stroke-width:0px;"/><path d="m385.2,681.96c5.25.62,11.17,3.58,16.63,3.84.84.04,1.72.05,2.56,0,1.22,8.14-3.38,3.22-6.4,6.4-9.37-.41-25.16-.67-28.15-3.84,4.24-1.71-.92-8.32,15.35-6.4Z" style="fill:#1b1a2d; stroke-width:0px;"/><path d="m401.84,685.8c-5.47-.26-11.39-3.22-16.63-3.84,15.55-10.56,39.94.12,16.63,3.84Z" style="fill:#582a59; stroke-width:0px;"/><path d="m843.27,694.76c-2.13,3.34-3.49,6.66-5.12,10.24-12.83,5.78-28.28.64-42.22,2.56.37-3.05-.63-5.77,1.92-8.96,1.57-.82,9.99,2.33,18.55,1.28,3.91-.48,10.14-1.69,14.07-2.56,3.55-.79,8.69-4.5,12.8-2.56Z" style="fill:#b23484; stroke-width:0px;"/><path d="m838.15,705c-1.4,3.07-2.65,5.77-3.84,8.96-12.55-3.29-25.81.03-38.39,1.28.15-2.52-.3-5.19,0-7.68,13.94-1.92,29.39,3.22,42.22-2.56Z" style="fill:#923d6f; stroke-width:0px;"/><path d="m1115.8,614.15c5.69,11.44-11.44,6.71-22.39,10.24-1.43-1.2-.32-7.87-.64-10.24h23.03Z" style="fill:#b14fa8; stroke-width:0px;"/><path d="m1033.92,623.11c-6.85-11.05-24.28-1.52-30.07-3.84-2.07-.83,1.01-3.42.64-3.84,15.17,1.26,30.21-4.55,29.43,7.68Z" style="fill:#c45fb9; stroke-width:0px;"/><path d="m1016,623.11c-1.32,3.53-3.89,3.38-5.12,0,1.47-.2,3.58-.12,5.12,0Z" style="fill:#7a457d; stroke-width:0px;"/><path d="m833.03,676.85q-1.28,10.24-2.56,20.47c-3.93.87-10.16,2.08-14.07,2.56q-1.92-9.6-3.84-19.19c1.7-.47,3.09,1.03,2.56-3.84,5.95-.24,11.98.33,17.91,0Z" style="fill:#923d6f; stroke-width:0px;"/><path d="m803.6,638.46q1.28,21.11,2.56,42.22c-1.04.06-3.19,3.29-8.96-.64v-41.58c2.13,0,4.27,0,6.4,0Z" style="fill:#582a59; stroke-width:0px;"/><path d="m793.37,638.46c-4.69,6.35,4.36,47.94-7.04,42.22-3.57-1.79,2.08-35.92-1.92-42.22,5.68-2.64,5.65,0,8.96,0Z" style="fill:#441f54; stroke-width:0px;"/><path d="m807.44,638.46c-.72,12.04,7.47,36.44,7.68,38.39.53,4.87-.86,3.37-2.56,3.84-1.21.33-4.02-.13-6.4,0q-1.28-21.11-2.56-42.22c1.28,0,2.56.02,3.84,0Z" style="fill:#a6547e; stroke-width:0px;"/><path d="m825.35,638.46c.83-.09,1.73.12,2.56,0,16.71-.37,8.4,11.38,10.24,37.11-.44.06-4.85,1.26-5.12,1.28-5.94.33-11.97-.24-17.91,0-.21-1.95-8.4-26.35-7.68-38.39,5.64-.07,12.73.55,17.91,0Z" style="fill:#2f1838; stroke-width:0px;"/><path d="m854.78,651.26c.83,6.84-1.52,14.27,3.84,19.83-4.72,4.71-13.43,3.54-20.47,4.48-1.84-25.73,6.48-37.47-10.24-37.11.81-.11,1.78.16,2.56,0,8.33-1.66,12.56-8.84,15.35-10.24.88-.44,1.63-.92,2.56-1.28.95-.37,2.47-.11,3.84-1.28-1.86,11.8,1.59,17.6,2.56,25.59Z" style="fill:#582a59; stroke-width:0px;"/><path d="m861.18,626.95c-.66,5.88,1.28,4.85,1.28,5.12,0,.33-1.08,5.6-1.28,6.4-.6,2.34-4.65,10.09-6.4,12.8-.97-7.99-4.42-13.79-2.56-25.59,6.05-.82,8.5,1.29,8.96,1.28Z" style="fill:#b23484; stroke-width:0px;"/><path d="m845.83,623.11c.2.11,2.21,3.09,2.56,3.84-.93.36-1.68.84-2.56,1.28-11.51-1.62-8.41-3.77-8.96-3.84v-1.28c1.22.03,1.38-1.35,2.56-1.28,1.7.11,5.26.63,6.4,1.28Z" style="fill:#eebbf8; stroke-width:0px;"/><path d="m908.52,629.5c-15.52,1.99-30.38,3.52-46.06,2.56,0-.26-1.94.76-1.28-5.12,15.93-.34,31.54.93,47.34,2.56Z" style="fill:#582a59; stroke-width:0px;"/><path d="m836.87,623.11v1.28c-11.68-1.39-5.33,1.24-6.4,14.07-.78.16-1.75-.11-2.56,0-.83.12-1.72-.09-2.56,0v-15.35c3.83.02,7.68-.1,11.52,0Z" style="fill:#996bcb; stroke-width:0px;"/><path d="m836.87,624.39c.55.07-2.55,2.22,8.96,3.84-2.79,1.4-7.02,8.57-15.35,10.24,1.06-12.83-5.28-15.46,6.4-14.07Z" style="fill:#9946a6; stroke-width:0px;"/></g><path d="m30.78,571.93c1.77.96,6.85.88,7.68,3.2.56,1.58-5.39,9.18-5.12,12.16-11.01.35-22.18,1.93-33.27,1.28-.02-8.96.02-17.91,0-26.87,34.95-1.64,21.65,3.37,23.03,7.04.35.94,5.03,1.77,7.68,3.2Z" style="fill:#441f54; stroke-width:0px;"/><path d="m195.83,569.37l-8.96,14.07c-5.21.03-11.1,1.24-16.63,1.28-10.66.08-70.04,2.31-73.57,1.28-1.09-.32-16.02-15.72-15.35-16.63,38.21-.91,76.3-.53,114.52,0Z" style="fill:#6b3685; stroke-width:0px;"/><path d="m270.05,573.21c-9.34-.41-29.33,1.24-26.87,8.96-18.67,3.08-37.57,1.17-56.3,1.28l8.96-14.07c24.5.34,49.07.15,73.57,0,1.45.27-1.58,1.58.64,3.84Z" style="fill:#441f54; stroke-width:0px;"/><path d="m60.21,528.42c2.98.1,5.98-.12,8.96,0,13.26.55,26.43,1.79,39.66,2.56,19.49,1.13,39.45,1.99,58.86,3.84,1.26.12,2.58-.13,3.84,0,10.53,1.05,26.37,1.26,35.83,3.84,5.64,1.54,30.73,15.74,38.39,20.47-28.91-1.82-135.34-6.06-143.95-7.68-2.59-.49-46.45-18.98-48.62-20.47-1.39-.95.54-1.02.64-2.56,2.13.07,4.27-.07,6.4,0Z" style="fill:#322645; stroke-width:0px;"/><path d="m351.94,589.84l-7.68,5.12q-21.43-5.12-42.86-10.24l-7.04-21.75c14.83,1.12,32.86,12.98,47.98,17.91,3.15,2.96,5.99,6.5,9.6,8.96Z" style="fill:#582a59; stroke-width:0px;"/><path d="m351.94,589.84c3.68,2.5,12.32,6.29,15.35,8.96,3,2.63,8.37,9.09,10.24,12.8.74,1.46,2.18,2.33,2.56,3.84.18.71-1.23,3.49,0,7.68-35.2,16.94-7.41-.57-35.83-28.15l7.68-5.12Z" style="fill:#923d6f; stroke-width:0px;"/><path d="m51.25,564.25c-17.49-.71-6.14,17.68,3.84,6.4,4.98,4.78,9.47,9.6,14.07,14.71l-1.92,1.92c-11.29.26-22.63-.36-33.91,0-.28-2.98,5.68-10.57,5.12-12.16-.83-2.32-5.91-2.24-7.68-3.2,18.03-.97-19.7-11.89,20.47-7.68Z" style="fill:#7a457d; stroke-width:0px;"/><path d="m270.05,573.21c4.48,4.56,10.01,8.69,10.24,11.52-12.54-1.81-24.72-.24-37.11-2.56-2.46-7.72,17.53-9.37,26.87-8.96Z" style="fill:#6b3685; stroke-width:0px;"/><path d="m51.25,564.25c4.4,4.72,3.57,6.14,3.84,6.4-9.98,11.29-21.33-7.11-3.84-6.4Z" style="fill:#7a457d; stroke-width:0px;"/><path d="m33.34,527.14c6.67.2,13.66,1.06,20.47,1.28-.1,1.54-2.03,1.61-.64,2.56,2.18,1.49,46.03,19.98,48.62,20.47,8.6,1.62,115.03,5.86,143.95,7.68,12.35.78,24.93.31,37.11,1.28,2.11.17,4.28-.11,6.4,0h1.28l3.84,2.56,7.04,21.75q21.43,5.12,42.86,10.24c28.42,27.58.63,45.09,35.83,28.15-1.41,4.71-.41,11.01-1.28,15.35-.23,1.17.28,2.73,0,3.84-4.74,18.75-36.59,41.84-55.02,47.98,2.08,3.3,14.47,2.45,24.31,4.48,6.1,1.26,20.98,5.19,20.47,7.68-.2.12-2.21,3.09-2.56,3.84-55.64.83-86.74,23.57-91.49,24.31-16.86,2.62-27.71-16.53-48.62,12.8,19.03,1.57,61.49-2.17,56.94,6.4-94.26-.11-188.51.08-282.77,0-.11-20.04.15-40.09,0-60.14,13.82-3.83,121.55-5.89,125.39-10.88.31-.4-1.62-4.33-1.92-4.48-5.52-2.8-107.96,10.18-123.47,8.96,0-.85,0-1.71,0-2.56,19.28-3.5,129.8-8.05,136.27-10.24,4.5-1.52,4.45-5.99,8.32-7.68.85-.02,1.71,0,2.56,0-7.28,6.63-9.77,16.61-15.35,24.31-17.41,24-41.73,38.66-42.22,41.58-.16.96-.31,2.66.64,3.2l208.56-37.11c12.21-2.41,28.42-38,31.99-38.39,6.74-.73,15.04,23.31,21.11-18.55-4.88-4.46-9.63-9.25-19.19-8.32,0-.14-.65,1.04-1.28-2.56-1.71-9.82-6.1-12.15-6.4-12.8-.4-.87,2.96.31-3.84-8.96-.34-.47.38-2.73,0-3.2-6.8-8.24-29.92-15.68-40.94-17.27-.23-2.83-5.75-6.95-10.24-11.52-2.22-2.26.81-3.56-.64-3.84-24.5.15-49.07.34-73.57,0-38.22-.53-76.31-.91-114.52,0-.67.91,14.27,16.32,15.35,16.63,3.53,1.03,62.91-1.2,73.57-1.28q10.56,14.71,21.11,29.43-95.64,3.84-191.29,7.68c-.03-11.09.02-22.18,0-33.27,11.09.65,22.25-.93,33.27-1.28,11.28-.36,22.62.26,33.91,0l1.92-1.92c-4.6-5.11-9.09-9.94-14.07-14.71-.27-.26.56-1.68-3.84-6.4-40.17-4.22-2.44,6.71-20.47,7.68-2.65-1.43-7.32-2.26-7.68-3.2-1.38-3.67,11.91-8.68-23.03-7.04-.02-11.52.02-23.03,0-34.55,11.08.24,22.2-.33,33.27,0Z" style="fill:#031822; stroke-width:0px;"/><path d="m211.19,638.46l-5.12,19.19c-2.94.59-6.42,2.55-8.32,5.12q-12.48,1.28-24.95,2.56c2.65-8.19-6.52-2.65-25.59-2.56-.85,0-1.71-.02-2.56,0-.13,0,.39-2.59-.64-2.56-8.24.26-19.27,3.14-28.79,3.84-38.4-2.52-76.7,4.58-115.16,5.12-.04-6.82.02-13.65,0-20.47q103.64-6.4,207.28-12.8c.89.73,2.87,2.34,3.84,2.56Z" style="fill:#1b1a2d; stroke-width:0px;"/><path d="m280.28,584.72c11.03,1.59,34.14,9.03,40.94,17.27.38.47-.34,2.73,0,3.2-41.81,5.76-83.99,4.44-126.03,6.4-3.24,1.27-.72,4.92.64,7.68q-97.88,3.2-195.77,6.4c0-1.28,0-2.56,0-3.84q95.64-3.84,191.29-7.68-10.56-14.71-21.11-29.43c5.53-.04,11.42-1.25,16.63-1.28,18.73-.11,37.63,1.8,56.3-1.28,12.38,2.32,24.56.75,37.11,2.56Z" style="fill:#471b42; stroke-width:0px;"/><path d="m200.95,626.95c3.79,2.37,5.56,8.28,6.4,8.96q-103.64,6.4-207.28,12.8c-.02-4.69.02-9.38,0-14.07l193.85-10.24c2.46-.13,5.04,1.31,7.04,2.56Z" style="fill:#582a59; stroke-width:0px;"/><path d="m195.83,619.27c.16.32,4.37,2.46,5.12,5.12.19.66-.09,1.74,0,2.56-1.99-1.25-4.58-2.69-7.04-2.56L.07,634.62c-.01-2.99,0-5.97,0-8.96q97.88-3.2,195.77-6.4Z" style="fill:#1b1a2d; stroke-width:0px;"/><path d="m144.65,662.77c-3.86,1.68-3.81,6.15-8.32,7.68-6.47,2.19-116.99,6.73-136.27,10.24-.02-2.13.01-4.27,0-6.4,38.37-3.2,76.77-7.43,115.16-10.24,9.52-.7,20.55-3.58,28.79-3.84,1.03-.03.51,2.56.64,2.56Z" style="fill:#d0b4f3; stroke-width:0px;"/><path d="m.07,689.64c-.02-2.13.02-4.27,0-6.4,15.51,1.22,117.95-11.76,123.47-8.96.3.15,2.23,4.08,1.92,4.48-3.84,4.98-111.57,7.04-125.39,10.88Z" style="fill:#2a1c51; stroke-width:0px;"/><path d="m115.23,664.05c-38.39,2.81-76.79,7.03-115.16,10.24-.01-1.71,0-3.41,0-5.12,38.46-.54,76.76-7.64,115.16-5.12Z" style="fill:#7546a4; stroke-width:0px;"/><path d="m331.46,626.95c.63,3.6,1.27,2.42,1.28,2.56.26,4.03-3.02,12.19-2.56,17.27-1.67,2.87-4.27,1.54-5.12,1.92,3.31-7.61-9.3-1.42-14.07-1.28-30.33.87-75.15,4.29-104.92,10.24l5.12-19.19q60.14-5.76,120.27-11.52Z" style="fill:#2f1838; stroke-width:0px;"/><path d="m325.07,614.15c.3.65,4.69,2.97,6.4,12.8q-60.14,5.76-120.27,11.52c-.96-.22-2.95-1.83-3.84-2.56-.84-.68-2.61-6.58-6.4-8.96-.09-.82.19-1.9,0-2.56l124.11-10.24Z" style="fill:#b23484; stroke-width:0px;"/><path d="m321.23,605.19c6.79,9.26,3.44,8.09,3.84,8.96l-124.11,10.24c-.75-2.66-4.96-4.79-5.12-5.12-1.36-2.76-3.88-6.41-.64-7.68,42.04-1.96,84.22-.64,126.03-6.4Z" style="fill:#6b1b51; stroke-width:0px;"/><path d="m172.8,665.33c-9.43,4.54.73,24.62-40.94,21.75,5.59-7.7,8.08-17.68,15.35-24.31,19.08-.09,28.24-5.63,25.59,2.56Z" style="fill:#b840e7; stroke-width:0px;"/><path d="m325.07,648.7c-4.26,1.92-15.6,5.67-14.07-1.28,4.78-.14,17.38-6.33,14.07,1.28Z" style="fill:#823b90; stroke-width:0px;"/><path d="m131.86,687.08c41.68,2.87,31.51-17.21,40.94-21.75q12.48-1.28,24.95-2.56c1.9-2.57,5.37-4.53,8.32-5.12,29.77-5.95,74.59-9.37,104.92-10.24-1.53,6.95,9.81,3.2,14.07,1.28.84-.38,3.44.95,5.12-1.92-.46-5.09,2.82-13.25,2.56-17.27,9.57-.93,14.31,3.85,19.19,8.32-6.07,41.86-14.38,17.83-21.11,18.55-3.57.39-19.78,35.97-31.99,38.39l-208.56,37.11c-.95-.54-.8-2.23-.64-3.2.49-2.92,24.81-17.59,42.22-41.58Z" style="fill:#322645; stroke-width:0px;"/><path d="m269.41,651.26c4.52,2.98-9.71,19.69-11.52,20.47-4.12,1.79-86.33,15.82-88.93,12.16-5.27-7.45,3.15-20.83,28.79-18.55,12.34-9.72,50.86-8.55,71.65-14.07Z" style="fill:#b840e7; stroke-width:0px;"/><path d="m302.67,647.42c9.19,1.77-10.79,18.24-28.79,5.76l28.79-5.76Z" style="fill:#b840e7; stroke-width:0px;"/><path d="m273.25,658.93c1.76-.02,2.14.8,3.2,1.92-18.38,21.7-10.49-1.84-3.2-1.92Z" style="fill:#c964e0; stroke-width:0px;"/><path d="m1310.29,621.83c-.06,19.62.14,39.24,0,58.86-73.13-1.64-146.31-2.25-219.44-3.84-43.19-.94-124.85-7.34-156.74-6.4,1.95.2,1.3-4.8,1.28-10.24,7.64-1.41,15.36-2.63,23.03-3.84,17.97-2.84,36.44-5.4,53.74-11.52,39.23-3.97,78.44-7.99,117.72-11.52.84-.08,1.72.07,2.56,0,17.12-1.53,34.09-2.47,51.18-3.84,9.6-.77,19.43-.32,28.79-1.28,2.9-.3,21.88-7.67,24.95-2.56-25.38,5.63-50.15,15.6-76.13,19.19,20.45,4.36,41.1-2.54,60.78-7.68,6.07,3.58,27.55-2.06,36.47-5.12,10.16-.33,40.81-4.78,37.11-8.96-7.59-.33-14.77,1.57-22.39,1.28,3.86-5.33,25.48-1.17,37.11-2.56Z" style="fill:#1b1a2d; stroke-width:0px;"/><path d="m1259.11,624.39c-6.99,5.97-25.88,9.87-37.11,12.8-19.68,5.13-40.32,12.04-60.78,7.68,25.98-3.59,50.75-13.56,76.13-19.19,6.26-1.39,12.64-2.47,18.55-5.12,1.17.34,2.95,3.84,3.2,3.84Z" style="fill:#923d6f; stroke-width:0px;"/><path d="m1222,637.18c11.22-2.93,30.11-6.82,37.11-12.8,4.65-.11,9.43-.18,14.07,0,7.62.3,14.8-1.61,22.39-1.28,3.71,4.18-26.94,8.63-37.11,8.96-8.92,3.06-30.4,8.69-36.47,5.12Z" style="fill:#1b1a2d; stroke-width:0px;"/><path d="m1310.29,696.04c-.15,17.91.11,35.83,0,53.74-162.07.07-324.14-.1-486.21,0,5.22-4.34,2.43-10.89,2.56-11.52.03-.14.48,1.03,1.28-2.56.89-3.97,2.72-7.74,3.84-11.52,12.74,4.32,40.43,4.15,39.66-3.84,22.54,3.26,55.5,1.4,79.97,5.12.62-2.06,2.25-3.28,3.2-5.12.21-.4-.08-2.33,0-3.84.54-10.77-22.63-1.67,0-17.91,94.43,4.41,188.98,7.01,283.41,11.52v-2.56c-47.48-9.5-95.74-9.14-143.95-11.52-13.15-5.87,4.22-.65,2.56-7.68,71.22,2.49,142.43,5.86,213.68,7.68Z" style="fill:#031822; stroke-width:0px;"/><path d="m934.11,670.45c31.89-.94,113.55,5.46,156.74,6.4,73.13,1.59,146.31,2.2,219.44,3.84-.04,5.12.04,10.24,0,15.35-71.25-1.82-142.45-5.19-213.68-7.68-21.54-.75-43.22-.77-64.62-3.84q-83.81-1.28-167.62-2.56l-4.48-2.56c.2-.05-1.08-.3,3.84-1.28,8.17-1.62,61.06-7.4,70.37-7.68Z" style="fill:#2f1838; stroke-width:0px;"/><path d="m1094.05,696.04c48.21,2.38,96.47,2.02,143.95,11.52v2.56c-94.44-4.5-188.98-7.1-283.41-11.52-22.82-1.07-87.02-2.69-95.32-3.84-6.36-.88-10.27-.81-6.4-7.68,80.34,3.81,160.86,4.99,241.19,8.96Z" style="fill:#2f1838; stroke-width:0px;"/><path d="m945.63,712.67l8.96,7.68c-.95,1.84-2.57,3.05-3.2,5.12-24.47-3.72-57.43-1.86-79.97-5.12-11.87-1.72-5.7-10.98-4.48-11.52,3.6-1.59,68.92,2.76,78.69,3.84Z" style="fill:#9a38d7; stroke-width:0px;"/><path d="m859.9,679.41l4.48,2.56q83.81,1.28,167.62,2.56c21.4,3.06,43.07,3.09,64.62,3.84,1.66,7.02-15.71,1.81-2.56,7.68-80.32-3.97-160.85-5.15-241.19-8.96-3.87,6.86.04,6.8,6.4,7.68,8.3,1.15,72.5,2.77,95.32,3.84-22.63,16.24.54,7.14,0,17.91.66-3.65-5.77-3.49-8.96-3.84-9.77-1.08-75.09-5.43-78.69-3.84-1.22.54-7.39,9.8,4.48,11.52.76,7.99-26.92,8.16-39.66,3.84.15-.51-.16-2.91,2.56-10.24,1.18-3.19,2.44-5.89,3.84-8.96,1.63-3.58,2.99-6.89,5.12-10.24,3.37-5.29,6.08-11.08,10.88-15.35,1.8-.27,4.31.4,5.76,0Z" style="fill:#1f283a; stroke-width:0px;"/><path d="m954.59,716.51c-.08,1.51.21,3.43,0,3.84l-8.96-7.68c3.18.35,9.61.19,8.96,3.84Z" style="fill:#975fe8; stroke-width:0px;"/><path d="m859.26,707.55c9.33-.1,2.3,13.79-6.4,8.96-1.44-.8,3.06-8.92,6.4-8.96Z" style="fill:#9a38d7; stroke-width:0px;"/><path d="m850.95,711.39c-.42,9.2-9.41,6.22-7.68,0h7.68Z" style="fill:#6f26b1; stroke-width:0px;"/><path d="m850.95,711.39h-7.68c1.04-3.75,7.89-4.74,7.68,0Z" style="fill:#bf84fe; stroke-width:0px;"/></svg>