<?xml version="1.0" encoding="UTF-8"?><svg id="Layer_1" xmlns="http://www.w3.org/2000/svg" xmlns:xlink="http://www.w3.org/1999/xlink" viewBox="0 0 1316.8 751.79"><defs><linearGradient id="linear-gradient" x1="659.15" y1="5.7" x2="657.75" y2="604.56" gradientTransform="translate(-.33 1.1) scale(1 1.13)" gradientUnits="userSpaceOnUse"><stop offset="0" stop-color="#133551"/><stop offset=".3" stop-color="#2b547a"/><stop offset=".39" stop-color="#4e5785"/><stop offset=".66" stop-color="#ab5693"/><stop offset=".94" stop-color="#ec89a5"/></linearGradient><linearGradient id="linear-gradient-2" x1="659.06" y1="6.68" x2="657.67" y2="605.53" gradientTransform="matrix(1,0,0,1,0,0)" xlink:href="#linear-gradient"/></defs><g id="Background"><rect width="1316.8" height="751.79" style="fill:url(#linear-gradient); stroke-width:0px;"/><path d="m.55,559.02C.21,372.68.81,186.34.55,0h1315.95c-.14,158.5.18,316.99,0,475.49-1.28-.2-4.61.6-5.14-.64-2.51-5.92,6.05-45.4-9-50.12,2.16-38.12-7.63-37.08-7.07.64l-43.05,3.21c2.44,30.95-5.75,20.29-7.71,23.13-3.1,4.5,2.74,104.44,0,109.23-.85,1.48-4.29-.2-5.14,1.29-1.12,1.95.84,38.23,0,44.98-2.18,3.12-5.71,1.65-9,1.93-17.94,1.5-9.17-6.89-12.21-9-.53-.37-12.27-.27-12.85,0-2.5,1.18-.33,3.26-4.5,7.71-.59.63-2.45-3.48-5.78,7.71-12.68-2.61.84,17.45-10.92,15.42-6.54,1.13-2.14-14.69-17.35-9-.62.23-7.43,9.01-8.35,10.28q-1.61-11.57-3.21-23.13l-23.77,1.29c-.1-.53-5.16,1.67-3.86-8.35-1.21-.75-3.74-1.74-3.86-1.93-2-11.35,2.62-86.9,0-90.6-3.33-4.7-8.6,7.83-10.28-9.64-.8-8.29,1.08-21.1,0-27.63-.24-1.48-3.75-2.03-3.86-2.57-.61-3.29.65-8.41,0-11.57-.12-.59-3.46-.96-3.86-2.57-1.16-4.76-2.03-25.74-2.57-26.99-.68-1.57-9.36-3-10.28-5.14-.8-1.86,1.09-8.41-.64-9.64-.47-.33-11.09-.33-11.57,0-1.71,1.21.12,8.31-.64,9.64-.28.48-8.65,5.42-9,6.43-.43,1.25-3.06,20.33-3.86,24.42-7.36,3.77-4.86,7.18-5.14,14.78-14.38,2.77,5.45,48.45-9,53.33v102.17c-2.3.27-4.75-.18-7.07,0-.28,10.08-3.1,7.24-3.21,7.71l-6.43-.64c.12-68.51-6.05-137.01-3.86-205.62q-10.92-1.29-21.85-2.57v-69.4c-9.78-.87-.51-20.08-13.49-23.77-4.48-1.28-26.83.93-35.98,0-1.69,31.76-11.06,14.66-14.78,19.92-2.08,2.94,2.02,67.37,0,71.97-1.62,3.68-8.99.72-10.28,2.57-1.47,2.11,1.47,48.28,0,51.4-1.44,3.06-5.59,1.19-6.43,2.57-1.91,3.16.33,63.81,0,73.89-.01.43.01.86,0,1.29-.33,9.6-.62,18.66-1.29,28.27,2.62-6.32-25.51-6.53-26.99-3.21.95,12.29-1.29,29.16,0,40.48-3.43-.02-6.85.02-10.28,0,7.77-9.44,1.59-32.69,5.14-53.33-12.14-9.54-5.97-22.08-8.35-23.77-.45-.32-10.23-.28-10.92.64-1.24,1.65,4.67,15.1-16.71,34.7.51,12.04-1.49,25.73,2.57,36.63-3.71,10.19-4.36-.82-9,11.57q-.64-20.24-1.29-40.48c-3.27-.63-21.57-1.29-22.49-.64-.83.59-2.95,17.26,3.21,17.99-1.56-.22-3.94-.44-3.86,1.29-1.87.31-4.35-.09-6.43,0-3.2-10.13-.39-72.11-2.57-75.18-.57-.8-15.41-1.11-16.06-.64-3.93,2.79-.57,44.99-1.93,46.91-1.66,2.34-9.67-2.99-7.71,6.43-15.11,3.39-5.21,22.28-5.14,23.77.24,4.9-.17,9.87,0,14.78-.34,1.2-2.52,1.78-2.57,1.93q-7.07-.64-14.14-1.29c-.72-12.25,1.26-34.87,0-41.77-.23-1.25-3.49-.01-3.86-1.29-.7-2.45.73-8.19,0-10.28-.79-2.25-3.75-1.74-3.86-1.93-.1-.19-2.01.54-2.57-.64-1.84-3.89.55-73.67,0-86.1-.02-.52-2.54-2.05-2.57-2.57-.42-8.35,2.15-45.46-2.57-48.19-1.02-.59-5.33.9-6.43-.64-.91-1.29-1.19-27.3-1.29-31.49,0-.43,0-.86,0-1.29-.21-10.81,3.91-64.45,1.29-70.04-1.44-3.06-5.59-1.19-6.43-2.57-.81-1.34,1.11-9.68-.64-10.92-1.14-.81-10.96,1.12-12.21-.64-1.03-1.45,1.08-21.94,0-24.42-1.54-3.52-7.79-.84-9-2.57-2.65-3.82,5.45-75.39-5.78-66.18-2.7,2.21,1.26,63.48-.64,66.18-1.49,2.12-12.37-1.43-14.14,2.57-1.16,2.63,1.17,21.73,0,24.42-1.61,3.71-8.67.15-10.28,3.86-1.41,3.24,1.06,59.7,0,70.68-3.02-16.87,1.55-88.37-6.43-69.4-2.16,5.12-.19,97.04,0,111.16-2.09.37-7.97-.81-9,.64-4.31,6.08,4.43,142.31,1.29,149.07-.34.72-15.61,6.73-5.78,10.92,2.3.98,5.27-7.75,4.5,4.5-14.55-9.94,2.03,13.83-12.85,21.2,0-.16-3.1.85-2.57-1.93,8.79-1.92,7.29-25.76,6.43-26.99-1.31-1.86-7.54,2.12-8.35-5.78-5.06-1.4-20.15,1.41-21.2,1.29-.52-.06-3.42-1.57-7.71-1.93,1.48-31.33-2.56-19.93-7.07-22.49-5.84-3.32,8.82-11.58-25.06-9-4.12-10.47.92-11-11.57-12.85.53-11.95,2.99-99.23,0-103.45-.75-1.05-5.68-1.05-6.43,0-3.66,5.16,3.49,94.06-1.29,126.58-.03.2-3.42-.57-3.86.64-1.22,3.38.89,29.37,0,37.91-.16.19-1.2,1.25-1.29,1.29-13.35,5.1-9.92-7.47-10.28-15.42-.61-13.44.45-27.03,0-40.48-14.05,3.17-.78-41.28-9-44.34q-23.13.32-46.26.64c-2.35,19.27,2.16,43.29-6.43,41.12,3.67,45.42-9.22,24.73-12.85,32.13-.99,2.02,2.77,23.01,1.29,44.98-.03.45-2.19.86-2.57,4.5-.09.84.11,1.74,0,2.57-10.92,11.06-4.55-14.7-6.43-17.35-3.08-4.36-9.96,9.7-12.21-17.35-18.28,1.57-44.18-4.26-43.69,5.14h-21.2c.2-.74,9.4-9.54,1.93-12.85-1.53-.68-32.05-.96-33.41,0-6.38,4.51,14.55,24.69-23.77,21.2-.5,35.53.48,21.73,9,19.92-2.03,4.26-1.46,10.6-1.29,15.42-10.68,5.05-9.45-2.87-11.57-10.28-7.49-26.26,5.05-55.67-12.21-47.55-3.06,1.44-1.19,5.59-2.57,6.43-1.05.63-6.83-.62-7.71,0-1.65,1.17-1.35,13.96-1.93,14.78-.95,1.34-4.74.38-6.43.64-.22-6.48,1.4-48.67-.64-50.12-.39-.28-8.97-.3-9.64.64-1.43,2.02,1.08,42.77,0,49.48h-12.85c.95-18.86,5.83-19.78-17.99-17.35v54.62c-2.93.33-6.04-.23-9,0-.44-12.93-2.52-12.2-2.57-12.85-1-13.72,2.88-24.08-3.86-23.77-.78-2.39,2.6-1.75,2.57-2.57-.88-24.83,1.82-81.97,0-94.46-1.51-10.35-6.1-9.92-7.71-1.29-2.36,12.62,2.26,72.07,0,80.32-.65,2.38-7.3-2.46-5.14,18.63-.38-.12-.88.1-1.29,0-1.77-.46-35.13-2.34-36.63-1.29-2.15,1.52,1.72,10.02-3.21,9-.14-15.53-2.55-31.29-1.29-46.91-2.21-3.21-6.36-1.59-10.28-1.93-12.16-1.04-25.59.77-37.91,0-4.63,2.05-.14,29.5-1.93,34.06-1.05,2.67-4.75,1.65-5.14,1.93,1.82-22.07-3.72-18.2-3.86-19.28-1.07-8.4,1.47-48.69,0-50.76l-26.34-.64q-.32,26.34-.64,52.69c-8.05.24-11.73-3.16-14.14.64,3.32,37.16-11.42-12.23-14.78,12.21-10.37-5.4-7.13,22.99-7.07,46.26.04,14.85,6.07,28.54-5.14,25.7-1.61-5.37-3.57-10.03-5.14-15.42,5.71-2.11,4.6-51.07,3.86-54.62-.18-.86-8.51-8.21-8.35-14.78-36.16-4.89-12.6,16.98-43.69,12.85-.19,7.24-3.13,6.56-3.21,7.71h-1.29c-.87-8.81,1.17-42.94,0-45.62-3.99-9.13-11.63,12.81-19.28,5.78Z" style="fill:url(#linear-gradient-2); stroke-width:0px;"/><path d="m749.77,394.53c-4.67-5.6-6.48,2.08,0,1.29.09,4.19.37,30.2,1.29,31.49,1.09,1.54,5.4.05,6.43.64-.05,7.27,1.33,7.51-2.57,11.57-2.82,1.78-9.35-3.57-6.43,2.57-4.66.38-3.47-1.46-7.71-1.29v19.28c5.14-1.04,2.65,3.48,7.71,3.86,3.04.23,4.62-2.04,6.43-3.86.11.17,2.27-.49,2.57.64,4.69,17.99.4,100.57,2.57,105.38.45.99,5.08,1.4,5.14-.64.1.19,3.07-.33,3.86,1.93.73,2.09-.7,7.83,0,10.28.36,1.27,3.63.03,3.86,1.29,1.26,6.89-.72,29.51,0,41.77.69,11.66,2.39,23.13,3.86,34.7-1.37,6.9-5.98,47.45,8.35,37.27,1.52-1.08.67-32.51.64-37.27-.09-13.05,1.91-24.52-3.86-25.06.75-1.43,4.98-7.89,5.14-8.35.05-.15,2.23-.73,2.57-1.93-.17-4.91.24-9.87,0-14.78,10.93-2.66,22.34-.82,33.41-1.29,2.08-.09,4.56.31,6.43,0,1.86-.31,3.91.78,3.86-1.29,11.56,1.59,7.07,4.32,7.71,28.27.31,11.76-.23,23.57,0,35.34,3.81,8.6,26.48-12.31,22.49,21.2h32.13c1.93-1.37-.34-21.1.64-22.49,4.07-5.77,21.17,14.23,16.71-26.34.59.04,8.98-2.14,11.57-1.93,1.52-2.15-1.16-43.7,0-52.69.17-1.32,3.7.38,3.86-1.93.66-9.62.96-18.67,1.29-28.27q11.57-.32,23.13-.64-11.57-.32-23.13-.64c.33-10.08-1.91-70.73,0-73.89.83-1.38,4.98.49,6.43-2.57,1.47-3.12-1.47-49.3,0-51.4,1.29-1.85,8.66,1.11,10.28-2.57,2.02-4.59-2.08-69.03,0-71.97,3.72-5.26,13.09,11.84,14.78-19.92,9.15.93,31.5-1.28,35.98,0,12.98,3.7,3.71,22.91,13.49,23.77v69.4q10.92,1.29,21.85,2.57c-2.2,68.6,3.97,137.11,3.86,205.62l6.43.64c-1.73,7.02.81,40.68.64,51.4,18.65,2.8,31-5.24,48.83-3.86l.64-27.63c.75-1.72,9.27-2.89,11.57-3.21.45-.06,1.36,2.9,9,.64.25-11.67,1.7-14.26-7.71-21.85,18.19-.31,5.03-19.06,25.7,5.78,1.39,20.43,3.26,4.9,7.07,16.71,4.7.59,12.89-.83,16.06,0,7.08,1.85,4.39,2.1,5.14,7.71,1.23,9.19-1.62,53.62,0,55.9,12.77.84,25.77,1.09,38.55.64,39.14-1.36,16.51-5.17,23.77-10.28.75-.53,13.06,1.17,14.78-2.57.54-12.36-.73-24.93,0-37.27,0-.13,2.51.42,2.57-.64.33-6.27,1.51-50.53,0-52.69-1.4-2-7.51,1.09-9-1.93,3.29-.27,6.82,1.19,9-1.93.84-6.74-1.12-43.03,0-44.98.85-1.48,4.29.2,5.14-1.29,2.74-4.8-3.1-104.74,0-109.23,1.96-2.84,10.16,7.82,7.71-23.13l43.05-3.21c-.56-37.72,9.22-38.76,7.07-.64,15.05,4.72,6.49,44.2,9,50.12.53,1.24,3.86.45,5.14.64-.04,37.7.09,75.39,0,113.09-6.46-6.36-9.64,3.19-2.57,3.86.22,1.98-1.44,3.8-2.57,5.14-.83.98-1.23,1.21-1.29,1.29-1.56,1.98-3.94,4.07-5.14,6.43-.09.17-2.12-.52-2.57.64-.42,1.08.59,19.65,0,23.13h2.57c.17-3.62-.25-7.31,0-10.92l8.35-3.86c-5.8,5.11-4.12,10.39,3.21,6.43-.01,3.43.01,6.85,0,10.28-5.17.15-5.77,6.26,0,5.14-.11,28.25.54,56.58,0,84.82-5.58-3.94-5.5,5.25,0,1.29-.16,7.16.74,17.31,0,23.13H.55c-1.29-10.18.11-51.18,0-69.4,3.82.43,3.4-2.53,0-3.86-.13-24.42.05-48.84,0-73.25h20.56c-.05.68,2.98-3.71,3.21,11.57,43.6-3.33,24.39,7.91,29.56,11.57,6.21,4.39,18.59-11.87,14.78,23.77.09.42,3.77,1.64,3.86,1.93,1.58,5.39,3.54,10.05,5.14,15.42q-.32,11.57-.64,23.13c40.54,3.92,1.62-14.91,43.05-11.57,2.12.17,9.34-.68,10.28.64.6,4.11-1.06,27.71.64,28.91,8.38,5.94,8.36-7.26,9-7.71,1.21-.85,28.35-.85,29.56,0,1.77,1.25-.17,11.07.64,12.21,1.25,1.77,11.06-.17,12.21.64,1.74,1.23-.46,7.77,1.29,9,.98.69,17.61,2.81,19.92-6.43l20.56-.64c-4.22-48.44,11.11-26,15.42-32.13.78-1.1.43-24.25,0-26.99-.19-1.17-3.81-.45-3.86-.64-2.93-12.78,3.68-11.48,3.86-12.21.56-2.33-.08-6.32,1.29-12.21.3-1.31,4.37-4.25,5.14-25.7.4.1.9-.12,1.29,0,1.33.43,4.31-.76,5.14.64,2.04,3.44-5.56,15.38,9,22.49.05.65,2.13-.08,2.57,12.85.39,11.58,1.51,25.48-4.5,23.13-3.5-1.37-4.05-19.43-3.21,10.28.13,4.72-.04,40.52,1.93,41.12,38.4,4.12,5.01-15.27,30.2-16.71,4.66-.27,13.86,1.88,19.28,1.29.05.39,1.36-.52,1.93,7.71,4.8.56,24.61-.75,25.7,0,2.69,1.85-7.01,10.11,20.56,7.71,4.64-2.06.78-48.3.64-55.26-.13-6.76.25-13.66,0-20.56-.18-4.82-.75-11.16,1.29-15.42,3.12-.66,13.72.75,14.78,0,1.77-1.25-.17-11.07.64-12.21,1.18-1.66,6.94.08,8.35-.64,4.91-2.51-6.11-10.05,19.92-7.71,0,.52,2.08,7.59,1.93,10.28,8.09.38,16.34-.53,24.42,0,1.06.07.51,2.56.64,2.57-3.15,13.9,11.64,4,14.14,9.64.57,1.29-.19,14.15,0,18.63.7,16.65-1.05,33.48.64,50.12,22.95-.34,24.3,7.7,24.42-12.85,29.68,1.76,2.54-10.18,28.91-11.57,6.34-.33,43.81-.7,44.98,1.93q-.32,26.67-.64,53.33c22.72,7.51,23.73-10.37,38.55-5.14,1.77.62,10.4,17.32,16.71,12.85,2.08-1.48-.54-21.09.64-23.77,1.62-3.68,8.99-.72,10.28-2.57.83-1.19-4.02-24.4,14.78-16.06,4.08,1.81.39,13.89,2.57,15.42.55.39,12.88.22,13.49-.64,1.38-1.95-1.51-37.2,0-42.41.67-2.31,2.71-.55,5.14-1.93,3.47-1.97,6.25,6.54,5.14-19.92,2.36-3.35,8.91-1.54,15.42-1.93,1.93-.11,5.54.26,10.28,0,.43-.02.86.03,1.29,0,3.82-.28,7.74.2,11.57,0l2.57-1.93c-.62-67.46-1.72-134.95-2.57-202.4-.08-6.59-1.28-4.88-1.29-5.14-.19-14.12-2.16-106.04,0-111.16,7.98-18.97,3.41,52.52,6.43,69.4,1.06-10.98-1.41-67.44,0-70.68,1.61-3.71,8.67-.15,10.28-3.86,1.17-2.69-1.16-21.79,0-24.42,1.77-4,12.65-.45,14.14-2.57,1.9-2.71-2.05-63.97.64-66.18,11.23-9.2,3.13,62.36,5.78,66.18,1.2,1.73,7.45-.95,9,2.57,1.08,2.47-1.03,22.97,0,24.42,1.25,1.77,11.07-.17,12.21.64,1.75,1.24-.16,9.59.64,10.92.83,1.38,4.98-.49,6.43,2.57,2.63,5.59-1.49,59.23-1.29,70.04Z" style="fill:#233a63; stroke-width:0px;"/><path d="m1316.5,745.36c-.26,2.08.18,4.32,0,6.43H.55c-.18-2.11.26-4.34,0-6.43h1315.95Z" style="fill:#162437; stroke-width:0px;"/><path d="m19.83,598.86H.55c-.03-13.28.02-26.56,0-39.84,7.65,7.03,15.29-14.91,19.28-5.78,1.17,2.68-.87,36.81,0,45.62Z" style="fill:#bf709d; stroke-width:0px;"/><path d="m1316.5,592.43c-.02,9.42.03,18.85,0,28.27-7.33,3.97-9.02-1.31-3.21-6.43l-8.35,3.86c.29-4.25.71-8.59,0-12.85,1.2-2.36,3.58-4.45,5.14-6.43-.51,11.61,8.66,5.02,1.29-1.29,1.13-1.34,2.79-3.17,2.57-5.14.84.08,1.72-.04,2.57,0Z" style="fill:#403e6b; stroke-width:0px;"/><path d="m1316.5,588.58c0,1.29,0,2.57,0,3.86-.85-.04-1.73.08-2.57,0-7.07-.66-3.89-10.22,2.57-3.86Z" style="fill:#a97894; stroke-width:0px;"/><path d="m1316.5,630.99c0,1.71,0,3.43,0,5.14-5.77,1.12-5.17-4.99,0-5.14Z" style="fill:#9c7b9d; stroke-width:0px;"/><path d="m1316.5,720.95c0,.43,0,.86,0,1.29-5.5,3.97-5.58-5.23,0-1.29Z" style="fill:#5ea5ce; stroke-width:0px;"/><path d="m.55,675.97c0-1.29,0-2.57,0-3.86,3.4,1.33,3.82,4.28,0,3.86Z" style="fill:#5ea5ce; stroke-width:0px;"/><path d="m554.43,496.05c-.3,13.91.41,27.87,0,41.77-.03,1.02-2.47-.07-2.57,1.93-.52,10.57,6.25,35.16-3.86,35.34-1.07,1.81,3.31,2.5,0,8.35-7.11-.27-7.99,4.76-10.28-3.86,1.65-.49,5.3.85,6.43-.64,9.46-12.46-13.01,2.45-14.14,3.21-1.03.69-.6,3.8-9,4.5-1.09,2.42,4.8,3.29,5.14,3.21,1.51,4.86,1.19,9.23,1.29,14.14.03,1.71-.01,3.43,0,5.14.03,4.01-1.16,24.91.64,25.7,8.37,3.66,16.96-8.88,19.28,11.57,6.66-6.79,16.65-2.9,25.7-3.86q.32-23.13.64-46.26c.08-.03,1.12-1.1,1.29-1.29,2.52-2.99.48-5.35,1.29-7.07,1.23-2.65,5.16.37,7.71-1.93,4.81-4.33,26.39-25.73,9.64-21.85-7.52-16.83,6.42-9.44,4.5-17.99,33.88-2.58,19.22,5.68,25.06,9,4.51,2.56,8.55-8.84,7.07,22.49,4.29.36,7.19,1.87,7.71,1.93,1.62,18.55-4.34,46.11,5.14,45.62v32.77c-2.43,1.38-4.47-.39-5.14,1.93-1.51,5.21,1.38,40.46,0,42.41-.61.86-12.94,1.03-13.49.64-2.18-1.54,1.51-13.61-2.57-15.42-18.8-8.33-13.95,14.88-14.78,16.06-1.29,1.85-8.66-1.11-10.28,2.57-1.18,2.68,1.44,22.3-.64,23.77-6.31,4.47-14.94-12.23-16.71-12.85-14.82-5.23-15.84,12.65-38.55,5.14q.32-26.67.64-53.33c-1.17-2.63-38.64-2.26-44.98-1.93-2-26.19,6.19-60.1-9-47.55.38-3.64,2.54-4.05,2.57-4.5,1.48-21.97-2.28-42.96-1.29-44.98,3.63-7.39,16.52,13.3,12.85-32.13,8.59,2.17,4.07-21.85,6.43-41.12q23.13-.32,46.26-.64Z" style="fill:#233a63; stroke-width:0px;"/><path d="m891.13,619.42c3.43.02,6.85-.02,10.28,0,.11.96,3.87-4.27,2.57,17.35,5.77.4,8.54,1.9,9,1.93,4.46,40.58-12.63,20.57-16.71,26.34-.98,1.39,1.28,21.12-.64,22.49h-32.13c3.99-33.52-18.68-12.61-22.49-21.2-.23-11.77.31-23.58,0-35.34,17.22.85,11.32-1.06,12.85-5.14,4.64-12.39,5.29-1.37,9-11.57,19.75-1.62,10.27,5.03,28.27,5.14Z" style="fill:#654f80; stroke-width:0px;"/><path d="m1113.45,499.91c-6.61,5.34-4.76,14.53-5.14,21.85-5.09-.42-2.92,4.95-11.57.64.92-66.3-2.07-66.36-1.29,1.29-19.42,7.37-11.25-10.34-12.85-37.27-.77,3.85-4.05,16.67-8.35,17.35-13.09,2.06,2.2-37.47-12.21-34.7.28-7.6-2.22-11,5.14-14.78.79-4.09,3.43-23.16,3.86-24.42.34-1.01,8.72-5.95,9-6.43.76-1.33-1.07-8.43.64-9.64.47-.33,11.09-.33,11.57,0,1.73,1.23-.16,7.78.64,9.64.92,2.14,9.6,3.57,10.28,5.14.54,1.24,1.41,22.22,2.57,26.99.39,1.61,3.73,1.98,3.86,2.57.65,3.16-.61,8.27,0,11.57.1.54,3.61,1.09,3.86,2.57,1.08,6.53-.8,19.34,0,27.63Z" style="fill:#403e6b; stroke-width:0px;"/><path d="m1108.31,521.75c-.91,17.28,2.34,39.39-5.78,37.27-2.49-.65-3.49-8.45-4.5-9.64-8.56-10.16.5,15.93-14.14,12.21-.29-9.77.3-19.2-1.29-28.91h-2.57c-1.69,7.24.59,62.85-1.93,64.9-10.78,8.74-7.76-18.24-9-19.28-5.84.33-2.44,9.45-16.06,5.14v-61.04c14.45-4.88-5.39-50.56,9-53.33,14.41-2.77-.89,36.76,12.21,34.7,4.31-.68,7.59-13.5,8.35-17.35,1.6,26.93-6.57,44.63,12.85,37.27-.79-67.64,2.2-67.59,1.29-1.29,8.65,4.3,6.48-1.06,11.57-.64Z" style="fill:#654f80; stroke-width:0px;"/><path d="m303.84,600.15c3.26-.35,7.15.5,10.28,0,.34,9.91.35,21.09,1.29,30.84.19,1.98-.68,8.06.64,9,17.61-1.46,23.15,2.65,21.2,20.56-1.64.46-5.37-.82-6.43.64-2.3,3.2,8.48,10.54-21.2,8.35-4.21,3.17-.57,6.22-.64,9h-20.56c-.12-.47-2.93,2.37-3.21-7.71h-28.91c-.83-29.71-.29-11.65,3.21-10.28,6.01,2.35,4.89-11.55,4.5-23.13,2.96-.23,6.06.33,9,0,2.75-.31,5.69,1.11,7.71-1.93.77-31.38,2.94,14.86,9,0,.67-1.64,1.01-29.83,1.29-35.34h12.85Z" style="fill:#654f80; stroke-width:0px;"/><path d="m1083.9,561.59c.15,5.04-1.03,39.93.64,41.12,9.93,7.06,5.39-16.24,7.71-17.99,9.83-7.44,5.77,19.25,9,19.28,8.56.08.44-12.34,9-14.14,6.42,8.83,10.82,3.33,11.57,3.86.98.69.68,4.4,1.93,6.43.11.18,2.64,1.18,3.86,1.93-1.31,10.02,3.75,7.83,3.86,8.35.89,4.5-.49,15.9,0,23.13-20.68-24.85-7.51-6.09-25.7-5.78,9.41,7.58,7.96,10.18,7.71,21.85-7.63,2.26-8.55-.7-9-.64,3.22-20.49-10.56-12.07-13.49-14.14-1.88-1.32,9.9-15.86-37.91-10.28v-41.12c13.62,4.31,10.22-4.81,16.06-5.14,1.23,1.04-1.78,28.01,9,19.28,2.52-2.04.24-57.66,1.93-64.9h2.57c1.58,9.72,1,19.15,1.29,28.91Z" style="fill:#7e5b8b; stroke-width:0px;"/><path d="m1053.05,624.56c47.81-5.58,36.03,8.96,37.91,10.28,2.94,2.06,16.72-6.35,13.49,14.14-2.3.32-10.81,1.5-11.57,3.21l-.64,27.63c-17.83-1.39-30.19,6.65-48.83,3.86.16-10.72-2.37-44.38-.64-51.4.12-.47,2.93,2.37,3.21-7.71,2.32-.18,4.77.27,7.07,0Z" style="fill:#654f80; stroke-width:0px;"/><path d="m118.78,578.3c8.89-.27,18.29,1.26,26.99-1.29.14,1.07,5.68-2.79,3.86,19.28-1.7,1.2-5.04-4.5-3.86,14.14-7.21.22-24.23-1.4-25.7,1.93,1.15,9.65-.99,19.4-1.29,28.91-2.19-.18-5.49.29-5.78,0-2.39-2.36,6.66-17.7-30.2-3.86-.06-23.27-3.3-51.67,7.07-46.26,3.36-24.44,18.1,24.95,14.78-12.21,2.41-3.8,6.09-.4,14.14-.64Z" style="fill:#7e5b8b; stroke-width:0px;"/><path d="m496.6,666.97c-26.38,1.38.76,13.32-28.91,11.57-.12,20.55-1.47,12.51-24.42,12.85-1.69-16.64.06-33.47-.64-50.12,2.51-1.16,13.24-11.38,14.14-11.57,1.16-.25,22.72.73,23.77,1.29.56.29-1.71,8.92,6.43,5.14,4.63-2.15.55-13.43.64-14.14.11-.83-.09-1.73,0-2.57,15.18-12.56,7,21.36,9,47.55Z" style="fill:#403e6b; stroke-width:0px;"/><path d="m194.6,560.31q.64,40.48,1.29,80.96c-.84-.06-4.28,3.64-7.71-.64-3.04-6.45,9-22.7-15.42-19.92,2.95-16.13-8.58-8.5-16.71-9-3.32-.2-6.51-1.4-10.28-1.29-1.18-18.63,2.16-12.94,3.86-14.14.39-.28,4.09.75,5.14-1.93,1.79-4.56-2.7-32,1.93-34.06,12.32.77,25.75-1.04,37.91,0Z" style="fill:#654f80; stroke-width:0px;"/><path d="m563.43,580.87c.36,7.95-3.07,20.52,10.28,15.42q-.32,23.13-.64,46.26c-9.06.96-19.04-2.94-25.7,3.86-2.32-20.44-10.9-7.9-19.28-11.57-1.8-.79-.61-21.69-.64-25.7,8.37,4.59,7.58-3.54,8.35-3.86,24.6,3.77,8.62-.15,9.64-1.93,1.41-2.46,6.76,5.27,6.43-13.49,2.26-2.42,1.81,17.02,1.29,19.92-.05.27-5.32,2.05-3.86,3.86,9.98,12.29,7.08-21.89,9-25.7-8.06-2.61-6.01,1.86-6.43,1.93-3.48.56-8.82.22-9,.64,6.87,20.32-3.48,9.46-4.5,9.64-1.63.28-1.16,6.95-10.92,3.86-.09-4.9.22-9.28-1.29-14.14,3.78-.83,11.27-7.85,3.86-7.71,1.13-.76,23.6-15.67,14.14-3.21-1.13,1.49-4.78.15-6.43.64-.73.22-2.13-.58-3.86,1.93,4.39,9.46,1.18,3.75,14.78,4.5,1.61-.6-1.12-1.73-.64-2.57,3.31-5.85-1.07-6.54,0-8.35,10.11-.18,3.34-24.77,3.86-35.34,7.35,5.16-2.81,39.94,5.78,42.41,1.35.39,2.65-2.03,5.78-1.29Z" style="fill:#654f80; stroke-width:0px;"/><path d="m1113.45,499.91c1.68,17.47,6.95,4.93,10.28,9.64,2.62,3.7-2,79.25,0,90.6-1.24-2.02-.94-5.74-1.93-6.43-.74-.52-5.15,4.98-11.57-3.86-8.55,1.8-.43,14.22-9,14.14-3.22-.03.83-26.71-9-19.28-2.32,1.75,2.22,25.05-7.71,17.99-1.68-1.19-.49-36.09-.64-41.12,14.64,3.72,5.58-22.37,14.14-12.21,1,1.19,2,8.99,4.5,9.64,8.12,2.13,4.88-19.99,5.78-37.27.38-7.32-1.47-16.51,5.14-21.85Z" style="fill:#654f80; stroke-width:0px;"/><path d="m487.61,621.99c-.09.7,3.98,11.99-.64,14.14-8.13,3.78-5.87-4.85-6.43-5.14-1.06-.55-22.61-1.53-23.77-1.29,4.21-28.15-11.48-15.59-28.27-16.71-.13,0,.42-2.5-.64-2.57-8.07-.53-16.32.38-24.42,0,.16-2.69-1.93-9.76-1.93-10.28,0-.5,1.95-5.42,2.57-7.71h21.2c-.49-9.4,25.41-3.57,43.69-5.14,2.25,27.05,9.13,12.99,12.21,17.35,1.87,2.65-4.5,28.41,6.43,17.35Z" style="fill:#654f80; stroke-width:0px;"/><path d="m891.13,619.42c-18-.11-8.52-6.76-28.27-5.14-4.06-10.9-2.06-24.59-2.57-36.63,21.38-19.6,15.47-33.05,16.71-34.7.69-.92,10.48-.96,10.92-.64,2.38,1.69-3.78,14.24,8.35,23.77-3.55,20.64,2.63,43.89-5.14,53.33Z" style="fill:#bf709d; stroke-width:0px;"/><path d="m1230.4,609.14c1.48,3.01,7.6-.07,9,1.93,1.51,2.16.33,46.42,0,52.69-.06,1.06-2.56.51-2.57.64l-5.14-1.29c-.05-1.07-.93-11.21-1.93-11.57l-28.91-1.29c.65-14.08-.48-28.31,0-42.41,4.17-4.45,2-6.53,4.5-7.71.58-.27,12.32-.37,12.85,0,3.03,2.11-5.73,10.49,12.21,9Z" style="fill:#654f80; stroke-width:0px;"/><path d="m72.52,647.69c-.08-.29-3.76-1.5-3.86-1.93,3.81-35.65-8.57-19.38-14.78-23.77-5.16-3.65,14.04-14.89-29.56-11.57-.23-15.28-3.26-10.89-3.21-11.57.08-1.15,3.02-.47,3.21-7.71,31.09,4.13,7.54-17.74,43.69-12.85-.16,6.57,8.17,13.91,8.35,14.78.74,3.55,1.85,52.51-3.86,54.62Z" style="fill:#bf709d; stroke-width:0px;"/><path d="m823.02,604c-11.07.46-22.49-1.38-33.41,1.29-.07-1.49-9.97-20.38,5.14-23.77-1.96-9.42,6.06-4.09,7.71-6.43,1.36-1.92-2-44.12,1.93-46.91.66-.47,15.5-.16,16.06.64,2.18,3.07-.63,65.05,2.57,75.18Z" style="fill:#bf709d; stroke-width:0px;"/><path d="m118.78,641.27c-.34,10.83,2.36,22.48,1.29,33.41-41.43-3.34-2.51,15.49-43.05,11.57q.32-11.57.64-23.13c11.21,2.84,5.18-10.85,5.14-25.7,36.86-13.85,27.81,1.5,30.2,3.86.29.29,3.6-.18,5.78,0Z" style="fill:#654f80; stroke-width:0px;"/><path d="m663.67,613c0,7.71,0,15.42,0,23.13-6.51.39-13.06-1.42-15.42,1.93,1.11,26.46-1.67,17.95-5.14,19.92v-32.77c-9.48.49-3.52-27.07-5.14-45.62,1.06.12,16.14-2.68,21.2-1.29.82,7.9,7.04,3.93,8.35,5.78.87,1.23,2.36,25.07-6.43,26.99-.53,2.77,2.57,1.77,2.57,1.93Z" style="fill:#bf709d; stroke-width:0px;"/><path d="m145.77,577.01c-8.7,2.55-18.1,1.01-26.99,1.29q.32-26.34.64-52.69l26.34.64c1.47,2.07-1.07,42.36,0,50.76Z" style="fill:#bf709d; stroke-width:0px;"/><path d="m928.4,582.15c-.16,2.31-3.68.61-3.86,1.93-1.16,8.98,1.52,50.54,0,52.69-2.59-.21-10.98,1.96-11.57,1.93-.46-.03-3.22-1.53-9-1.93,1.3-21.62-2.46-16.39-2.57-17.35-1.29-11.32.95-28.19,0-40.48,1.47-3.32,29.61-3.11,26.99,3.21Z" style="fill:#bf709d; stroke-width:0px;"/><path d="m404.07,592.43c-.62,2.29-2.57,7.21-2.57,7.71-26.03-2.34-15.01,5.2-19.92,7.71-1.41.72-7.17-1.02-8.35.64-.81,1.14,1.12,10.96-.64,12.21-1.06.75-11.66-.66-14.78,0-8.52,1.81-9.5,15.61-9-19.92,38.33,3.49,17.39-16.69,23.77-21.2,1.36-.96,31.88-.68,33.41,0,7.48,3.31-1.73,12.11-1.93,12.85Z" style="fill:#bf709d; stroke-width:0px;"/><path d="m344.96,625.85c-18.91-2.86-12.16,7.87-29.56,5.14-.94-9.76-.95-20.93-1.29-30.84,1.68-.27,5.47.7,6.43-.64.58-.82.27-13.61,1.93-14.78.88-.62,6.66.63,7.71,0,1.38-.83-.49-4.98,2.57-6.43,17.25-8.12,4.72,21.29,12.21,47.55Z" style="fill:#bf709d; stroke-width:0px;"/><path d="m260.14,503.76c1.82,12.49-.88,69.62,0,94.46.03.82-3.35.18-2.57,2.57,6.73-.3,2.86,10.06,3.86,23.77-14.56-7.11-6.95-19.05-9-22.49-.83-1.41-3.81-.22-5.14-.64-2.16-21.1,4.49-16.25,5.14-18.63,2.26-8.25-2.36-67.7,0-80.32l7.71,1.29Z" style="fill:#b1649a; stroke-width:0px;"/><path d="m1158.43,632.27c-4.82,6.63-.99,9.33-3.86,17.99-3.17-.83-11.36.59-16.06,0-3.81-11.8-5.68,3.72-7.07-16.71-.49-7.23.89-18.63,0-23.13l23.77-1.29q1.61,11.57,3.21,23.13Z" style="fill:#bf709d; stroke-width:0px;"/><path d="m290.98,600.15c-.28,5.51-.62,33.7-1.29,35.34-6.05,14.86-8.23-31.38-9,0-2.02,3.04-4.96,1.62-7.71,1.93v-54.62c23.82-2.43,18.94-1.51,17.99,17.35Z" style="fill:#bf709d; stroke-width:0px;"/><path d="m1184.13,630.99c.29.99.29,19.57,0,20.56-.11.38-4.14,6.26-4.5,6.43-1.88.85-14.88-.61-19.92,0-.75-5.61,1.94-5.86-5.14-7.71,2.86-8.66-.97-11.36,3.86-17.99.92-1.27,7.73-10.05,8.35-10.28,15.21-5.69,10.81,10.12,17.35,9Z" style="fill:#b1649a; stroke-width:0px;"/><path d="m586.56,533.32c-.63,14.07-.78,25.76-5.14,25.7-.07-.17-1.97-2.46-2.57-2.57,4.77-32.53-2.38-121.42,1.29-126.58.75-1.05,5.68-1.05,6.43,0,2.99,4.22.53,91.5,0,103.45Z" style="fill:#813a73; stroke-width:0px;"/><path d="m344.96,625.85c2.12,7.41.88,15.33,11.57,10.28.25,6.91-.13,13.8,0,20.56-15.95-8.6-9.44,1.39-13.49,3.86-.81.49-4.16-.45-5.78,0,1.94-17.91-3.59-22.02-21.2-20.56-1.33-.94-.45-7.01-.64-9,17.4,2.73,10.65-8,29.56-5.14Z" style="fill:#b1649a; stroke-width:0px;"/><path d="m853.86,625.85c-1.53,4.08,4.36,5.99-12.85,5.14-.64-23.96,3.85-26.68-7.71-28.27-6.16-.73-4.04-17.4-3.21-17.99.92-.65,19.22.02,22.49.64q.64,20.24,1.29,40.48Z" style="fill:#bf709d; stroke-width:0px;"/><path d="m206.17,609.14c.01,1.65,0,3.47,0,5.14-.01,8.75-2.36,19.48-2.57,28.27-8.55.74-7.32-1.26-7.71-1.29q-.64-40.48-1.29-80.96c3.92.34,8.07-1.28,10.28,1.93-1.26,15.62,1.15,31.38,1.29,46.91Z" style="fill:#654f80; stroke-width:0px;"/><path d="m765.19,565.45c-.06,2.04-4.69,1.63-5.14.64-2.17-4.81,2.12-87.39-2.57-105.38-.3-1.13-2.46-.47-2.57-.64-3.31-5.27-11.09-3.18-6.43,3.86-5.06-.38-2.57-4.89-7.71-3.86v-19.28c4.24-.18,3.05,1.67,7.71,1.29,9.34-.76,4.66-.73,6.43-2.57,3.91-4.05,2.52-4.29,2.57-11.57,4.72,2.73,2.15,39.84,2.57,48.19.03.52,2.55,2.05,2.57,2.57.55,12.43-1.84,82.21,0,86.1.56,1.19,2.47.46,2.57.64Z" style="fill:#233a63; stroke-width:0px;"/><path d="m246.01,601.43c-.77,21.45-4.84,24.39-5.14,25.7.97-21.52-17.97-10.16-34.7-12.85,0-1.67.01-3.49,0-5.14,4.94,1.03,1.07-7.48,3.21-9,1.5-1.06,34.85.83,36.63,1.29Z" style="fill:#bf709d; stroke-width:0px;"/><path d="m1200.84,607.86c-.48,14.09.65,28.33,0,42.41-.08,1.7-1.28,1.19-1.29,1.29h-15.42c.29-.99.29-19.57,0-20.56,11.77,2.03-1.75-18.03,10.92-15.42,3.33-11.19,5.19-7.08,5.78-7.71Z" style="fill:#bf709d; stroke-width:0px;"/><path d="m598.12,546.17c1.92,8.56-12.02,1.16-4.5,17.99,16.75-3.89-4.83,17.52-9.64,21.85-3.61-8.46,1.02-18.53-2.57-26.99,4.36.06,4.51-11.64,5.14-25.7,12.49,1.85,7.45,2.38,11.57,12.85Z" style="fill:#b1649a; stroke-width:0px;"/><path d="m314.12,600.15c-3.13.5-7.02-.35-10.28,0,1.08-6.71-1.43-47.46,0-49.48.67-.94,9.24-.92,9.64-.64,2.04,1.45.42,43.64.64,50.12Z" style="fill:#bf709d; stroke-width:0px;"/><path d="m563.43,580.87c-3.13-.75-4.43,1.67-5.78,1.29-8.59-2.47,1.57-37.25-5.78-42.41.1-2,2.54-.91,2.57-1.93.41-13.9-.3-27.86,0-41.77,8.21,3.06-5.05,47.51,9,44.34.45,13.46-.61,27.04,0,40.48Z" style="fill:#403e6b; stroke-width:0px;"/><path d="m787.04,621.99c-.16.46-4.39,6.93-5.14,8.35,5.77.54,3.77,12.01,3.86,25.06h-9c-1.47-11.57-3.17-23.04-3.86-34.7q7.07.64,14.14,1.29Z" style="fill:#b1649a; stroke-width:0px;"/><path d="m578.85,556.45c.6.11,2.5,2.4,2.57,2.57,3.59,8.46-1.04,18.52,2.57,26.99-2.55,2.29-6.48-.72-7.71,1.93-.8,1.72,1.24,4.08-1.29,7.07.89-8.54-1.22-34.53,0-37.91.44-1.21,3.83-.45,3.86-.64Z" style="fill:#654f80; stroke-width:0px;"/><path d="m260.14,503.76l-7.71-1.29c1.61-8.64,6.2-9.07,7.71,1.29Z" style="fill:#8d4b82; stroke-width:0px;"/><path d="m929.68,553.88c.01-.43-.01-.86,0-1.29q11.57.32,23.13.64-11.57.32-23.13.64Z" style="fill:#6f6b95; stroke-width:0px;"/><path d="m833.3,602.72c.06,2.07-1.99.98-3.86,1.29-.08-1.73,2.29-1.5,3.86-1.29Z" style="fill:#bf709d; stroke-width:0px;"/><path d="m145.77,610.43c3.77-.12,6.96,1.08,10.28,1.29.51,2.94-.97,15.57.64,16.71,7.13,5.05,6.09-6.58,16.06-7.71,24.42-2.78,12.38,13.47,15.42,19.92,3.43,4.29,6.87.59,7.71.64.39.03-.84,2.02,7.71,1.29-.01.52,1.53,1.59,1.29,10.28-.31,11.03.25,52.96-1.29,59.11-2.31,9.24-18.94,7.11-19.92,6.43-1.74-1.23.46-7.77-1.29-9-1.15-.81-10.96,1.12-12.21-.64-.81-1.14,1.12-10.96-.64-12.21-1.21-.85-28.35-.85-29.56,0-.63.45-.61,13.65-9,7.71-1.7-1.21-.05-24.81-.64-28.91-.94-1.32-8.16-.47-10.28-.64,1.07-10.94-1.62-22.58-1.29-33.41.3-9.52,2.44-19.26,1.29-28.91,1.48-3.33,18.49-1.7,25.7-1.93Z" style="fill:#403e6b; stroke-width:0px;"/><path d="m1184.13,651.55h15.42c-.89,21.04-2.01,41.9-1.29,62.97-12.78.44-25.78.2-38.55-.64-1.62-2.28,1.23-46.71,0-55.9,5.04-.61,18.04.85,19.92,0,.36-.16,4.39-6.05,4.5-6.43Z" style="fill:#654f80; stroke-width:0px;"/><path d="m356.52,656.69c.14,6.96,4,53.2-.64,55.26-27.57,2.4-17.87-5.86-20.56-7.71-1.1-.75-20.9.56-25.7,0-.57-8.23-1.88-7.32-1.93-7.71-.11-.9,1.18-14.11,1.29-17.99.08-2.78-3.57-5.83.64-9,29.68,2.18,18.91-5.15,21.2-8.35,1.05-1.46,4.78-.19,6.43-.64,1.62-.45,4.97.49,5.78,0,4.05-2.46-2.45-12.45,13.49-3.86Z" style="fill:#654f80; stroke-width:0px;"/><path d="m1231.68,663.12c.34,8.02-6.92,41.46,5.14,38.55-1.72,3.74-14.03,2.05-14.78,2.57-7.27,5.12,15.37,8.92-23.77,10.28-.72-21.07.39-41.93,1.29-62.97,0-.09,1.21.41,1.29-1.29l28.91,1.29c1,.36,1.88,10.49,1.93,11.57Z" style="fill:#403e6b; stroke-width:0px;"/><path d="m203.6,711.95c1.54-6.16.97-48.09,1.29-59.11q15.42-.64,30.84-1.29c.04.19,3.67-.53,3.86.64.43,2.74.78,25.88,0,26.99-4.31,6.12-19.65-16.31-15.42,32.13l-20.56.64Z" style="fill:#654f80; stroke-width:0px;"/><path d="m240.86,627.13c-1.37,5.89-.72,9.88-1.29,12.21-.18.73-6.78-.58-3.86,12.21q-15.42.64-30.84,1.29c.25-8.69-1.3-9.76-1.29-10.28.21-8.8,2.56-19.53,2.57-28.27,16.73,2.69,35.66-8.67,34.7,12.85Z" style="fill:#7e5b8b; stroke-width:0px;"/><path d="m288.41,678.54c.85,3.46-.61,11.83,0,16.71-25.19,1.43,8.2,20.82-30.2,16.71-1.97-.61-1.8-36.4-1.93-41.12h28.91c.28,10.08,3.1,7.24,3.21,7.71Z" style="fill:#654f80; stroke-width:0px;"/><path d="m456.76,629.7c-.89.19-11.62,10.4-14.14,11.57-.19-4.48.57-17.34,0-18.63-2.5-5.64-17.28,4.26-14.14-9.64,16.79,1.11,32.48-11.45,28.27,16.71Z" style="fill:#654f80; stroke-width:0px;"/><path d="m1026.07,497.34c-10.38-1.99-15.4,3.56,0,2.57,1.38-.09,2.2-2.55,3.86-.64-1.11,8.5,2.68,19.94-2.57,25.06-.28-2.9-5.48-.23-10.28,0-1.71.08-3.43-.05-5.14,0,.39-18.54,2.81-27.64-1.29-23.13l.64-2.57c7.14,2.43,3.78-2.2,4.5-2.57,1.77-.91,1.2-1.26,1.29-1.29,4.03-1.38,8.2-1.61,9,2.57Z" style="fill:#233a63; stroke-width:0px;"/><path d="m1295.94,523.04c4.31,11.6,2.04,2.23,5.78,3.86.21.09.82,4.36.64,4.5-2.1,1.57-2.89-1.41-6.43-.64-11.29,2.44-13.31,6.53-17.99,9-3.67.16-5.59-1.34-6.43,0-4.44,1.54,1.11,4.65-5.14,3.86l-5.14-1.29c-2.65-11.85,4.42-5.67,6.43-8.35.44-.59-7.99-5.26,6.43-8.35.2-.04.54,2.82,3.21,2.57,2.31-12.73,8.56-.82,10.28-1.29,3.79-1.02-2.68-16.56,8.35-3.86Z" style="fill:#233a63; stroke-width:0px;"/><path d="m785.75,655.4c.03,4.76.88,36.19-.64,37.27-14.33,10.18-9.73-30.37-8.35-37.27h9Z" style="fill:#654f80; stroke-width:0px;"/><path d="m308.98,678.54c-.11,3.88-1.39,17.1-1.29,17.99-5.42.6-14.62-1.55-19.28-1.29-.61-4.87.85-13.25,0-16.71h20.56Z" style="fill:#233a63; stroke-width:0px;"/><path d="m1031.85,578.3c9.54,53.43-13,40.2-5.78,8.35.11-.5,5.29-8.49,5.78-8.35Z" style="fill:#403e6b; stroke-width:0px;"/><path d="m1236.82,664.4c-.73,12.34.54,24.91,0,37.27-12.06,2.91-4.8-30.54-5.14-38.55l5.14,1.29Z" style="fill:#654f80; stroke-width:0px;"/><path d="m242.79,691.39c11.03-5.34,9.03,19.62,7.71,20.56-11.88,8.44-11.76-18.6-7.71-20.56Z" style="fill:#403e6b; stroke-width:0px;"/><path d="m1295.94,523.04c-11.03-12.7-4.56,2.84-8.35,3.86-1.72.46-7.97-11.45-10.28,1.29-2.67.25-3.01-2.61-3.21-2.57-4.87-3.35,17.25-7.75,27.63-15.42,8.04,11.02-3.71.14-8.35,7.07,7.01,2.74,2.43,5.4,2.57,5.78Z" style="fill:#545580; stroke-width:0px;"/><path d="m997.15,335.41c.52,7.62,3.58,45.38-5.14,44.98-7.1-.33,3.08-6.55,3.21-7.07,2.25-8.93-3.18-28.35,1.93-37.91Z" style="fill:#545580; stroke-width:0px;"/><path d="m1304.29,539.75q-.64,22.49-1.29,44.98c-2.02,1.09-1.18-41.38,1.29-44.98Z" style="fill:#545580; stroke-width:0px;"/><path d="m434.27,641.27c.87,12.92,1.04,27.12.64,40.48-.77,25.71-2.39-13-.64-40.48Z" style="fill:#345680; stroke-width:0px;"/><path d="m1304.93,605.29c.71,4.26.29,8.6,0,12.85-.25,3.61.17,7.3,0,10.92h-2.57c.59-3.48-.42-22.05,0-23.13.45-1.16,2.48-.47,2.57-.64Z" style="fill:#6f6b95; stroke-width:0px;"/><path d="m1295.94,530.75c-1.35,11.81-2.88,2.59-4.5,2.57-1.67-.02-.42,5.85-13.49,6.43,4.68-2.47,6.7-6.56,17.99-9Z" style="fill:#545580; stroke-width:0px;"/><path d="m515.24,727.37c4.92-2.11,8.17,7.87,2.57,9-5.75,1.15-5.81-7.61-2.57-9Z" style="fill:#f9efc0; stroke-width:0px;"/><path d="m1011.93,524.32c-.67,31.86-1.86-12.15-1.29-23.13,4.1-4.51,1.68,4.59,1.29,23.13Z" style="fill:#6f6b95; stroke-width:0px;"/><path d="m981.73,380.39c8.4,5.49-.91,2.35-1.29,2.57-25.64,15.08-18.29,7.28,1.29-2.57Z" style="fill:#5c648c; stroke-width:0px;"/><path d="m945.75,476.77c4.85.64,3.03,9.65-1.29,9-5.56-.84-3.71-9.65,1.29-9Z" style="fill:#efdd9b; stroke-width:0px;"/><path d="m980.44,398.38c-11.98,10.55,0,7.94-9,15.42,5.07-13.98-13.38-4.04,9-15.42Z" style="fill:#545580; stroke-width:0px;"/><path d="m947.03,514.04c3.19,25.11-4.36,26.62-1.29,1.29l.64-.64.64-.64Z" style="fill:#6f6b95; stroke-width:0px;"/><path d="m229.94,691.39c.49-.32,9.5-1.57,8.35,3.21-1.19,4.95-14.29.69-8.35-3.21Z" style="fill:#4594ae; stroke-width:0px;"/><path d="m1266.38,543.6c.79,16.25-8.99,14.76-9,10.92,0-1.25,9.44.83,6.43-10.28-.63-2.34-1.35,3.54-2.57-1.93l5.14,1.29Z" style="fill:#654f80; stroke-width:0px;"/><path d="m959.88,571.87c2.62,7.88-3.88,16.17,7.07,13.49-13.79,9.87-7.75.28-7.07-13.49Z" style="fill:#545580; stroke-width:0px;"/><path d="m1003.58,595c2.01-1.17,2.63,12.64,1.93,14.78-2.22,6.73-3.08-1.85-2.57-14.14l.64-.64Z" style="fill:#545580; stroke-width:0px;"/><path d="m767.12,656.69c4.85,32.34-8.29,29.42-.64,22.49l.64-22.49Z" style="fill:#345680; stroke-width:0px;"/><path d="m1008.72,550.03c12.24-.41,2.61.21,5.14,9q-2.57-4.5-5.14-9Z" style="fill:#545580; stroke-width:0px;"/><path d="m1292.08,499.91c-5.43,2.65-4.46,7.92-5.78,7.71-10.13-1.64-.63-8.36,5.78-7.71Z" style="fill:#545580; stroke-width:0px;"/><path d="m1287.58,553.88c.36-.15,7.21,1.42,7.07,3.21-.27,3.49-16.8.96-7.07-3.21Z" style="fill:#654f80; stroke-width:0px;"/><path d="m1027.35,524.32c-3.13,3.06-9.61,4.91-10.28,0,4.8-.23,10-2.9,10.28,0Z" style="fill:#6f6b95; stroke-width:0px;"/><path d="m930.33,675.97c7.57-2.49,6.67,6.59,5.14,7.71-.48.35-7.75-6.85-5.14-7.71Z" style="fill:#4594ae; stroke-width:0px;"/><path d="m502.38,686.25c7.04-1.26,1.31,7.72,0,7.71-2.05,0-4.24-6.95,0-7.71Z" style="fill:#4594ae; stroke-width:0px;"/><path d="m1282.44,614.28c5.38-2.24,4.04,11.66-.64,7.07-.25-.25.31-6.93.64-7.07Z" style="fill:#4594ae; stroke-width:0px;"/><path d="m1254.17,642.55c2.39-.79,5.41-.05,5.78,3.21.47,4.15-12.26-1.08-5.78-3.21Z" style="fill:#4594ae; stroke-width:0px;"/><path d="m1026.07,497.34c.15.81-.07,1.73,0,2.57-15.4.99-10.38-4.56,0-2.57Z" style="fill:#847997; stroke-width:0px;"/><path d="m1017.71,630.99c2.18.09,3.79,5.61,1.29,6.43-4.12,1.34-6.62-6.64-1.29-6.43Z" style="fill:#40abc0; stroke-width:0px;"/><path d="m1310.07,598.86c.06-.07.46-.31,1.29-1.29,7.38,6.3-1.8,12.9-1.29,1.29Z" style="fill:#a97894; stroke-width:0px;"/><path d="m1292.08,499.91l.64-9c1.58-.12,3.33,10.99-.64,9Z" style="fill:#545580; stroke-width:0px;"/><path d="m1295.3,548.74c4.74-.23,3.81,4.26,2.57,5.14-2.92,2.07-5.76-4.99-2.57-5.14Z" style="fill:#654f80; stroke-width:0px;"/><path d="m400.86,618.14c.81-.44,5.8-.86,5.78,1.93-.03,4.22-9.84.26-5.78-1.93Z" style="fill:#caacbb; stroke-width:0px;"/><path d="m367.45,672.11c2.9-.33,4.71,5.97,1.29,6.43-1.41.19-5.12-5.99-1.29-6.43Z" style="fill:#4594ae; stroke-width:0px;"/><path d="m371.3,637.41c.69-.14,7.02,4.01,2.57,5.14-4.66,1.18-5.69-4.51-2.57-5.14Z" style="fill:#4594ae; stroke-width:0px;"/><path d="m1138.51,681.11c5.12-2.11,4.44,3.14,2.57,3.86-4.39,1.67-6.22-2.35-2.57-3.86Z" style="fill:#417896; stroke-width:0px;"/><path d="m44.89,714.52c5.59-1.29,3.81,5.73,0,5.14-2.15-.33-2.49-4.57,0-5.14Z" style="fill:#4594ae; stroke-width:0px;"/><path d="m501.1,719.66c.77,0,4.87,4.18,1.29,5.14-5.93,1.6-3.75-5.17-1.29-5.14Z" style="fill:#1c5e8b; stroke-width:0px;"/><path d="m1274.73,489.63c4.31-1.06,5,5.02,2.57,5.14-1.17.06-6.81-4.09-2.57-5.14Z" style="fill:#545580; stroke-width:0px;"/><path d="m1265.74,494.77c2.63,3.22-7.89,7.28-8.35,5.78l8.35-5.78Z" style="fill:#545580; stroke-width:0px;"/><path d="m93.72,726.09c6.26,1.52-2.16,9.13-3.21,3.21-.27-1.52,2.99-3.27,3.21-3.21Z" style="fill:#4594ae; stroke-width:0px;"/><path d="m718.28,699.1c9.29-1.14,7.68,4.92,2.57,3.86-.23-.05-2.3-3.07-2.57-3.86Z" style="fill:#4594ae; stroke-width:0px;"/><path d="m1283.73,577.01c.2-.11,4.42.43,4.5.64,2.48,6.9-10.76,2.77-4.5-.64Z" style="fill:#6f6b95; stroke-width:0px;"/><path d="m949.6,574.44c3.51-.05,1.72,6.46,1.29,6.43-2.76-.24-5.95-6.36-1.29-6.43Z" style="fill:#847997; stroke-width:0px;"/><path d="m688.72,706.81c2.91.83,2.59,4.19,1.29,5.14-2.42,1.76-6.04-6.49-1.29-5.14Z" style="fill:#40abc0; stroke-width:0px;"/><path d="m984.3,362.4c10.01-3.3-3.37,8.31-3.21,3.21,0-.23,2.98-3.14,3.21-3.21Z" style="fill:#5c648c; stroke-width:0px;"/><path d="m935.47,539.75c.32.07,2.38,5.78,1.29,6.43-5.79,3.4-2.9-6.79-1.29-6.43Z" style="fill:#a694ad; stroke-width:0px;"/><path d="m294.2,711.95c4.71-3.19,5.86,7.79,0,3.86-1.04-.7-1.04-3.15,0-3.86Z" style="fill:#417896; stroke-width:0px;"/><path d="m1310.72,543.6c2.6-.13,2.42,7.61-.64,5.78-2.44-1.45.29-5.76.64-5.78Z" style="fill:#9c7b9d; stroke-width:0px;"/><path d="m1020.28,564.16c1.62.3,6.4-.71,7.07.64.22.46-7.12,5.52-7.07-.64Z" style="fill:#6f6b95; stroke-width:0px;"/><path d="m1277.3,506.33c1.58.71.48,4.57-1.29,5.14-9.51,3.08-.59-5.98,1.29-5.14Z" style="fill:#545580; stroke-width:0px;"/><path d="m677.16,713.23c3.62-1.04,2.82,4.85,1.29,5.14-1.36.26-5.4-3.96-1.29-5.14Z" style="fill:#40abc0; stroke-width:0px;"/><path d="m16.61,634.84c1.2,0,3.12,4.21,1.29,5.14-4.36,2.22-3.68-5.16-1.29-5.14Z" style="fill:#e6b3a5; stroke-width:0px;"/><path d="m1270.88,564.16c3.02.12,2.34,4.4,1.29,5.14-2.46,1.73-4.49-5.26-1.29-5.14Z" style="fill:#545580; stroke-width:0px;"/><path d="m682.3,652.83c2.41.27,2.62,5.46-1.29,5.14-3.53-.29.32-5.25,1.29-5.14Z" style="fill:#f8e0e5; stroke-width:0px;"/><path d="m47.46,681.11c.26.06,2.76,4.27,1.29,5.14-4.89,2.9-4.33-5.81-1.29-5.14Z" style="fill:#40abc0; stroke-width:0px;"/><path d="m1292.73,580.87c4.26-.27,4.1,2.77,2.57,3.86-2.69,1.91-6.16-3.63-2.57-3.86Z" style="fill:#545580; stroke-width:0px;"/><path d="m485.68,702.95c4.38-.51,5.94,4.87,0,3.86-2.09-.36-1.87-3.64,0-3.86Z" style="fill:#417896; stroke-width:0px;"/><path d="m33.32,621.99c4.78-.92,3.4,3.28,1.29,3.86-2.64.72-4.05-3.32-1.29-3.86Z" style="fill:#e5a9c0; stroke-width:0px;"/><path d="m673.3,673.4c2.9-1.58,4.58,2.76,2.57,3.86-2.9,1.58-4.58-2.76-2.57-3.86Z" style="fill:#4594ae; stroke-width:0px;"/><path d="m371.3,686.25c2.99-.14,1.49,6.68-1.29,5.14-1.81-1,.04-5.08,1.29-5.14Z" style="fill:#3d87a8; stroke-width:0px;"/><path d="m965.02,548.74c.9-.38,20.14,3.52,0,2.57v-2.57Z" style="fill:#9989b2; stroke-width:0px;"/><path d="m1285.01,483.2c.26.09,2.8,4.39,1.29,5.14-3.01,1.5-5.66-6.59-1.29-5.14Z" style="fill:#6f6b95; stroke-width:0px;"/><path d="m941.89,502.48c.29-.17,5.93,2.92,5.78,3.21-1.36,2.78-10.09-.7-5.78-3.21Z" style="fill:#6f6b95; stroke-width:0px;"/><path d="m1304.29,592.43c3.04.45,2.38,4.39,1.29,5.14-2.18,1.49-3.85-5.52-1.29-5.14Z" style="fill:#6d6183; stroke-width:0px;"/><path d="m971.45,575.73c7.13-5.36,1.18,5.88,0,5.14-1.06-.66-1.04-4.36,0-5.14Z" style="fill:#6f6b95; stroke-width:0px;"/><path d="m992.01,593.72c1.05-.66,4.65,2.98,4.5,3.21-1.91,2.86-7.97-1.03-4.5-3.21Z" style="fill:#847997; stroke-width:0px;"/><path d="m1022.85,702.95c3.94-.71,2.56,4.94,1.29,5.14-.68.11-4.95-4.48-1.29-5.14Z" style="fill:#3d87a8; stroke-width:0px;"/><path d="m1283.73,433.08c2.78-1.54,4.27,5.28,1.29,5.14-1.24-.06-3.09-4.14-1.29-5.14Z" style="fill:#f0e5d0; stroke-width:0px;"/><path d="m797.96,650.26c3.03-.5,3.8,3.44,1.29,3.86-3.03.5-3.8-3.44-1.29-3.86Z" style="fill:#4594ae; stroke-width:0px;"/><path d="m1004.86,650.26c.75,0,3.35,2.88.64,4.5-2.78,1.65-3.16-4.5-.64-4.5Z" style="fill:#50c1cf; stroke-width:0px;"/><path d="m400.86,681.11c3.03-.5,3.8,3.44,1.29,3.86-3.03.5-3.8-3.44-1.29-3.86Z" style="fill:#4594ae; stroke-width:0px;"/><path d="m1024.14,645.12c.88.17,3.01,2.92,1.29,3.86-4.24,2.31-5.04-4.59-1.29-3.86Z" style="fill:#40abc0; stroke-width:0px;"/><path d="m953.46,377.82c2.85-.75,2.81,12.45-1.93,4.5-.13-.21,1.69-4.44,1.93-4.5Z" style="fill:#6f6b95; stroke-width:0px;"/><path d="m1277.95,539.75c-8.48,4.46-4.06-.82-6.43,0,.83-1.34,2.76.16,6.43,0Z" style="fill:#545580; stroke-width:0px;"/><path d="m1274.73,678.54c1.31.76,1.26,8.81-1.29,5.14-1.93-2.79,1.02-5.3,1.29-5.14Z" style="fill:#345680; stroke-width:0px;"/><path d="m795.39,701.67c3.03-.5,3.8,3.44,1.29,3.86-3.03.5-3.8-3.44-1.29-3.86Z" style="fill:#4594ae; stroke-width:0px;"/><path d="m24.32,710.66c.88.17,3.01,2.92,1.29,3.86-4.24,2.31-5.04-4.59-1.29-3.86Z" style="fill:#40abc0; stroke-width:0px;"/><path d="m954.74,358.54c2.41-1.18,5.72,14.17-.64,4.5-.32-.48-.21-4.08.64-4.5Z" style="fill:#8089af; stroke-width:0px;"/><path d="m657.88,678.54c3.03-.5,3.8,3.44,1.29,3.86-3.03.5-3.8-3.44-1.29-3.86Z" style="fill:#50c1cf; stroke-width:0px;"/><path d="m1299.15,724.8c.75,0,3.35,2.88.64,4.5-2.78,1.65-3.16-4.5-.64-4.5Z" style="fill:#40abc0; stroke-width:0px;"/><path d="m1126.95,677.25c4.42-2.85,2.41,8.86-.64,3.21-.32-.58-.2-2.67.64-3.21Z" style="fill:#6395b6; stroke-width:0px;"/><path d="m1031.85,677.25c3.99-2.03,3.68,3.75,1.29,3.86-2.82.12-2.43-3.27-1.29-3.86Z" style="fill:#4594ae; stroke-width:0px;"/><path d="m1020.28,677.25c4.42-2.85,2.41,8.86-.64,3.21-.32-.58-.2-2.67.64-3.21Z" style="fill:#40abc0; stroke-width:0px;"/><path d="m1251.6,613c4.42-2.85,2.41,8.86-.64,3.21-.32-.58-.2-2.67.64-3.21Z" style="fill:#417896; stroke-width:0px;"/><path d="m385.44,632.27c4.42-2.85,2.41,8.86-.64,3.21-.32-.58-.2-2.67.64-3.21Z" style="fill:#5ea5ce; stroke-width:0px;"/><path d="m1061.41,691.39c5.27-3.78,5.45,6.33,0,2.57-1.11-.76-1.09-1.79,0-2.57Z" style="fill:#417896; stroke-width:0px;"/><path d="m630.9,724.8c4.79-.21.38,6.84-1.93,3.21-.62-.97,1.54-3.2,1.93-3.21Z" style="fill:#4594ae; stroke-width:0px;"/><path d="m934.18,484.49c3.99-2.03,3.68,3.75,1.29,3.86-2.82.12-2.43-3.27-1.29-3.86Z" style="fill:#bf709d; stroke-width:0px;"/><path d="m998.44,512.76c.73-.48,5.08,5.7,1.29,5.14-3.05-.45-2.36-4.43-1.29-5.14Z" style="fill:#bab7d2; stroke-width:0px;"/><path d="m1259.31,452.36c3.19-1.2,4.51,2.61,2.57,3.86-1.14.73-4.51-2.04-2.57-3.86Z" style="fill:#eac6c8; stroke-width:0px;"/><path d="m818.52,670.83c4.79-.21.38,6.84-1.93,3.21-.62-.97,1.54-3.2,1.93-3.21Z" style="fill:#40abc0; stroke-width:0px;"/><path d="m826.23,664.4c4.26-1.87,3.48,3.79,1.29,3.86-.65.02-3.13-3.05-1.29-3.86Z" style="fill:#40abc0; stroke-width:0px;"/><path d="m415,686.25c2.49-1.3,3.93,4,1.29,3.86-2.85-.16-2.5-3.22-1.29-3.86Z" style="fill:#417896; stroke-width:0px;"/><path d="m20.47,660.55c2.49-1.3,3.93,4,1.29,3.86-2.85-.16-2.5-3.22-1.29-3.86Z" style="fill:#6ebfd7; stroke-width:0px;"/><path d="m986.87,521.75c1.35.59,1.15,8.98-1.29,5.14-1.08-1.7,1-5.27,1.29-5.14Z" style="fill:#8089af; stroke-width:0px;"/><path d="m1258.03,710.66c.65-.02,3.13,3.05,1.29,3.86-4.26,1.87-3.48-3.79-1.29-3.86Z" style="fill:#417896; stroke-width:0px;"/><path d="m939.32,584.72c2.1-1.03,3.26,11.65-.64,4.5-.32-.58-.21-4.08.64-4.5Z" style="fill:#847997; stroke-width:0px;"/><path d="m882.78,710.66c2.49-1.3,3.93,4,1.29,3.86-2.85-.16-2.5-3.22-1.29-3.86Z" style="fill:#3d87a8; stroke-width:0px;"/><path d="m871.21,706.81c4.26-1.87,3.48,3.79,1.29,3.86-.65.02-3.13-3.05-1.29-3.86Z" style="fill:#40abc0; stroke-width:0px;"/><path d="m965.02,416.37c1.05.64,1.79,4.68-1.29,5.14-3.51.52.97-5.33,1.29-5.14Z" style="fill:#8089af; stroke-width:0px;"/><path d="m1268.31,630.99c2.49-1.3,3.93,4,1.29,3.86-2.85-.16-2.5-3.22-1.29-3.86Z" style="fill:#4594ae; stroke-width:0px;"/><path d="m839.08,715.8c2.85.16,2.5,3.22,1.29,3.86-2.49,1.3-3.93-4-1.29-3.86Z" style="fill:#40abc0; stroke-width:0px;"/><path d="m1126.95,715.8c.65-.02,3.13,3.05,1.29,3.86-4.26,1.87-3.48-3.79-1.29-3.86Z" style="fill:#4594ae; stroke-width:0px;"/><path d="m1265.74,697.81c.65-.02,3.13,3.05,1.29,3.86-4.26,1.87-3.48-3.79-1.29-3.86Z" style="fill:#1c5e8b; stroke-width:0px;"/><path d="m1001.01,483.2c4.34-2.92,5.49,6.11,0,2.57-1.09-.7-1.08-1.84,0-2.57Z" style="fill:#847997; stroke-width:0px;"/><path d="m1292.73,478.06c2.85.16,2.5,3.22,1.29,3.86-2.49,1.3-3.93-4-1.29-3.86Z" style="fill:#545580; stroke-width:0px;"/><path d="m935.47,493.48c.54,0,2.53,6.43,0,6.43s-.54-6.43,0-6.43Z" style="fill:#9989b2; stroke-width:0px;"/><path d="m746.55,681.11c2.49-1.3,3.93,4,1.29,3.86-2.85-.16-2.5-3.22-1.29-3.86Z" style="fill:#5c648c; stroke-width:0px;"/><path d="m429.13,709.38c2.85.16,2.5,3.22,1.29,3.86-2.49,1.3-3.93-4-1.29-3.86Z" style="fill:#1c5e8b; stroke-width:0px;"/><path d="m1282.44,605.29c4.26-1.87,3.48,3.79,1.29,3.86-.65.02-3.13-3.05-1.29-3.86Z" style="fill:#4594ae; stroke-width:0px;"/><path d="m1256.74,601.43c4.26-1.87,3.48,3.79,1.29,3.86-.65.02-3.13-3.05-1.29-3.86Z" style="fill:#4594ae; stroke-width:0px;"/><path d="m1017.07,494.77c-.09.03.49.38-1.29,1.29-5.08-2.92,2.67-8.05,1.29-1.29Z" style="fill:#847997; stroke-width:0px;"/><path d="m1019,445.93c.85.55.96,2.7.64,3.21-3.31,5.38-4.56-5.74-.64-3.21Z" style="fill:#9ca3b7; stroke-width:0px;"/><path d="m650.17,708.09c2.49-1.3,3.93,4,1.29,3.86-2.85-.16-2.5-3.22-1.29-3.86Z" style="fill:#256887; stroke-width:0px;"/><path d="m393.15,650.26c.8.07,3.07,3.07,1.29,3.86-2.74,1.21-3.74-4.07-1.29-3.86Z" style="fill:#417896; stroke-width:0px;"/><path d="m971.45,589.86c4.46-.56,3.1,4.86-1.29,2.57-1.27-.66,1.01-2.54,1.29-2.57Z" style="fill:#75789b; stroke-width:0px;"/><path d="m217.09,722.23c.94-.69,4.14.1,3.21,1.93-1.01,1.99-5.97.09-3.21-1.93Z" style="fill:#4594ae; stroke-width:0px;"/><path d="m961.17,691.39c.94-.69,4.14.1,3.21,1.93-1.01,1.99-5.97.09-3.21-1.93Z" style="fill:#40abc0; stroke-width:0px;"/><path d="m1002.29,542.32c.18.04,2.03,3.05,1.93,3.21-3.69,6.01-5.52-3.99-1.93-3.21Z" style="fill:#847997; stroke-width:0px;"/><path d="m1249.03,629.7c2.71-1.22,2.71,5.08,0,3.86-1.03-.46-1.03-3.39,0-3.86Z" style="fill:#3d87a8; stroke-width:0px;"/><path d="m526.8,696.53c2.71-1.22,2.71,5.08,0,3.86-1.03-.46-1.03-3.39,0-3.86Z" style="fill:#3d87a8; stroke-width:0px;"/><path d="m805.67,699.1c.94-.69,4.14.1,3.21,1.93-1.01,1.99-5.97.09-3.21-1.93Z" style="fill:#40abc0; stroke-width:0px;"/><path d="m830.09,627.13c.94-.69,4.14.1,3.21,1.93-1.01,1.99-5.97.09-3.21-1.93Z" style="fill:#5ea5ce; stroke-width:0px;"/><path d="m1096.1,699.1c2.71-1.22,2.71,5.08,0,3.86-1.03-.46-1.03-3.39,0-3.86Z" style="fill:#4594ae; stroke-width:0px;"/><path d="m997.15,438.22c4.39-2.29,5.75,3.13,1.29,2.57-.27-.03-2.56-1.91-1.29-2.57Z" style="fill:#75789b; stroke-width:0px;"/><path d="m376.44,661.83c.94-.69,4.14.1,3.21,1.93-1.01,1.99-5.97.09-3.21-1.93Z" style="fill:#4594ae; stroke-width:0px;"/><path d="m953.46,663.12c2.71-1.22,2.71,5.08,0,3.86-1.03-.46-1.03-3.39,0-3.86Z" style="fill:#40abc0; stroke-width:0px;"/><path d="m965.02,493.48c.94-.69,4.14.1,3.21,1.93-1.01,1.99-5.97.09-3.21-1.93Z" style="fill:#8089af; stroke-width:0px;"/><path d="m989.44,469.06c1.17.55,1.6,3.75-1.29,3.86-4.06.15.55-4.2,1.29-3.86Z" style="fill:#f8e0e5; stroke-width:0px;"/><path d="m1247.75,668.26c4.39-2.29,5.75,3.13,1.29,2.57-.27-.03-2.56-1.91-1.29-2.57Z" style="fill:#345680; stroke-width:0px;"/><path d="m60.31,670.83c.94-.69,4.14.1,3.21,1.93-1.01,1.99-5.97.09-3.21-1.93Z" style="fill:#40abc0; stroke-width:0px;"/><path d="m1256.74,547.46l4.5,1.93c-3.37,1.66-6.68.57-4.5-1.93Z" style="fill:#6f6b95; stroke-width:0px;"/><path d="m1285.01,675.97c1.43.83,1.07,7.29-1.29,3.86-1.46-2.14,1.07-3.98,1.29-3.86Z" style="fill:#417896; stroke-width:0px;"/><path d="m1273.45,471.63c2.34-1.06,5.07,4.74,1.29,3.86-.24-.06-2.13-3.47-1.29-3.86Z" style="fill:#545580; stroke-width:0px;"/><path d="m814.67,618.14c.94-.69,4.14.1,3.21,1.93-1.01,1.99-5.97.09-3.21-1.93Z" style="fill:#5b729e; stroke-width:0px;"/><path d="m989.44,553.88c1.35-.42,4.6,2.94,4.5,3.21-.87,2.42-6.2-2.68-4.5-3.21Z" style="fill:#6f6b95; stroke-width:0px;"/><path d="m684.87,674.68c2.71-1.22,2.71,5.08,0,3.86-1.03-.46-1.03-3.39,0-3.86Z" style="fill:#4594ae; stroke-width:0px;"/><path d="m380.3,672.11c.46,0,2.83,1.85.64,3.21-2.45,1.53-2.86-3.21-.64-3.21Z" style="fill:#4594ae; stroke-width:0px;"/><path d="m1254.17,553.88c.99,0,.99,6.43,0,6.43s-.99-6.43,0-6.43Z" style="fill:#654f80; stroke-width:0px;"/><path d="m950.89,618.14c2.09.9-.11,6.11-1.93,3.21-.66-1.05,1.74-3.29,1.93-3.21Z" style="fill:#4594ae; stroke-width:0px;"/><path d="m981.73,564.16c3.55-.9,4.5,6.86.64,1.93-.71-.9-2.07-1.57-.64-1.93Z" style="fill:#847997; stroke-width:0px;"/><path d="m1306.86,702.95c2.51-.67,2.56,3.31,1.29,3.86-.47.2-3.24-3.33-1.29-3.86Z" style="fill:#4594ae; stroke-width:0px;"/><path d="m1246.46,677.25c.45-.3,2.83-.21,3.21.64.97,2.12-7.37,2.18-3.21-.64Z" style="fill:#3c4c76; stroke-width:0px;"/><path d="m1002.29,665.69c.46,0,2.83,1.85.64,3.21-2.45,1.53-2.86-3.21-.64-3.21Z" style="fill:#40abc0; stroke-width:0px;"/><path d="m1025.42,542.32c2.24,1.98-.29,8.27-1.29,2.57-.3-1.74,1.15-2.69,1.29-2.57Z" style="fill:#6d6183; stroke-width:0px;"/><path d="m954.74,701.67c1.07-.65,3.29,1.76,3.21,1.93-.97,2.13-6.08-.17-3.21-1.93Z" style="fill:#4594ae; stroke-width:0px;"/><path d="m972.73,462.64c.93-.41,5.78-.07,5.78.64,0,1.46-8.54.57-5.78-.64Z" style="fill:#8089af; stroke-width:0px;"/><path d="m1141.08,719.66c1.23-.75,2.55.28,1.29,2.57-1.77,3.2-3.02-1.51-1.29-2.57Z" style="fill:#417896; stroke-width:0px;"/><path d="m754.27,681.11l3.21,1.93c-2.68,1.74-5.19.27-3.21-1.93Z" style="fill:#5c648c; stroke-width:0px;"/><path d="m42.32,655.4c.46,0,2.83,1.85.64,3.21-2.45,1.53-2.86-3.21-.64-3.21Z" style="fill:#50c1cf; stroke-width:0px;"/><path d="m701.58,682.39c.46,0,2.83,1.85.64,3.21-2.45,1.53-2.86-3.21-.64-3.21Z" style="fill:#40abc0; stroke-width:0px;"/><path d="m836.51,683.68c.46,0,2.83,1.85.64,3.21-2.45,1.53-2.86-3.21-.64-3.21Z" style="fill:#5ea5ce; stroke-width:0px;"/><path d="m1276.02,582.15c4.82-.69-.41,5.34-1.93,1.93-.06-.12,1.79-1.91,1.93-1.93Z" style="fill:#6f6b95; stroke-width:0px;"/><path d="m962.45,511.47c2.43.66-1.12,6.77-1.93,4.5-.22-.61,1.67-4.57,1.93-4.5Z" style="fill:#9ca3b7; stroke-width:0px;"/><path d="m664.31,686.25c.46,0,2.83,1.85.64,3.21-2.45,1.53-2.86-3.21-.64-3.21Z" style="fill:#40abc0; stroke-width:0px;"/><path d="m389.29,687.53c4.82-.69-.41,5.34-1.93,1.93-.06-.12,1.79-1.91,1.93-1.93Z" style="fill:#3d87a8; stroke-width:0px;"/><path d="m1016.43,650.26c3.31-1.75,3.71,2.29,1.29,2.57-.14.02-2.6-1.88-1.29-2.57Z" style="fill:#40abc0; stroke-width:0px;"/><path d="m1285.01,683.68c1.64,1.16.69,5.65-1.29,2.57-.82-1.27,1.14-2.68,1.29-2.57Z" style="fill:#3d87a8; stroke-width:0px;"/><path d="m738.84,697.81c.15-.1,2.1,1.3,1.29,2.57-1.98,3.08-2.92-1.41-1.29-2.57Z" style="fill:#4594ae; stroke-width:0px;"/><path d="m994.58,489.63c2.98,1.56-2.27,4.15-3.21,1.93-.07-.17,3.05-2.01,3.21-1.93Z" style="fill:#9ca3b7; stroke-width:0px;"/><path d="m808.24,643.84c1.64,1.16.69,5.65-1.29,2.57-.82-1.27,1.14-2.68,1.29-2.57Z" style="fill:#4594ae; stroke-width:0px;"/><path d="m1259.31,593.72c1.92-.77,2.82,1.95,1.29,2.57-1.92.77-2.82-1.95-1.29-2.57Z" style="fill:#90a0c9; stroke-width:0px;"/><path d="m959.88,539.75c.17-.09,3.29,1.76,3.21,1.93-.94,2.22-6.19-.37-3.21-1.93Z" style="fill:#aca4c7; stroke-width:0px;"/><path d="m659.17,701.67c.15-.1,2.1,1.3,1.29,2.57-1.98,3.08-2.92-1.41-1.29-2.57Z" style="fill:#417896; stroke-width:0px;"/><path d="m959.88,679.82c.14-.02,2.6,1.88,1.29,2.57-3.31,1.75-3.71-2.29-1.29-2.57Z" style="fill:#40abc0; stroke-width:0px;"/><path d="m974.02,642.55c1.92-.77,2.82,1.95,1.29,2.57-1.92.77-2.82-1.95-1.29-2.57Z" style="fill:#417896; stroke-width:0px;"/><path d="m941.89,630.99c1.92-.77,2.82,1.95,1.29,2.57-1.92.77-2.82-1.95-1.29-2.57Z" style="fill:#4594ae; stroke-width:0px;"/><path d="m32.03,657.98c.14-.02,2.6,1.88,1.29,2.57-3.31,1.75-3.71-2.29-1.29-2.57Z" style="fill:#6ebfd7; stroke-width:0px;"/><path d="m967.59,435.65c.8-.11,1.69-.15,1.93.64,1.1,3.71-7.75.16-1.93-.64Z" style="fill:#5c648c; stroke-width:0px;"/><path d="m959.88,400.95c.15-.1,2.1,1.3,1.29,2.57-1.98,3.08-2.92-1.41-1.29-2.57Z" style="fill:#cbd3f8; stroke-width:0px;"/><path d="m1139.8,665.69c1.92-.77,2.82,1.95,1.29,2.57-1.92.77-2.82-1.95-1.29-2.57Z" style="fill:#5c648c; stroke-width:0px;"/><path d="m954.74,417.66c.99,0,.99,5.14,0,5.14s-.99-5.14,0-5.14Z" style="fill:#6f6b95; stroke-width:0px;"/><path d="m1251.6,584.72c.99,0,.99,5.14,0,5.14s-.99-5.14,0-5.14Z" style="fill:#9989b2; stroke-width:0px;"/><path d="m724.71,713.23c.15-.1,2.1,1.3,1.29,2.57-1.98,3.08-2.92-1.41-1.29-2.57Z" style="fill:#417896; stroke-width:0px;"/><path d="m842.94,675.97c1.92-.77,2.82,1.95,1.29,2.57-1.92.77-2.82-1.95-1.29-2.57Z" style="fill:#5ea5ce; stroke-width:0px;"/><path d="m1141.08,710.66c1.92-.77,2.82,1.95,1.29,2.57-1.92.77-2.82-1.95-1.29-2.57Z" style="fill:#1c5e8b; stroke-width:0px;"/><path d="m992.01,674.68c1.92-.77,2.82,1.95,1.29,2.57-1.92.77-2.82-1.95-1.29-2.57Z" style="fill:#5ea5ce; stroke-width:0px;"/><path d="m980.44,550.03c.82-.38,4.5-.08,4.5.64,0,1.46-7.03.54-4.5-.64Z" style="fill:#9792b1; stroke-width:0px;"/><path d="m1012.57,476.77c.8-.11,1.69-.15,1.93.64,1.1,3.71-7.75.16-1.93-.64Z" style="fill:#8089af; stroke-width:0px;"/><path d="m12.76,710.66l.64.64v1.29l-.64.64h-1.29l-.64-.64.64-.64.64-.64.64-.64Z" style="fill:#40abc0; stroke-width:0px;"/><path d="m981.73,610.43c.75-.36,3.21-.05,3.21.64,0,1.47-5.5.47-3.21-.64Z" style="fill:#5ea5ce; stroke-width:0px;"/><path d="m718.28,704.24l.64.64.64.64.64.64-.64.64h-1.29l-.64-.64v-1.29l.64-.64Z" style="fill:#6ebfd7; stroke-width:0px;"/><path d="m975.3,610.43c.75-.36,3.21-.05,3.21.64,0,1.47-5.5.47-3.21-.64Z" style="fill:#3d87a8; stroke-width:0px;"/><path d="m395.72,702.95l.64.64.64.64.64.64-.64.64h-1.29l-.64-.64v-1.29l.64-.64Z" style="fill:#345680; stroke-width:0px;"/><path d="m10.19,702.95h1.29l.64.64-.64.64-.64.64-.64.64-.64-.64v-1.29l.64-.64Z" style="fill:#40abc0; stroke-width:0px;"/><path d="m958.6,443.36l.64.64v1.29l-.64.64h-1.29l-.64-.64.64-.64.64-.64.64-.64Z" style="fill:#8089af; stroke-width:0px;"/><path d="m1002.29,460.07c.98,0,.98,3.86,0,3.86s-.98-3.86,0-3.86Z" style="fill:#cbd3f8; stroke-width:0px;"/><path d="m977.87,505.05c.75-.36,3.21-.05,3.21.64,0,1.47-5.5.47-3.21-.64Z" style="fill:#c7bfcc; stroke-width:0px;"/><path d="m945.75,454.93l.64.64v1.29l-.64.64h-1.29l-.64-.64.64-.64.64-.64.64-.64Z" style="fill:#9ca3b7; stroke-width:0px;"/><path d="m494.67,570.59c14.4-6.67,5.82,41.39-1.93,23.77-.48-1.09-.89-22.47,1.93-23.77Z" style="fill:#bf709d; stroke-width:0px;"/><path d="m551.86,589.86c.34,18.77-5.01,11.03-6.43,13.49-1.02,1.77,14.96,5.7-9.64,1.93-.78.31.01,8.44-8.35,3.86-.01-1.71.03-3.43,0-5.14,9.76,3.09,9.29-3.58,10.92-3.86,1.01-.17,11.36,10.68,4.5-9.64.18-.42,5.51-.08,9-.64Z" style="fill:#7e5b8b; stroke-width:0px;"/><path d="m526.16,589.86c-.34.08-6.23-.79-5.14-3.21,8.39-.7,7.97-3.8,9-4.5,7.41-.14-.08,6.88-3.86,7.71Z" style="fill:#6d6183; stroke-width:0px;"/><path d="m537.72,579.58c2.29,8.61,3.17,3.58,10.28,3.86-.48.84,2.25,1.97.64,2.57-13.59-.75-10.39,4.96-14.78-4.5,1.73-2.51,3.12-1.71,3.86-1.93Z" style="fill:#654f80; stroke-width:0px;"/><path d="m542.22,514.04c2.95,22.58-4.06,25.04-1.29,1.29l.64-.64.64-.64Z" style="fill:#9c7b9d; stroke-width:0px;"/><path d="m529.37,503.76c2.56-.53,4.51,3.79,2.57,5.14-2.95,2.04-6.62-4.3-2.57-5.14Z" style="fill:#f3c3d2; stroke-width:0px;"/><path d="m508.81,625.85c.91-.55,4.43-.73,4.5,1.93.11,3.88-8.08.23-4.5-1.93Z" style="fill:#75789b; stroke-width:0px;"/><path d="m540.94,550.03c5.49-3.54,4.34,5.49,0,2.57-1.08-.73-1.09-1.87,0-2.57Z" style="fill:#654f80; stroke-width:0px;"/><path d="m520.38,548.74c.74-.35,5.35,4,1.29,3.86-2.88-.1-2.45-3.31-1.29-3.86Z" style="fill:#a97894; stroke-width:0px;"/><path d="m521.66,557.74c1.92-.77,2.82,1.95,1.29,2.57-1.92.77-2.82-1.95-1.29-2.57Z" style="fill:#9989b2; stroke-width:0px;"/><path d="m533.23,569.3c1.92-.77,2.82,1.95,1.29,2.57-1.92.77-2.82-1.95-1.29-2.57Z" style="fill:#bab7d2; stroke-width:0px;"/><path d="m543.51,560.31l.64.64v1.29l-.64.64h-1.29l-.64-.64.64-.64.64-.64.64-.64Z" style="fill:#b5bce6; stroke-width:0px;"/><path d="m524.23,578.3l.64.64v1.29l-.64.64h-1.29l-.64-.64.64-.64.64-.64.64-.64Z" style="fill:#8777a8; stroke-width:0px;"/><path d="m1081.97,447.22c7.57.05-2.71,12.84-4.5,4.5-.07-.31,4.18-4.5,4.5-4.5Z" style="fill:#654f80; stroke-width:0px;"/><path d="m172.75,620.71c-9.97,1.14-8.94,12.76-16.06,7.71-1.61-1.14-.13-13.77-.64-16.71,8.12.5,19.65-7.14,16.71,9Z" style="fill:#654f80; stroke-width:0px;"/><path d="m551.86,589.86c.42-.07-1.63-4.53,6.43-1.93-1.91,3.81.99,37.99-9,25.7-1.47-1.81,3.81-3.59,3.86-3.86.53-2.9.98-22.34-1.29-19.92Z" style="fill:#7e5b8b; stroke-width:0px;"/><path d="m533.23,589.86c4.2-2.13,9.26,6.63,1.29,3.86-.96-.33-3.05-2.96-1.29-3.86Z" style="fill:#654f80; stroke-width:0px;"/></g><path d="m685.51,426.66c0,.26,1.2-1.45,1.29,5.14v204.33c-3.83.2-7.75-.28-11.57,0l-.64-33.41q-.32,16.71-.64,33.41c-4.74.26-8.35-.11-10.28,0,0-7.71,0-15.42,0-23.13,14.88-7.37-1.7-31.14,12.85-21.2.77-12.25-2.2-3.52-4.5-4.5-9.83-4.19,5.45-10.2,5.78-10.92,3.14-6.76-5.59-142.99-1.29-149.07,1.03-1.45,6.9-.28,9-.64Z" style="fill:#403e6b; stroke-width:0px;"/><path d="m431.06,161.92c38.38,72.04-15.59,159.22-97.67,154.21-26.91-8.86-51.03-17.46-68.11-41.77-14.41-20.5-19.49-44-17.99-68.75,6.2-102.11,140.22-125.43,183.77-43.69Z" style="fill:#efc9af; stroke-width:0px;"/><path d="m437.49,159.35l-6.43,2.57c-43.55-81.74-177.57-58.41-183.77,43.69l-2.57-23.77c29.35-91.54,149.66-103.9,192.77-22.49Z" style="fill:#813a73; stroke-width:0px;"/><path d="m437.49,159.35c40.84,77.12-14.21,168.99-103.45,159.35l-.64-2.57c82.07,5.01,136.05-82.17,97.67-154.21l6.43-2.57Z" style="fill:#a97894; stroke-width:0px;"/><path d="m675.23,636.13c-.43.03-.86-.02-1.29,0q.32-16.71.64-33.41l.64,33.41Z" style="fill:#545580; stroke-width:0px;"/><path d="m754.91,460.07c-1.81,1.81-3.39,4.08-6.43,3.86-4.66-7.04,3.12-9.13,6.43-3.86Z" style="fill:#e5a9c0; stroke-width:0px;"/><path d="m706.72,669.54c.65-.02,3.13,3.05,1.29,3.86-4.26,1.87-3.48-3.79-1.29-3.86Z" style="fill:#40abc0; stroke-width:0px;"/><path d="m749.77,394.53c0,.43,0,.86,0,1.29-6.48.8-4.67-6.88,0-1.29Z" style="fill:#c7bfcc; stroke-width:0px;"/><path d="m699.01,389.39c1.13-.37,2.93,1.15,3.21,1.93,4.41,11.97-2.08,222.79.64,255.09l-3.21-.64-.64-256.38Z" style="fill:#654f80; stroke-width:0px;"/><path d="m686.8,636.13v-204.33c.85,67.46,1.95,134.95,2.57,202.4l-2.57,1.93Z" style="fill:#7e5b8b; stroke-width:0px;"/><path d="m715.07,471.63c0,6.46,2.46,37.65-4.5,35.98-3.5-.84,7.53-10.67-.64-22.49,7.01-2.11,1.51-6.27,2.57-13.49h2.57Z" style="fill:#654f80; stroke-width:0px;"/><path d="m725.99,530.75c3.85.21-.7,14.86.64,32.77.02.28,5.18,2.47.64,3.21-6.11,1.01-.16-11.09-1.93-30.2-.05-.51-7.54-6.24.64-5.78Z" style="fill:#545580; stroke-width:0px;"/><path d="m755.55,559.02c4.63,11.75-1.04,12.17-.64,13.49.39,1.3,3.23-.04,3.86,1.29,2.67,5.65-10.46,6.44-3.21-14.78Z" style="fill:#7e5b8b; stroke-width:0px;"/><path d="m720.85,484.49c12.91,2.68.76,6.58,0,6.43v-6.43Z" style="fill:#e8eaf6; stroke-width:0px;"/><path d="m725.99,494.77c.31-.09,4.58,3.43,4.5,4.5-.24,3.16-13.74-1.79-4.5-4.5Z" style="fill:#9989b2; stroke-width:0px;"/><path d="m754.91,439.51c-1.77,1.84,2.92,1.81-6.43,2.57-2.92-6.14,3.61-.79,6.43-2.57Z" style="fill:#a694ad; stroke-width:0px;"/><path d="m725.99,449.79c.92-.3,1.23,4.21,5.78,4.5-9.96,4.72-7.08-4.08-5.78-4.5Z" style="fill:#545580; stroke-width:0px;"/><path d="m710.57,565.45c.26-.21,5.78,2.88,5.78,3.21,0,2.91-12.96,2.46-5.78-3.21Z" style="fill:#7e5b8b; stroke-width:0px;"/><path d="m738.84,652.83c3.15-1.96,4.52,3.93,2.57,5.14-3.15,1.96-4.52-3.93-2.57-5.14Z" style="fill:#345680; stroke-width:0px;"/><path d="m711.86,400.95c6.95-.08,1,10.12-3.21,4.5-.17-.22,2.94-4.49,3.21-4.5Z" style="fill:#6f6b95; stroke-width:0px;"/><path d="m701.58,336.7c5.64,4.22-4.54,10.13-4.5,3.21,0-.28,4.28-3.38,4.5-3.21Z" style="fill:#545580; stroke-width:0px;"/><path d="m701.58,354.69c1.17.59.89,2.8,0,3.86-1.7,2.02-10.65,1.6,0-3.86Z" style="fill:#545580; stroke-width:0px;"/><path d="m711.86,447.22c.7-.18,11.19,12.09-1.29,5.14-.51-.28.98-5.06,1.29-5.14Z" style="fill:#6f6b95; stroke-width:0px;"/><path d="m725.99,471.63c7.71,10.54-1.15,6.66-1.93,4.5-.08-.23,1.93-2.89,1.93-4.5Z" style="fill:#6f6b95; stroke-width:0px;"/><path d="m724.71,393.24c11.79,2.33-3.21,6.94-3.21,1.93,0-.19,3.03-1.96,3.21-1.93Z" style="fill:#5c648c; stroke-width:0px;"/><path d="m733.7,652.83c2.99-.14,1.49,6.68-1.29,5.14-1.81-1,.04-5.08,1.29-5.14Z" style="fill:#345680; stroke-width:0px;"/><path d="m711.86,524.32c.27-.03,4.62,2.96,4.5,3.21-1.99,4.05-10.27-2.62-4.5-3.21Z" style="fill:#9c7b9d; stroke-width:0px;"/><path d="m725.99,460.07c.62-.15,3.68,3.29.64,5.78-2.84,2.33-1.88-5.48-.64-5.78Z" style="fill:#545580; stroke-width:0px;"/><path d="m711.86,417.66c6.6.08.85,11.21-1.93,3.21-.06-.18,1.74-3.22,1.93-3.21Z" style="fill:#847997; stroke-width:0px;"/><path d="m715.07,471.63h-2.57l-3.21-2.57c12.99-.3,5.78.68,5.78,2.57Z" style="fill:#545580; stroke-width:0px;"/><path d="m724.71,440.79c.56-.35,12.54,3.29-1.29,2.57-1.2-.24-.07-1.72,1.29-2.57Z" style="fill:#6f6b95; stroke-width:0px;"/><path d="m710.57,382.96c.27-.16,3.22,2.35,1.29,5.14-2.54,3.67-2.6-4.38-1.29-5.14Z" style="fill:#545580; stroke-width:0px;"/><path d="m755.55,550.03c.27-.16,3.22,2.35,1.29,5.14-2.54,3.67-2.6-4.38-1.29-5.14Z" style="fill:#af91bc; stroke-width:0px;"/><path d="m725.99,515.33c.44-.05,3.25,8.24,0,6.43-1.17-.65-.88-6.33,0-6.43Z" style="fill:#9989b2; stroke-width:0px;"/><path d="m740.13,641.27c4.26-1.87,3.48,3.79,1.29,3.86-.65.02-3.13-3.05-1.29-3.86Z" style="fill:#3d87a8; stroke-width:0px;"/><path d="m729.85,340.55c4.49,1.93-5.68,3.98-5.78,1.93-.01-.3,5.5-2.05,5.78-1.93Z" style="fill:#545580; stroke-width:0px;"/><path d="m733.7,643.84c1.17.55,1.6,3.75-1.29,3.86-4.06.15.55-4.2,1.29-3.86Z" style="fill:#5b729e; stroke-width:0px;"/><path d="m708,460.07c3.69-.06,1.45,4.21-.64,3.21-2.22-1.05.07-3.2.64-3.21Z" style="fill:#f3fbff; stroke-width:0px;"/><path d="m736.27,344.41c4.39-2.29,5.75,3.13,1.29,2.57-.27-.03-2.56-1.91-1.29-2.57Z" style="fill:#545580; stroke-width:0px;"/><path d="m711.86,316.14c1,0,1,7.71,0,7.71s-1-7.71,0-7.71Z" style="fill:#545580; stroke-width:0px;"/><path d="m725.99,408.66c2.11.93-.02,7.97-1.93,4.5-.26-.47,1.69-4.6,1.93-4.5Z" style="fill:#5c648c; stroke-width:0px;"/><path d="m711.86,433.08c.78.08,1.91,5.3-1.29,5.14-.53-.03.98-5.17,1.29-5.14Z" style="fill:#6f6b95; stroke-width:0px;"/><path d="m742.7,621.99c.46,0,2.83,1.85.64,3.21-2.45,1.53-2.86-3.21-.64-3.21Z" style="fill:#345680; stroke-width:0px;"/><path d="m710.57,355.97c.93-.41,5.78-.07,5.78.64,0,1.46-8.54.57-5.78-.64Z" style="fill:#5c648c; stroke-width:0px;"/><path d="m752.98,628.42c4.82-.69-.41,5.34-1.93,1.93-.06-.12,1.79-1.91,1.93-1.93Z" style="fill:#5ea5ce; stroke-width:0px;"/><path d="m738.84,381.68c3.55-.9,4.5,6.86.64,1.93-.71-.9-2.07-1.57-.64-1.93Z" style="fill:#545580; stroke-width:0px;"/><path d="m708,492.2c.99,0,.99,5.14,0,5.14s-.99-5.14,0-5.14Z" style="fill:#8089af; stroke-width:0px;"/><path d="m711.86,334.13c.99,0,.99,5.14,0,5.14s-.99-5.14,0-5.14Z" style="fill:#5c648c; stroke-width:0px;"/><path d="m709.29,346.98c1.92-.77,2.82,1.95,1.29,2.57-1.92.77-2.82-1.95-1.29-2.57Z" style="fill:#90a0c9; stroke-width:0px;"/><path d="m727.28,618.14c.14-.02,2.6,1.88,1.29,2.57-3.31,1.75-3.71-2.29-1.29-2.57Z" style="fill:#6395b6; stroke-width:0px;"/><path d="m708,476.77c1.64,1.16.69,5.65-1.29,2.57-.82-1.27,1.14-2.68,1.29-2.57Z" style="fill:#dde6ff; stroke-width:0px;"/><path d="m731.13,458.78l.64.64.64.64.64.64-.64.64h-1.29l-.64-.64v-1.29l.64-.64Z" style="fill:#b5bce6; stroke-width:0px;"/></svg>